%TF.GenerationSoftware,KiCad,Pcbnew,(5.1.9)-1*%
%TF.CreationDate,2021-03-23T14:31:34+01:00*%
%TF.ProjectId,DCF77 Receiver,44434637-3720-4526-9563-65697665722e,rev?*%
%TF.SameCoordinates,Original*%
%TF.FileFunction,Copper,L1,Top*%
%TF.FilePolarity,Positive*%
%FSLAX46Y46*%
G04 Gerber Fmt 4.6, Leading zero omitted, Abs format (unit mm)*
G04 Created by KiCad (PCBNEW (5.1.9)-1) date 2021-03-23 14:31:34*
%MOMM*%
%LPD*%
G01*
G04 APERTURE LIST*
%TA.AperFunction,ComponentPad*%
%ADD10C,1.600000*%
%TD*%
%TA.AperFunction,ComponentPad*%
%ADD11R,1.600000X1.600000*%
%TD*%
%TA.AperFunction,ComponentPad*%
%ADD12O,1.600000X1.600000*%
%TD*%
%TA.AperFunction,ComponentPad*%
%ADD13R,1.800000X1.800000*%
%TD*%
%TA.AperFunction,ComponentPad*%
%ADD14C,1.800000*%
%TD*%
%TA.AperFunction,ComponentPad*%
%ADD15R,2.600000X2.600000*%
%TD*%
%TA.AperFunction,ComponentPad*%
%ADD16C,2.600000*%
%TD*%
%TA.AperFunction,ComponentPad*%
%ADD17R,1.700000X1.700000*%
%TD*%
%TA.AperFunction,ComponentPad*%
%ADD18O,1.700000X1.700000*%
%TD*%
%TA.AperFunction,ComponentPad*%
%ADD19R,2.400000X1.600000*%
%TD*%
%TA.AperFunction,ComponentPad*%
%ADD20O,2.400000X1.600000*%
%TD*%
%TA.AperFunction,ViaPad*%
%ADD21C,0.800000*%
%TD*%
%TA.AperFunction,Conductor*%
%ADD22C,0.500000*%
%TD*%
G04 APERTURE END LIST*
D10*
%TO.P,C1,1*%
%TO.N,+5V*%
X99750000Y-168500000D03*
%TO.P,C1,2*%
%TO.N,GND*%
X99750000Y-163500000D03*
%TD*%
%TO.P,C2,2*%
%TO.N,GND*%
X92250000Y-165750000D03*
D11*
%TO.P,C2,1*%
%TO.N,+5V*%
X94750000Y-165750000D03*
%TD*%
%TO.P,C3,1*%
%TO.N,/3.3V*%
X99000000Y-156500000D03*
D10*
%TO.P,C3,2*%
%TO.N,GND*%
X99000000Y-159000000D03*
%TD*%
D11*
%TO.P,D1,1*%
%TO.N,/3.3V*%
X104250000Y-172500000D03*
D12*
%TO.P,D1,2*%
%TO.N,GND*%
X114410000Y-172500000D03*
%TD*%
D13*
%TO.P,D2,1*%
%TO.N,GND*%
X109250000Y-116000000D03*
D14*
%TO.P,D2,2*%
%TO.N,Net-(D2-Pad2)*%
X106710000Y-116000000D03*
%TD*%
D15*
%TO.P,J1,1*%
%TO.N,GND*%
X99500000Y-184000000D03*
D16*
%TO.P,J1,2*%
%TO.N,+5V*%
X104580000Y-184000000D03*
%TO.P,J1,3*%
%TO.N,/Data+*%
X109660000Y-184000000D03*
%TO.P,J1,4*%
%TO.N,/Data-*%
X114740000Y-184000000D03*
%TD*%
D17*
%TO.P,J2,1*%
%TO.N,/3.3V*%
X106000000Y-160250000D03*
D18*
%TO.P,J2,2*%
%TO.N,GND*%
X106000000Y-162790000D03*
%TO.P,J2,3*%
%TO.N,/DCFModuleData*%
X106000000Y-165330000D03*
%TO.P,J2,4*%
%TO.N,GND*%
X106000000Y-167870000D03*
%TD*%
D10*
%TO.P,R1,1*%
%TO.N,/Data-*%
X82590000Y-146500000D03*
D12*
%TO.P,R1,2*%
%TO.N,Net-(D2-Pad2)*%
X92750000Y-146500000D03*
%TD*%
%TO.P,R2,2*%
%TO.N,Net-(R2-Pad2)*%
X83250000Y-172910000D03*
D10*
%TO.P,R2,1*%
%TO.N,+5V*%
X83250000Y-162750000D03*
%TD*%
%TO.P,R3,1*%
%TO.N,Net-(R2-Pad2)*%
X94000000Y-160250000D03*
D12*
%TO.P,R3,2*%
%TO.N,GND*%
X94000000Y-150090000D03*
%TD*%
D10*
%TO.P,R4,1*%
%TO.N,+5V*%
X91590000Y-172500000D03*
D12*
%TO.P,R4,2*%
%TO.N,/3.3V*%
X101750000Y-172500000D03*
%TD*%
%TO.P,R5,2*%
%TO.N,/DCFModuleData*%
X87750000Y-162840000D03*
D10*
%TO.P,R5,1*%
%TO.N,/3.3V*%
X87750000Y-173000000D03*
%TD*%
D19*
%TO.P,U1,1*%
%TO.N,/Data-*%
X90750000Y-159750000D03*
D20*
%TO.P,U1,5*%
%TO.N,Net-(R2-Pad2)*%
X83130000Y-152130000D03*
%TO.P,U1,2*%
X90750000Y-157210000D03*
%TO.P,U1,6*%
%TO.N,/DCFModuleData*%
X83130000Y-154670000D03*
%TO.P,U1,3*%
X90750000Y-154670000D03*
%TO.P,U1,7*%
%TO.N,/Data+*%
X83130000Y-157210000D03*
%TO.P,U1,4*%
%TO.N,GND*%
X90750000Y-152130000D03*
%TO.P,U1,8*%
%TO.N,+5V*%
X83130000Y-159750000D03*
%TD*%
D21*
%TO.N,/Data-*%
X92840001Y-179409999D03*
%TD*%
D22*
%TO.N,+5V*%
X83130000Y-162630000D02*
X83250000Y-162750000D01*
X83130000Y-159750000D02*
X83130000Y-162630000D01*
X99250000Y-169000000D02*
X99750000Y-168500000D01*
X99250000Y-178670000D02*
X99250000Y-169000000D01*
X104580000Y-184000000D02*
X99250000Y-178670000D01*
%TO.N,GND*%
X99500000Y-184000000D02*
X98750000Y-184000000D01*
X98750000Y-184000000D02*
X95250000Y-180500000D01*
X95250000Y-180500000D02*
X95250000Y-167500000D01*
X95250000Y-167500000D02*
X92500000Y-167500000D01*
X92250000Y-167250000D02*
X92250000Y-165750000D01*
X92500000Y-167500000D02*
X92250000Y-167250000D01*
X95250000Y-167500000D02*
X98250000Y-167500000D01*
X99750000Y-166000000D02*
X99750000Y-163500000D01*
X98250000Y-167500000D02*
X99750000Y-166000000D01*
X99000000Y-162750000D02*
X99750000Y-163500000D01*
X99000000Y-159000000D02*
X99000000Y-162750000D01*
%TO.N,/3.3V*%
X104250000Y-172500000D02*
X105500000Y-172500000D01*
X105500000Y-172500000D02*
X108000000Y-170000000D01*
X108000000Y-162250000D02*
X106000000Y-160250000D01*
X108000000Y-170000000D02*
X108000000Y-162250000D01*
%TO.N,/DCFModuleData*%
X90750000Y-154670000D02*
X89830000Y-154670000D01*
X87750000Y-156750000D02*
X87750000Y-162840000D01*
X89830000Y-154670000D02*
X87750000Y-156750000D01*
X85670000Y-154670000D02*
X87750000Y-156750000D01*
X83130000Y-154670000D02*
X85670000Y-154670000D01*
%TO.N,Net-(R2-Pad2)*%
X83250000Y-169750000D02*
X83250000Y-172910000D01*
X89750000Y-163250000D02*
X83250000Y-169750000D01*
X88750000Y-161500000D02*
X89750000Y-162500000D01*
X88750000Y-158500000D02*
X88750000Y-161500000D01*
X90040000Y-157210000D02*
X88750000Y-158500000D01*
X89750000Y-162500000D02*
X89750000Y-163250000D01*
X90750000Y-157210000D02*
X90040000Y-157210000D01*
%TO.N,/Data-*%
X90750000Y-159750000D02*
X91750000Y-159750000D01*
X91750000Y-159750000D02*
X93250000Y-158250000D01*
X93250000Y-158250000D02*
X93250000Y-151500000D01*
X93250000Y-151500000D02*
X90750000Y-149000000D01*
X90750000Y-149000000D02*
X83500000Y-149000000D01*
X82590000Y-148090000D02*
X82590000Y-146500000D01*
X83500000Y-149000000D02*
X82590000Y-148090000D01*
X90750000Y-159750000D02*
X90750000Y-168250000D01*
X92840001Y-170340001D02*
X92840001Y-179409999D01*
X90750000Y-168250000D02*
X92840001Y-170340001D01*
X92840001Y-179409999D02*
X92840001Y-179409999D01*
%TD*%
M02*
