M48
; DRILL file {KiCad (5.1.9)-1} date 03/23/21 14:31:36
; FORMAT={3:3/ absolute / metric / suppress leading zeros}
; #@! TF.CreationDate,2021-03-23T14:31:36+01:00
; #@! TF.GenerationSoftware,Kicad,Pcbnew,(5.1.9)-1
FMAT,2
METRIC,TZ
T1C0.400
T2C0.800
T3C0.900
T4C1.000
T5C1.300
%
G90
G05
T1
X92840Y-179410
T2
X82590Y-146500
X83130Y-152130
X83130Y-154670
X83130Y-157210
X83130Y-159750
X83250Y-162750
X83250Y-172910
X87750Y-162840
X87750Y-173000
X90750Y-152130
X90750Y-154670
X90750Y-157210
X90750Y-159750
X91590Y-172500
X92250Y-165750
X92750Y-146500
X94000Y-150090
X94000Y-160250
X94750Y-165750
X99000Y-156500
X99000Y-159000
X99750Y-163500
X99750Y-168500
X101750Y-172500
X104250Y-172500
X114410Y-172500
T3
X106710Y-116000
X109250Y-116000
T4
X106000Y-160250
X106000Y-162790
X106000Y-165330
X106000Y-167870
T5
X99500Y-184000
X104580Y-184000
X109660Y-184000
X114740Y-184000
T0
M30
