M48
; DRILL file {KiCad (5.1.9)-1} date 03/23/21 14:30:06
; FORMAT={3:3/ absolute / metric / suppress leading zeros}
; #@! TF.CreationDate,2021-03-23T14:30:06+01:00
; #@! TF.GenerationSoftware,Kicad,Pcbnew,(5.1.9)-1
FMAT,2
METRIC,TZ
T1C0.400
T2C1.000
%
G90
G05
T1
X182250Y-85625
X184765Y-84240
X187375Y-82875
X189850Y-81700
X192400Y-80425
X193210Y-79160
X199670Y-76620
X200800Y-75325
X202505Y-74080
X205000Y-72800
X207590Y-71540
X210075Y-70275
X212650Y-69000
X215175Y-67775
T2
X177075Y-64075
X177130Y-90040
X177135Y-84850
X179615Y-64075
X179670Y-90040
X179675Y-84850
X182155Y-64075
X182210Y-90040
X184695Y-64075
X184750Y-90040
X187235Y-64075
X187290Y-90040
X189775Y-64075
X189830Y-90040
X192315Y-64075
X192370Y-90040
X194855Y-64075
X194910Y-90040
X195000Y-69000
X195000Y-71540
X195000Y-74080
X195000Y-76620
X195000Y-79160
X195000Y-81700
X195000Y-84240
X197395Y-64075
X197450Y-90040
X197540Y-69000
X197540Y-71540
X197540Y-74080
X197540Y-76620
X197540Y-79160
X197540Y-81700
X197540Y-84240
X199935Y-64075
X199990Y-90040
X202475Y-64075
X202530Y-90040
X205015Y-64075
X205070Y-90040
X207555Y-64075
X207610Y-90040
X210095Y-64075
X210150Y-90040
X212635Y-64075
X212690Y-90040
X215175Y-64075
X215230Y-90040
T0
M30
