%TF.GenerationSoftware,KiCad,Pcbnew,(5.1.9)-1*%
%TF.CreationDate,2021-03-23T14:30:04+01:00*%
%TF.ProjectId,Display Board,44697370-6c61-4792-9042-6f6172642e6b,rev?*%
%TF.SameCoordinates,Original*%
%TF.FileFunction,Copper,L1,Top*%
%TF.FilePolarity,Positive*%
%FSLAX46Y46*%
G04 Gerber Fmt 4.6, Leading zero omitted, Abs format (unit mm)*
G04 Created by KiCad (PCBNEW (5.1.9)-1) date 2021-03-23 14:30:04*
%MOMM*%
%LPD*%
G01*
G04 APERTURE LIST*
%TA.AperFunction,ComponentPad*%
%ADD10R,1.700000X1.700000*%
%TD*%
%TA.AperFunction,ComponentPad*%
%ADD11O,1.700000X1.700000*%
%TD*%
%TA.AperFunction,ViaPad*%
%ADD12C,0.800000*%
%TD*%
%TA.AperFunction,Conductor*%
%ADD13C,0.250000*%
%TD*%
%TA.AperFunction,NonConductor*%
%ADD14C,0.254000*%
%TD*%
%TA.AperFunction,NonConductor*%
%ADD15C,0.100000*%
%TD*%
G04 APERTURE END LIST*
D10*
%TO.P,J1,1*%
%TO.N,GND*%
X195000000Y-69000000D03*
D11*
%TO.P,J1,2*%
%TO.N,5V*%
X197540000Y-69000000D03*
%TO.P,J1,3*%
%TO.N,Kontrast*%
X195000000Y-71540000D03*
%TO.P,J1,4*%
%TO.N,RS*%
X197540000Y-71540000D03*
%TO.P,J1,5*%
%TO.N,RW*%
X195000000Y-74080000D03*
%TO.P,J1,6*%
%TO.N,E*%
X197540000Y-74080000D03*
%TO.P,J1,7*%
%TO.N,D0*%
X195000000Y-76620000D03*
%TO.P,J1,8*%
%TO.N,D1*%
X197540000Y-76620000D03*
%TO.P,J1,9*%
%TO.N,D2*%
X195000000Y-79160000D03*
%TO.P,J1,10*%
%TO.N,D3*%
X197540000Y-79160000D03*
%TO.P,J1,11*%
%TO.N,D4*%
X195000000Y-81700000D03*
%TO.P,J1,12*%
%TO.N,D5*%
X197540000Y-81700000D03*
%TO.P,J1,13*%
%TO.N,D6*%
X195000000Y-84240000D03*
%TO.P,J1,14*%
%TO.N,D7*%
X197540000Y-84240000D03*
%TD*%
D10*
%TO.P,J2,1*%
%TO.N,GND*%
X215230000Y-90040000D03*
D11*
%TO.P,J2,2*%
%TO.N,5V*%
X212690000Y-90040000D03*
%TO.P,J2,3*%
%TO.N,Kontrast*%
X210150000Y-90040000D03*
%TO.P,J2,4*%
%TO.N,RS*%
X207610000Y-90040000D03*
%TO.P,J2,5*%
%TO.N,RW*%
X205070000Y-90040000D03*
%TO.P,J2,6*%
%TO.N,E*%
X202530000Y-90040000D03*
%TO.P,J2,7*%
%TO.N,D0*%
X199990000Y-90040000D03*
%TO.P,J2,8*%
%TO.N,D1*%
X197450000Y-90040000D03*
%TO.P,J2,9*%
%TO.N,D2*%
X194910000Y-90040000D03*
%TO.P,J2,10*%
%TO.N,D3*%
X192370000Y-90040000D03*
%TO.P,J2,11*%
%TO.N,D4*%
X189830000Y-90040000D03*
%TO.P,J2,12*%
%TO.N,D5*%
X187290000Y-90040000D03*
%TO.P,J2,13*%
%TO.N,D6*%
X184750000Y-90040000D03*
%TO.P,J2,14*%
%TO.N,D7*%
X182210000Y-90040000D03*
%TO.P,J2,15*%
%TO.N,/5V-Hintergrundbeleuchtung*%
X179670000Y-90040000D03*
%TO.P,J2,16*%
%TO.N,/GND-Hintergrundbeleuchtung*%
X177130000Y-90040000D03*
%TD*%
D10*
%TO.P,J3,1*%
%TO.N,/5V-Hintergrundbeleuchtung*%
X179675000Y-84850000D03*
D11*
%TO.P,J3,2*%
%TO.N,/GND-Hintergrundbeleuchtung*%
X177135000Y-84850000D03*
%TD*%
%TO.P,J4,16*%
%TO.N,/GND-Hintergrundbeleuchtung*%
X177075000Y-64075000D03*
%TO.P,J4,15*%
%TO.N,/5V-Hintergrundbeleuchtung*%
X179615000Y-64075000D03*
%TO.P,J4,14*%
%TO.N,D7*%
X182155000Y-64075000D03*
%TO.P,J4,13*%
%TO.N,D6*%
X184695000Y-64075000D03*
%TO.P,J4,12*%
%TO.N,D5*%
X187235000Y-64075000D03*
%TO.P,J4,11*%
%TO.N,D4*%
X189775000Y-64075000D03*
%TO.P,J4,10*%
%TO.N,D3*%
X192315000Y-64075000D03*
%TO.P,J4,9*%
%TO.N,D2*%
X194855000Y-64075000D03*
%TO.P,J4,8*%
%TO.N,D1*%
X197395000Y-64075000D03*
%TO.P,J4,7*%
%TO.N,D0*%
X199935000Y-64075000D03*
%TO.P,J4,6*%
%TO.N,E*%
X202475000Y-64075000D03*
%TO.P,J4,5*%
%TO.N,RW*%
X205015000Y-64075000D03*
%TO.P,J4,4*%
%TO.N,RS*%
X207555000Y-64075000D03*
%TO.P,J4,3*%
%TO.N,Kontrast*%
X210095000Y-64075000D03*
%TO.P,J4,2*%
%TO.N,5V*%
X212635000Y-64075000D03*
D10*
%TO.P,J4,1*%
%TO.N,GND*%
X215175000Y-64075000D03*
%TD*%
D12*
%TO.N,GND*%
X215175000Y-67775000D03*
%TO.N,5V*%
X212650000Y-69000000D03*
%TO.N,Kontrast*%
X210075000Y-70275000D03*
%TO.N,RS*%
X207590000Y-71540000D03*
%TO.N,RW*%
X205000000Y-72800000D03*
%TO.N,E*%
X202505000Y-74080000D03*
%TO.N,D0*%
X200800000Y-75325000D03*
%TO.N,D1*%
X199670000Y-76620000D03*
%TO.N,D2*%
X193210000Y-79160000D03*
%TO.N,D3*%
X192400000Y-80425000D03*
%TO.N,D4*%
X189850000Y-81700000D03*
%TO.N,D5*%
X187374999Y-82875001D03*
%TO.N,D6*%
X184765000Y-84240000D03*
%TO.N,D7*%
X182250000Y-85625000D03*
%TD*%
D13*
%TO.N,GND*%
X195000000Y-69000000D02*
X196225000Y-67775000D01*
X196225000Y-67775000D02*
X207936410Y-67775000D01*
X207936410Y-67775000D02*
X215175000Y-67775000D01*
X215175000Y-67775000D02*
X215175000Y-67775000D01*
%TO.N,5V*%
X208350000Y-69000000D02*
X212650000Y-69000000D01*
X197540000Y-69000000D02*
X208350000Y-69000000D01*
X208350000Y-69000000D02*
X208525000Y-69000000D01*
X212650000Y-69000000D02*
X212650000Y-69000000D01*
%TO.N,Kontrast*%
X195000000Y-71540000D02*
X196265000Y-70275000D01*
X196265000Y-70275000D02*
X210075000Y-70275000D01*
X210075000Y-70275000D02*
X210075000Y-70275000D01*
%TO.N,RS*%
X197540000Y-71540000D02*
X207590000Y-71540000D01*
X207590000Y-71540000D02*
X207590000Y-71540000D01*
%TO.N,RW*%
X195000000Y-74080000D02*
X196280000Y-72800000D01*
X196280000Y-72800000D02*
X205000000Y-72800000D01*
X205000000Y-72800000D02*
X205000000Y-72800000D01*
%TO.N,E*%
X197540000Y-74080000D02*
X202505000Y-74080000D01*
X202505000Y-74080000D02*
X202505000Y-74080000D01*
%TO.N,D0*%
X195000000Y-76620000D02*
X196295000Y-75325000D01*
X196295000Y-75325000D02*
X200800000Y-75325000D01*
X200800000Y-75325000D02*
X200800000Y-75325000D01*
%TO.N,D1*%
X197540000Y-76620000D02*
X199670000Y-76620000D01*
X199670000Y-76620000D02*
X199670000Y-76620000D01*
%TO.N,D2*%
X195000000Y-79160000D02*
X193210000Y-79160000D01*
X193210000Y-79160000D02*
X193210000Y-79160000D01*
%TO.N,D3*%
X197540000Y-79160000D02*
X196275000Y-80425000D01*
X196275000Y-80425000D02*
X192400000Y-80425000D01*
X192400000Y-80425000D02*
X192400000Y-80425000D01*
%TO.N,D4*%
X195000000Y-81700000D02*
X189850000Y-81700000D01*
X189850000Y-81700000D02*
X189850000Y-81700000D01*
%TO.N,D5*%
X196364999Y-82875001D02*
X187374999Y-82875001D01*
X197540000Y-81700000D02*
X196364999Y-82875001D01*
X187374999Y-82875001D02*
X187374999Y-82875001D01*
%TO.N,D6*%
X195000000Y-84240000D02*
X184765000Y-84240000D01*
X184765000Y-84240000D02*
X184765000Y-84240000D01*
%TO.N,D7*%
X197540000Y-84240000D02*
X196155000Y-85625000D01*
X196155000Y-85625000D02*
X182250000Y-85625000D01*
X182250000Y-85625000D02*
X182250000Y-85625000D01*
%TD*%
D14*
X217540001Y-73573000D02*
X210700000Y-73573000D01*
X210675224Y-73575440D01*
X210651399Y-73582667D01*
X210629443Y-73594403D01*
X210610197Y-73610197D01*
X210594403Y-73629443D01*
X210582667Y-73651399D01*
X210575440Y-73675224D01*
X210573000Y-73700000D01*
X210573000Y-80700000D01*
X210575440Y-80724776D01*
X210582667Y-80748601D01*
X210594403Y-80770557D01*
X210610197Y-80789803D01*
X210629443Y-80805597D01*
X210651399Y-80817333D01*
X210675224Y-80824560D01*
X210700000Y-80827000D01*
X217540000Y-80827000D01*
X217540000Y-92540000D01*
X173860000Y-92540000D01*
X173860000Y-89893740D01*
X175645000Y-89893740D01*
X175645000Y-90186260D01*
X175702068Y-90473158D01*
X175814010Y-90743411D01*
X175976525Y-90986632D01*
X176183368Y-91193475D01*
X176426589Y-91355990D01*
X176696842Y-91467932D01*
X176983740Y-91525000D01*
X177276260Y-91525000D01*
X177563158Y-91467932D01*
X177833411Y-91355990D01*
X178076632Y-91193475D01*
X178283475Y-90986632D01*
X178400000Y-90812240D01*
X178516525Y-90986632D01*
X178723368Y-91193475D01*
X178966589Y-91355990D01*
X179236842Y-91467932D01*
X179523740Y-91525000D01*
X179816260Y-91525000D01*
X180103158Y-91467932D01*
X180373411Y-91355990D01*
X180616632Y-91193475D01*
X180823475Y-90986632D01*
X180940000Y-90812240D01*
X181056525Y-90986632D01*
X181263368Y-91193475D01*
X181506589Y-91355990D01*
X181776842Y-91467932D01*
X182063740Y-91525000D01*
X182356260Y-91525000D01*
X182643158Y-91467932D01*
X182913411Y-91355990D01*
X183156632Y-91193475D01*
X183363475Y-90986632D01*
X183480000Y-90812240D01*
X183596525Y-90986632D01*
X183803368Y-91193475D01*
X184046589Y-91355990D01*
X184316842Y-91467932D01*
X184603740Y-91525000D01*
X184896260Y-91525000D01*
X185183158Y-91467932D01*
X185453411Y-91355990D01*
X185696632Y-91193475D01*
X185903475Y-90986632D01*
X186020000Y-90812240D01*
X186136525Y-90986632D01*
X186343368Y-91193475D01*
X186586589Y-91355990D01*
X186856842Y-91467932D01*
X187143740Y-91525000D01*
X187436260Y-91525000D01*
X187723158Y-91467932D01*
X187993411Y-91355990D01*
X188236632Y-91193475D01*
X188443475Y-90986632D01*
X188560000Y-90812240D01*
X188676525Y-90986632D01*
X188883368Y-91193475D01*
X189126589Y-91355990D01*
X189396842Y-91467932D01*
X189683740Y-91525000D01*
X189976260Y-91525000D01*
X190263158Y-91467932D01*
X190533411Y-91355990D01*
X190776632Y-91193475D01*
X190983475Y-90986632D01*
X191100000Y-90812240D01*
X191216525Y-90986632D01*
X191423368Y-91193475D01*
X191666589Y-91355990D01*
X191936842Y-91467932D01*
X192223740Y-91525000D01*
X192516260Y-91525000D01*
X192803158Y-91467932D01*
X193073411Y-91355990D01*
X193316632Y-91193475D01*
X193523475Y-90986632D01*
X193640000Y-90812240D01*
X193756525Y-90986632D01*
X193963368Y-91193475D01*
X194206589Y-91355990D01*
X194476842Y-91467932D01*
X194763740Y-91525000D01*
X195056260Y-91525000D01*
X195343158Y-91467932D01*
X195613411Y-91355990D01*
X195856632Y-91193475D01*
X196063475Y-90986632D01*
X196180000Y-90812240D01*
X196296525Y-90986632D01*
X196503368Y-91193475D01*
X196746589Y-91355990D01*
X197016842Y-91467932D01*
X197303740Y-91525000D01*
X197596260Y-91525000D01*
X197883158Y-91467932D01*
X198153411Y-91355990D01*
X198396632Y-91193475D01*
X198603475Y-90986632D01*
X198720000Y-90812240D01*
X198836525Y-90986632D01*
X199043368Y-91193475D01*
X199286589Y-91355990D01*
X199556842Y-91467932D01*
X199843740Y-91525000D01*
X200136260Y-91525000D01*
X200423158Y-91467932D01*
X200693411Y-91355990D01*
X200936632Y-91193475D01*
X201143475Y-90986632D01*
X201260000Y-90812240D01*
X201376525Y-90986632D01*
X201583368Y-91193475D01*
X201826589Y-91355990D01*
X202096842Y-91467932D01*
X202383740Y-91525000D01*
X202676260Y-91525000D01*
X202963158Y-91467932D01*
X203233411Y-91355990D01*
X203476632Y-91193475D01*
X203683475Y-90986632D01*
X203800000Y-90812240D01*
X203916525Y-90986632D01*
X204123368Y-91193475D01*
X204366589Y-91355990D01*
X204636842Y-91467932D01*
X204923740Y-91525000D01*
X205216260Y-91525000D01*
X205503158Y-91467932D01*
X205773411Y-91355990D01*
X206016632Y-91193475D01*
X206223475Y-90986632D01*
X206340000Y-90812240D01*
X206456525Y-90986632D01*
X206663368Y-91193475D01*
X206906589Y-91355990D01*
X207176842Y-91467932D01*
X207463740Y-91525000D01*
X207756260Y-91525000D01*
X208043158Y-91467932D01*
X208313411Y-91355990D01*
X208556632Y-91193475D01*
X208763475Y-90986632D01*
X208880000Y-90812240D01*
X208996525Y-90986632D01*
X209203368Y-91193475D01*
X209446589Y-91355990D01*
X209716842Y-91467932D01*
X210003740Y-91525000D01*
X210296260Y-91525000D01*
X210583158Y-91467932D01*
X210853411Y-91355990D01*
X211096632Y-91193475D01*
X211303475Y-90986632D01*
X211420000Y-90812240D01*
X211536525Y-90986632D01*
X211743368Y-91193475D01*
X211986589Y-91355990D01*
X212256842Y-91467932D01*
X212543740Y-91525000D01*
X212836260Y-91525000D01*
X213123158Y-91467932D01*
X213393411Y-91355990D01*
X213636632Y-91193475D01*
X213768487Y-91061620D01*
X213790498Y-91134180D01*
X213849463Y-91244494D01*
X213928815Y-91341185D01*
X214025506Y-91420537D01*
X214135820Y-91479502D01*
X214255518Y-91515812D01*
X214380000Y-91528072D01*
X216080000Y-91528072D01*
X216204482Y-91515812D01*
X216324180Y-91479502D01*
X216434494Y-91420537D01*
X216531185Y-91341185D01*
X216610537Y-91244494D01*
X216669502Y-91134180D01*
X216705812Y-91014482D01*
X216718072Y-90890000D01*
X216718072Y-89190000D01*
X216705812Y-89065518D01*
X216669502Y-88945820D01*
X216610537Y-88835506D01*
X216531185Y-88738815D01*
X216434494Y-88659463D01*
X216324180Y-88600498D01*
X216204482Y-88564188D01*
X216080000Y-88551928D01*
X214380000Y-88551928D01*
X214255518Y-88564188D01*
X214135820Y-88600498D01*
X214025506Y-88659463D01*
X213928815Y-88738815D01*
X213849463Y-88835506D01*
X213790498Y-88945820D01*
X213768487Y-89018380D01*
X213636632Y-88886525D01*
X213393411Y-88724010D01*
X213123158Y-88612068D01*
X212836260Y-88555000D01*
X212543740Y-88555000D01*
X212256842Y-88612068D01*
X211986589Y-88724010D01*
X211743368Y-88886525D01*
X211536525Y-89093368D01*
X211420000Y-89267760D01*
X211303475Y-89093368D01*
X211096632Y-88886525D01*
X210853411Y-88724010D01*
X210583158Y-88612068D01*
X210296260Y-88555000D01*
X210003740Y-88555000D01*
X209716842Y-88612068D01*
X209446589Y-88724010D01*
X209203368Y-88886525D01*
X208996525Y-89093368D01*
X208880000Y-89267760D01*
X208763475Y-89093368D01*
X208556632Y-88886525D01*
X208313411Y-88724010D01*
X208043158Y-88612068D01*
X207756260Y-88555000D01*
X207463740Y-88555000D01*
X207176842Y-88612068D01*
X206906589Y-88724010D01*
X206663368Y-88886525D01*
X206456525Y-89093368D01*
X206340000Y-89267760D01*
X206223475Y-89093368D01*
X206016632Y-88886525D01*
X205773411Y-88724010D01*
X205503158Y-88612068D01*
X205216260Y-88555000D01*
X204923740Y-88555000D01*
X204636842Y-88612068D01*
X204366589Y-88724010D01*
X204123368Y-88886525D01*
X203916525Y-89093368D01*
X203800000Y-89267760D01*
X203683475Y-89093368D01*
X203476632Y-88886525D01*
X203233411Y-88724010D01*
X202963158Y-88612068D01*
X202676260Y-88555000D01*
X202383740Y-88555000D01*
X202096842Y-88612068D01*
X201826589Y-88724010D01*
X201583368Y-88886525D01*
X201376525Y-89093368D01*
X201260000Y-89267760D01*
X201143475Y-89093368D01*
X200936632Y-88886525D01*
X200693411Y-88724010D01*
X200423158Y-88612068D01*
X200136260Y-88555000D01*
X199843740Y-88555000D01*
X199556842Y-88612068D01*
X199286589Y-88724010D01*
X199043368Y-88886525D01*
X198836525Y-89093368D01*
X198720000Y-89267760D01*
X198603475Y-89093368D01*
X198396632Y-88886525D01*
X198153411Y-88724010D01*
X197883158Y-88612068D01*
X197596260Y-88555000D01*
X197303740Y-88555000D01*
X197016842Y-88612068D01*
X196746589Y-88724010D01*
X196503368Y-88886525D01*
X196296525Y-89093368D01*
X196180000Y-89267760D01*
X196063475Y-89093368D01*
X195856632Y-88886525D01*
X195613411Y-88724010D01*
X195343158Y-88612068D01*
X195056260Y-88555000D01*
X194763740Y-88555000D01*
X194476842Y-88612068D01*
X194206589Y-88724010D01*
X193963368Y-88886525D01*
X193756525Y-89093368D01*
X193640000Y-89267760D01*
X193523475Y-89093368D01*
X193316632Y-88886525D01*
X193073411Y-88724010D01*
X192803158Y-88612068D01*
X192516260Y-88555000D01*
X192223740Y-88555000D01*
X191936842Y-88612068D01*
X191666589Y-88724010D01*
X191423368Y-88886525D01*
X191216525Y-89093368D01*
X191100000Y-89267760D01*
X190983475Y-89093368D01*
X190776632Y-88886525D01*
X190533411Y-88724010D01*
X190263158Y-88612068D01*
X189976260Y-88555000D01*
X189683740Y-88555000D01*
X189396842Y-88612068D01*
X189126589Y-88724010D01*
X188883368Y-88886525D01*
X188676525Y-89093368D01*
X188560000Y-89267760D01*
X188443475Y-89093368D01*
X188236632Y-88886525D01*
X187993411Y-88724010D01*
X187723158Y-88612068D01*
X187436260Y-88555000D01*
X187143740Y-88555000D01*
X186856842Y-88612068D01*
X186586589Y-88724010D01*
X186343368Y-88886525D01*
X186136525Y-89093368D01*
X186020000Y-89267760D01*
X185903475Y-89093368D01*
X185696632Y-88886525D01*
X185453411Y-88724010D01*
X185183158Y-88612068D01*
X184896260Y-88555000D01*
X184603740Y-88555000D01*
X184316842Y-88612068D01*
X184046589Y-88724010D01*
X183803368Y-88886525D01*
X183596525Y-89093368D01*
X183480000Y-89267760D01*
X183363475Y-89093368D01*
X183156632Y-88886525D01*
X182913411Y-88724010D01*
X182643158Y-88612068D01*
X182356260Y-88555000D01*
X182063740Y-88555000D01*
X181776842Y-88612068D01*
X181506589Y-88724010D01*
X181263368Y-88886525D01*
X181056525Y-89093368D01*
X180940000Y-89267760D01*
X180823475Y-89093368D01*
X180616632Y-88886525D01*
X180373411Y-88724010D01*
X180103158Y-88612068D01*
X179816260Y-88555000D01*
X179523740Y-88555000D01*
X179236842Y-88612068D01*
X178966589Y-88724010D01*
X178723368Y-88886525D01*
X178516525Y-89093368D01*
X178400000Y-89267760D01*
X178283475Y-89093368D01*
X178076632Y-88886525D01*
X177833411Y-88724010D01*
X177563158Y-88612068D01*
X177276260Y-88555000D01*
X176983740Y-88555000D01*
X176696842Y-88612068D01*
X176426589Y-88724010D01*
X176183368Y-88886525D01*
X175976525Y-89093368D01*
X175814010Y-89336589D01*
X175702068Y-89606842D01*
X175645000Y-89893740D01*
X173860000Y-89893740D01*
X173860000Y-84703740D01*
X175650000Y-84703740D01*
X175650000Y-84996260D01*
X175707068Y-85283158D01*
X175819010Y-85553411D01*
X175981525Y-85796632D01*
X176188368Y-86003475D01*
X176431589Y-86165990D01*
X176701842Y-86277932D01*
X176988740Y-86335000D01*
X177281260Y-86335000D01*
X177568158Y-86277932D01*
X177838411Y-86165990D01*
X178081632Y-86003475D01*
X178213487Y-85871620D01*
X178235498Y-85944180D01*
X178294463Y-86054494D01*
X178373815Y-86151185D01*
X178470506Y-86230537D01*
X178580820Y-86289502D01*
X178700518Y-86325812D01*
X178825000Y-86338072D01*
X180525000Y-86338072D01*
X180649482Y-86325812D01*
X180769180Y-86289502D01*
X180879494Y-86230537D01*
X180976185Y-86151185D01*
X181055537Y-86054494D01*
X181114502Y-85944180D01*
X181150812Y-85824482D01*
X181163072Y-85700000D01*
X181163072Y-85523061D01*
X181215000Y-85523061D01*
X181215000Y-85726939D01*
X181254774Y-85926898D01*
X181332795Y-86115256D01*
X181446063Y-86284774D01*
X181590226Y-86428937D01*
X181759744Y-86542205D01*
X181948102Y-86620226D01*
X182148061Y-86660000D01*
X182351939Y-86660000D01*
X182551898Y-86620226D01*
X182740256Y-86542205D01*
X182909774Y-86428937D01*
X182953711Y-86385000D01*
X196117678Y-86385000D01*
X196155000Y-86388676D01*
X196192322Y-86385000D01*
X196192333Y-86385000D01*
X196303986Y-86374003D01*
X196447247Y-86330546D01*
X196579276Y-86259974D01*
X196695001Y-86165001D01*
X196718804Y-86135997D01*
X197173592Y-85681209D01*
X197393740Y-85725000D01*
X197686260Y-85725000D01*
X197973158Y-85667932D01*
X198243411Y-85555990D01*
X198486632Y-85393475D01*
X198693475Y-85186632D01*
X198855990Y-84943411D01*
X198967932Y-84673158D01*
X199025000Y-84386260D01*
X199025000Y-84093740D01*
X198967932Y-83806842D01*
X198855990Y-83536589D01*
X198693475Y-83293368D01*
X198486632Y-83086525D01*
X198312240Y-82970000D01*
X198486632Y-82853475D01*
X198693475Y-82646632D01*
X198855990Y-82403411D01*
X198967932Y-82133158D01*
X199025000Y-81846260D01*
X199025000Y-81553740D01*
X198967932Y-81266842D01*
X198855990Y-80996589D01*
X198693475Y-80753368D01*
X198486632Y-80546525D01*
X198312240Y-80430000D01*
X198486632Y-80313475D01*
X198693475Y-80106632D01*
X198855990Y-79863411D01*
X198967932Y-79593158D01*
X199025000Y-79306260D01*
X199025000Y-79013740D01*
X198967932Y-78726842D01*
X198855990Y-78456589D01*
X198693475Y-78213368D01*
X198486632Y-78006525D01*
X198312240Y-77890000D01*
X198486632Y-77773475D01*
X198693475Y-77566632D01*
X198818178Y-77380000D01*
X198966289Y-77380000D01*
X199010226Y-77423937D01*
X199179744Y-77537205D01*
X199368102Y-77615226D01*
X199568061Y-77655000D01*
X199771939Y-77655000D01*
X199971898Y-77615226D01*
X200160256Y-77537205D01*
X200329774Y-77423937D01*
X200473937Y-77279774D01*
X200587205Y-77110256D01*
X200665226Y-76921898D01*
X200705000Y-76721939D01*
X200705000Y-76518061D01*
X200672551Y-76354926D01*
X200698061Y-76360000D01*
X200901939Y-76360000D01*
X201101898Y-76320226D01*
X201290256Y-76242205D01*
X201459774Y-76128937D01*
X201603937Y-75984774D01*
X201717205Y-75815256D01*
X201795226Y-75626898D01*
X201835000Y-75426939D01*
X201835000Y-75223061D01*
X201795226Y-75023102D01*
X201719382Y-74840000D01*
X201801289Y-74840000D01*
X201845226Y-74883937D01*
X202014744Y-74997205D01*
X202203102Y-75075226D01*
X202403061Y-75115000D01*
X202606939Y-75115000D01*
X202806898Y-75075226D01*
X202995256Y-74997205D01*
X203164774Y-74883937D01*
X203308937Y-74739774D01*
X203422205Y-74570256D01*
X203500226Y-74381898D01*
X203540000Y-74181939D01*
X203540000Y-73978061D01*
X203500226Y-73778102D01*
X203422205Y-73589744D01*
X203402331Y-73560000D01*
X204296289Y-73560000D01*
X204340226Y-73603937D01*
X204509744Y-73717205D01*
X204698102Y-73795226D01*
X204898061Y-73835000D01*
X205101939Y-73835000D01*
X205301898Y-73795226D01*
X205490256Y-73717205D01*
X205659774Y-73603937D01*
X205803937Y-73459774D01*
X205917205Y-73290256D01*
X205995226Y-73101898D01*
X206035000Y-72901939D01*
X206035000Y-72698061D01*
X205995226Y-72498102D01*
X205917205Y-72309744D01*
X205910694Y-72300000D01*
X206886289Y-72300000D01*
X206930226Y-72343937D01*
X207099744Y-72457205D01*
X207288102Y-72535226D01*
X207488061Y-72575000D01*
X207691939Y-72575000D01*
X207891898Y-72535226D01*
X208080256Y-72457205D01*
X208249774Y-72343937D01*
X208393937Y-72199774D01*
X208507205Y-72030256D01*
X208585226Y-71841898D01*
X208625000Y-71641939D01*
X208625000Y-71438061D01*
X208585226Y-71238102D01*
X208507205Y-71049744D01*
X208497353Y-71035000D01*
X209371289Y-71035000D01*
X209415226Y-71078937D01*
X209584744Y-71192205D01*
X209773102Y-71270226D01*
X209973061Y-71310000D01*
X210176939Y-71310000D01*
X210376898Y-71270226D01*
X210565256Y-71192205D01*
X210734774Y-71078937D01*
X210878937Y-70934774D01*
X210992205Y-70765256D01*
X211070226Y-70576898D01*
X211110000Y-70376939D01*
X211110000Y-70173061D01*
X211070226Y-69973102D01*
X210992205Y-69784744D01*
X210975672Y-69760000D01*
X211946289Y-69760000D01*
X211990226Y-69803937D01*
X212159744Y-69917205D01*
X212348102Y-69995226D01*
X212548061Y-70035000D01*
X212751939Y-70035000D01*
X212951898Y-69995226D01*
X213140256Y-69917205D01*
X213309774Y-69803937D01*
X213453937Y-69659774D01*
X213567205Y-69490256D01*
X213645226Y-69301898D01*
X213685000Y-69101939D01*
X213685000Y-68898061D01*
X213645226Y-68698102D01*
X213577666Y-68535000D01*
X214471289Y-68535000D01*
X214515226Y-68578937D01*
X214684744Y-68692205D01*
X214873102Y-68770226D01*
X215073061Y-68810000D01*
X215276939Y-68810000D01*
X215476898Y-68770226D01*
X215665256Y-68692205D01*
X215834774Y-68578937D01*
X215978937Y-68434774D01*
X216092205Y-68265256D01*
X216170226Y-68076898D01*
X216210000Y-67876939D01*
X216210000Y-67673061D01*
X216170226Y-67473102D01*
X216092205Y-67284744D01*
X215978937Y-67115226D01*
X215834774Y-66971063D01*
X215665256Y-66857795D01*
X215476898Y-66779774D01*
X215276939Y-66740000D01*
X215073061Y-66740000D01*
X214873102Y-66779774D01*
X214684744Y-66857795D01*
X214515226Y-66971063D01*
X214471289Y-67015000D01*
X196262333Y-67015000D01*
X196225000Y-67011323D01*
X196187667Y-67015000D01*
X196076014Y-67025997D01*
X195932753Y-67069454D01*
X195800724Y-67140026D01*
X195684999Y-67234999D01*
X195661201Y-67263997D01*
X195413270Y-67511928D01*
X194150000Y-67511928D01*
X194025518Y-67524188D01*
X193905820Y-67560498D01*
X193795506Y-67619463D01*
X193698815Y-67698815D01*
X193619463Y-67795506D01*
X193560498Y-67905820D01*
X193524188Y-68025518D01*
X193511928Y-68150000D01*
X193511928Y-69850000D01*
X193524188Y-69974482D01*
X193560498Y-70094180D01*
X193619463Y-70204494D01*
X193698815Y-70301185D01*
X193795506Y-70380537D01*
X193905820Y-70439502D01*
X193978380Y-70461513D01*
X193846525Y-70593368D01*
X193684010Y-70836589D01*
X193572068Y-71106842D01*
X193515000Y-71393740D01*
X193515000Y-71686260D01*
X193572068Y-71973158D01*
X193684010Y-72243411D01*
X193846525Y-72486632D01*
X194053368Y-72693475D01*
X194227760Y-72810000D01*
X194053368Y-72926525D01*
X193846525Y-73133368D01*
X193684010Y-73376589D01*
X193572068Y-73646842D01*
X193515000Y-73933740D01*
X193515000Y-74226260D01*
X193572068Y-74513158D01*
X193684010Y-74783411D01*
X193846525Y-75026632D01*
X194053368Y-75233475D01*
X194227760Y-75350000D01*
X194053368Y-75466525D01*
X193846525Y-75673368D01*
X193684010Y-75916589D01*
X193572068Y-76186842D01*
X193515000Y-76473740D01*
X193515000Y-76766260D01*
X193572068Y-77053158D01*
X193684010Y-77323411D01*
X193846525Y-77566632D01*
X194053368Y-77773475D01*
X194227760Y-77890000D01*
X194053368Y-78006525D01*
X193846525Y-78213368D01*
X193787784Y-78301279D01*
X193700256Y-78242795D01*
X193511898Y-78164774D01*
X193311939Y-78125000D01*
X193108061Y-78125000D01*
X192908102Y-78164774D01*
X192719744Y-78242795D01*
X192550226Y-78356063D01*
X192406063Y-78500226D01*
X192292795Y-78669744D01*
X192214774Y-78858102D01*
X192175000Y-79058061D01*
X192175000Y-79261939D01*
X192204187Y-79408673D01*
X192098102Y-79429774D01*
X191909744Y-79507795D01*
X191740226Y-79621063D01*
X191596063Y-79765226D01*
X191482795Y-79934744D01*
X191404774Y-80123102D01*
X191365000Y-80323061D01*
X191365000Y-80526939D01*
X191404774Y-80726898D01*
X191482795Y-80915256D01*
X191499328Y-80940000D01*
X190553711Y-80940000D01*
X190509774Y-80896063D01*
X190340256Y-80782795D01*
X190151898Y-80704774D01*
X189951939Y-80665000D01*
X189748061Y-80665000D01*
X189548102Y-80704774D01*
X189359744Y-80782795D01*
X189190226Y-80896063D01*
X189046063Y-81040226D01*
X188932795Y-81209744D01*
X188854774Y-81398102D01*
X188815000Y-81598061D01*
X188815000Y-81801939D01*
X188854774Y-82001898D01*
X188901623Y-82115001D01*
X188078710Y-82115001D01*
X188034773Y-82071064D01*
X187865255Y-81957796D01*
X187676897Y-81879775D01*
X187476938Y-81840001D01*
X187273060Y-81840001D01*
X187073101Y-81879775D01*
X186884743Y-81957796D01*
X186715225Y-82071064D01*
X186571062Y-82215227D01*
X186457794Y-82384745D01*
X186379773Y-82573103D01*
X186339999Y-82773062D01*
X186339999Y-82976940D01*
X186379773Y-83176899D01*
X186457794Y-83365257D01*
X186534463Y-83480000D01*
X185468711Y-83480000D01*
X185424774Y-83436063D01*
X185255256Y-83322795D01*
X185066898Y-83244774D01*
X184866939Y-83205000D01*
X184663061Y-83205000D01*
X184463102Y-83244774D01*
X184274744Y-83322795D01*
X184105226Y-83436063D01*
X183961063Y-83580226D01*
X183847795Y-83749744D01*
X183769774Y-83938102D01*
X183730000Y-84138061D01*
X183730000Y-84341939D01*
X183769774Y-84541898D01*
X183847795Y-84730256D01*
X183937828Y-84865000D01*
X182953711Y-84865000D01*
X182909774Y-84821063D01*
X182740256Y-84707795D01*
X182551898Y-84629774D01*
X182351939Y-84590000D01*
X182148061Y-84590000D01*
X181948102Y-84629774D01*
X181759744Y-84707795D01*
X181590226Y-84821063D01*
X181446063Y-84965226D01*
X181332795Y-85134744D01*
X181254774Y-85323102D01*
X181215000Y-85523061D01*
X181163072Y-85523061D01*
X181163072Y-84000000D01*
X181150812Y-83875518D01*
X181114502Y-83755820D01*
X181055537Y-83645506D01*
X180976185Y-83548815D01*
X180879494Y-83469463D01*
X180769180Y-83410498D01*
X180649482Y-83374188D01*
X180525000Y-83361928D01*
X178825000Y-83361928D01*
X178700518Y-83374188D01*
X178580820Y-83410498D01*
X178470506Y-83469463D01*
X178373815Y-83548815D01*
X178294463Y-83645506D01*
X178235498Y-83755820D01*
X178213487Y-83828380D01*
X178081632Y-83696525D01*
X177838411Y-83534010D01*
X177568158Y-83422068D01*
X177281260Y-83365000D01*
X176988740Y-83365000D01*
X176701842Y-83422068D01*
X176431589Y-83534010D01*
X176188368Y-83696525D01*
X175981525Y-83903368D01*
X175819010Y-84146589D01*
X175707068Y-84416842D01*
X175650000Y-84703740D01*
X173860000Y-84703740D01*
X173860000Y-81077000D01*
X180700000Y-81077000D01*
X180724776Y-81074560D01*
X180748601Y-81067333D01*
X180770557Y-81055597D01*
X180789803Y-81039803D01*
X180805597Y-81020557D01*
X180817333Y-80998601D01*
X180824560Y-80974776D01*
X180827000Y-80950000D01*
X180827000Y-73700000D01*
X180824560Y-73675224D01*
X180817333Y-73651399D01*
X180805597Y-73629443D01*
X180789803Y-73610197D01*
X180770557Y-73594403D01*
X180748601Y-73582667D01*
X180724776Y-73575440D01*
X180700000Y-73573000D01*
X173860000Y-73573000D01*
X173860000Y-63928740D01*
X175590000Y-63928740D01*
X175590000Y-64221260D01*
X175647068Y-64508158D01*
X175759010Y-64778411D01*
X175921525Y-65021632D01*
X176128368Y-65228475D01*
X176371589Y-65390990D01*
X176641842Y-65502932D01*
X176928740Y-65560000D01*
X177221260Y-65560000D01*
X177508158Y-65502932D01*
X177778411Y-65390990D01*
X178021632Y-65228475D01*
X178228475Y-65021632D01*
X178345000Y-64847240D01*
X178461525Y-65021632D01*
X178668368Y-65228475D01*
X178911589Y-65390990D01*
X179181842Y-65502932D01*
X179468740Y-65560000D01*
X179761260Y-65560000D01*
X180048158Y-65502932D01*
X180318411Y-65390990D01*
X180561632Y-65228475D01*
X180768475Y-65021632D01*
X180885000Y-64847240D01*
X181001525Y-65021632D01*
X181208368Y-65228475D01*
X181451589Y-65390990D01*
X181721842Y-65502932D01*
X182008740Y-65560000D01*
X182301260Y-65560000D01*
X182588158Y-65502932D01*
X182858411Y-65390990D01*
X183101632Y-65228475D01*
X183308475Y-65021632D01*
X183425000Y-64847240D01*
X183541525Y-65021632D01*
X183748368Y-65228475D01*
X183991589Y-65390990D01*
X184261842Y-65502932D01*
X184548740Y-65560000D01*
X184841260Y-65560000D01*
X185128158Y-65502932D01*
X185398411Y-65390990D01*
X185641632Y-65228475D01*
X185848475Y-65021632D01*
X185965000Y-64847240D01*
X186081525Y-65021632D01*
X186288368Y-65228475D01*
X186531589Y-65390990D01*
X186801842Y-65502932D01*
X187088740Y-65560000D01*
X187381260Y-65560000D01*
X187668158Y-65502932D01*
X187938411Y-65390990D01*
X188181632Y-65228475D01*
X188388475Y-65021632D01*
X188505000Y-64847240D01*
X188621525Y-65021632D01*
X188828368Y-65228475D01*
X189071589Y-65390990D01*
X189341842Y-65502932D01*
X189628740Y-65560000D01*
X189921260Y-65560000D01*
X190208158Y-65502932D01*
X190478411Y-65390990D01*
X190721632Y-65228475D01*
X190928475Y-65021632D01*
X191045000Y-64847240D01*
X191161525Y-65021632D01*
X191368368Y-65228475D01*
X191611589Y-65390990D01*
X191881842Y-65502932D01*
X192168740Y-65560000D01*
X192461260Y-65560000D01*
X192748158Y-65502932D01*
X193018411Y-65390990D01*
X193261632Y-65228475D01*
X193468475Y-65021632D01*
X193585000Y-64847240D01*
X193701525Y-65021632D01*
X193908368Y-65228475D01*
X194151589Y-65390990D01*
X194421842Y-65502932D01*
X194708740Y-65560000D01*
X195001260Y-65560000D01*
X195288158Y-65502932D01*
X195558411Y-65390990D01*
X195801632Y-65228475D01*
X196008475Y-65021632D01*
X196125000Y-64847240D01*
X196241525Y-65021632D01*
X196448368Y-65228475D01*
X196691589Y-65390990D01*
X196961842Y-65502932D01*
X197248740Y-65560000D01*
X197541260Y-65560000D01*
X197828158Y-65502932D01*
X198098411Y-65390990D01*
X198341632Y-65228475D01*
X198548475Y-65021632D01*
X198665000Y-64847240D01*
X198781525Y-65021632D01*
X198988368Y-65228475D01*
X199231589Y-65390990D01*
X199501842Y-65502932D01*
X199788740Y-65560000D01*
X200081260Y-65560000D01*
X200368158Y-65502932D01*
X200638411Y-65390990D01*
X200881632Y-65228475D01*
X201088475Y-65021632D01*
X201205000Y-64847240D01*
X201321525Y-65021632D01*
X201528368Y-65228475D01*
X201771589Y-65390990D01*
X202041842Y-65502932D01*
X202328740Y-65560000D01*
X202621260Y-65560000D01*
X202908158Y-65502932D01*
X203178411Y-65390990D01*
X203421632Y-65228475D01*
X203628475Y-65021632D01*
X203745000Y-64847240D01*
X203861525Y-65021632D01*
X204068368Y-65228475D01*
X204311589Y-65390990D01*
X204581842Y-65502932D01*
X204868740Y-65560000D01*
X205161260Y-65560000D01*
X205448158Y-65502932D01*
X205718411Y-65390990D01*
X205961632Y-65228475D01*
X206168475Y-65021632D01*
X206285000Y-64847240D01*
X206401525Y-65021632D01*
X206608368Y-65228475D01*
X206851589Y-65390990D01*
X207121842Y-65502932D01*
X207408740Y-65560000D01*
X207701260Y-65560000D01*
X207988158Y-65502932D01*
X208258411Y-65390990D01*
X208501632Y-65228475D01*
X208708475Y-65021632D01*
X208825000Y-64847240D01*
X208941525Y-65021632D01*
X209148368Y-65228475D01*
X209391589Y-65390990D01*
X209661842Y-65502932D01*
X209948740Y-65560000D01*
X210241260Y-65560000D01*
X210528158Y-65502932D01*
X210798411Y-65390990D01*
X211041632Y-65228475D01*
X211248475Y-65021632D01*
X211365000Y-64847240D01*
X211481525Y-65021632D01*
X211688368Y-65228475D01*
X211931589Y-65390990D01*
X212201842Y-65502932D01*
X212488740Y-65560000D01*
X212781260Y-65560000D01*
X213068158Y-65502932D01*
X213338411Y-65390990D01*
X213581632Y-65228475D01*
X213713487Y-65096620D01*
X213735498Y-65169180D01*
X213794463Y-65279494D01*
X213873815Y-65376185D01*
X213970506Y-65455537D01*
X214080820Y-65514502D01*
X214200518Y-65550812D01*
X214325000Y-65563072D01*
X216025000Y-65563072D01*
X216149482Y-65550812D01*
X216269180Y-65514502D01*
X216379494Y-65455537D01*
X216476185Y-65376185D01*
X216555537Y-65279494D01*
X216614502Y-65169180D01*
X216650812Y-65049482D01*
X216663072Y-64925000D01*
X216663072Y-63225000D01*
X216650812Y-63100518D01*
X216614502Y-62980820D01*
X216555537Y-62870506D01*
X216476185Y-62773815D01*
X216379494Y-62694463D01*
X216269180Y-62635498D01*
X216149482Y-62599188D01*
X216025000Y-62586928D01*
X214325000Y-62586928D01*
X214200518Y-62599188D01*
X214080820Y-62635498D01*
X213970506Y-62694463D01*
X213873815Y-62773815D01*
X213794463Y-62870506D01*
X213735498Y-62980820D01*
X213713487Y-63053380D01*
X213581632Y-62921525D01*
X213338411Y-62759010D01*
X213068158Y-62647068D01*
X212781260Y-62590000D01*
X212488740Y-62590000D01*
X212201842Y-62647068D01*
X211931589Y-62759010D01*
X211688368Y-62921525D01*
X211481525Y-63128368D01*
X211365000Y-63302760D01*
X211248475Y-63128368D01*
X211041632Y-62921525D01*
X210798411Y-62759010D01*
X210528158Y-62647068D01*
X210241260Y-62590000D01*
X209948740Y-62590000D01*
X209661842Y-62647068D01*
X209391589Y-62759010D01*
X209148368Y-62921525D01*
X208941525Y-63128368D01*
X208825000Y-63302760D01*
X208708475Y-63128368D01*
X208501632Y-62921525D01*
X208258411Y-62759010D01*
X207988158Y-62647068D01*
X207701260Y-62590000D01*
X207408740Y-62590000D01*
X207121842Y-62647068D01*
X206851589Y-62759010D01*
X206608368Y-62921525D01*
X206401525Y-63128368D01*
X206285000Y-63302760D01*
X206168475Y-63128368D01*
X205961632Y-62921525D01*
X205718411Y-62759010D01*
X205448158Y-62647068D01*
X205161260Y-62590000D01*
X204868740Y-62590000D01*
X204581842Y-62647068D01*
X204311589Y-62759010D01*
X204068368Y-62921525D01*
X203861525Y-63128368D01*
X203745000Y-63302760D01*
X203628475Y-63128368D01*
X203421632Y-62921525D01*
X203178411Y-62759010D01*
X202908158Y-62647068D01*
X202621260Y-62590000D01*
X202328740Y-62590000D01*
X202041842Y-62647068D01*
X201771589Y-62759010D01*
X201528368Y-62921525D01*
X201321525Y-63128368D01*
X201205000Y-63302760D01*
X201088475Y-63128368D01*
X200881632Y-62921525D01*
X200638411Y-62759010D01*
X200368158Y-62647068D01*
X200081260Y-62590000D01*
X199788740Y-62590000D01*
X199501842Y-62647068D01*
X199231589Y-62759010D01*
X198988368Y-62921525D01*
X198781525Y-63128368D01*
X198665000Y-63302760D01*
X198548475Y-63128368D01*
X198341632Y-62921525D01*
X198098411Y-62759010D01*
X197828158Y-62647068D01*
X197541260Y-62590000D01*
X197248740Y-62590000D01*
X196961842Y-62647068D01*
X196691589Y-62759010D01*
X196448368Y-62921525D01*
X196241525Y-63128368D01*
X196125000Y-63302760D01*
X196008475Y-63128368D01*
X195801632Y-62921525D01*
X195558411Y-62759010D01*
X195288158Y-62647068D01*
X195001260Y-62590000D01*
X194708740Y-62590000D01*
X194421842Y-62647068D01*
X194151589Y-62759010D01*
X193908368Y-62921525D01*
X193701525Y-63128368D01*
X193585000Y-63302760D01*
X193468475Y-63128368D01*
X193261632Y-62921525D01*
X193018411Y-62759010D01*
X192748158Y-62647068D01*
X192461260Y-62590000D01*
X192168740Y-62590000D01*
X191881842Y-62647068D01*
X191611589Y-62759010D01*
X191368368Y-62921525D01*
X191161525Y-63128368D01*
X191045000Y-63302760D01*
X190928475Y-63128368D01*
X190721632Y-62921525D01*
X190478411Y-62759010D01*
X190208158Y-62647068D01*
X189921260Y-62590000D01*
X189628740Y-62590000D01*
X189341842Y-62647068D01*
X189071589Y-62759010D01*
X188828368Y-62921525D01*
X188621525Y-63128368D01*
X188505000Y-63302760D01*
X188388475Y-63128368D01*
X188181632Y-62921525D01*
X187938411Y-62759010D01*
X187668158Y-62647068D01*
X187381260Y-62590000D01*
X187088740Y-62590000D01*
X186801842Y-62647068D01*
X186531589Y-62759010D01*
X186288368Y-62921525D01*
X186081525Y-63128368D01*
X185965000Y-63302760D01*
X185848475Y-63128368D01*
X185641632Y-62921525D01*
X185398411Y-62759010D01*
X185128158Y-62647068D01*
X184841260Y-62590000D01*
X184548740Y-62590000D01*
X184261842Y-62647068D01*
X183991589Y-62759010D01*
X183748368Y-62921525D01*
X183541525Y-63128368D01*
X183425000Y-63302760D01*
X183308475Y-63128368D01*
X183101632Y-62921525D01*
X182858411Y-62759010D01*
X182588158Y-62647068D01*
X182301260Y-62590000D01*
X182008740Y-62590000D01*
X181721842Y-62647068D01*
X181451589Y-62759010D01*
X181208368Y-62921525D01*
X181001525Y-63128368D01*
X180885000Y-63302760D01*
X180768475Y-63128368D01*
X180561632Y-62921525D01*
X180318411Y-62759010D01*
X180048158Y-62647068D01*
X179761260Y-62590000D01*
X179468740Y-62590000D01*
X179181842Y-62647068D01*
X178911589Y-62759010D01*
X178668368Y-62921525D01*
X178461525Y-63128368D01*
X178345000Y-63302760D01*
X178228475Y-63128368D01*
X178021632Y-62921525D01*
X177778411Y-62759010D01*
X177508158Y-62647068D01*
X177221260Y-62590000D01*
X176928740Y-62590000D01*
X176641842Y-62647068D01*
X176371589Y-62759010D01*
X176128368Y-62921525D01*
X175921525Y-63128368D01*
X175759010Y-63371589D01*
X175647068Y-63641842D01*
X175590000Y-63928740D01*
X173860000Y-63928740D01*
X173860000Y-61860000D01*
X217540001Y-61860000D01*
X217540001Y-73573000D01*
%TA.AperFunction,NonConductor*%
D15*
G36*
X217540001Y-73573000D02*
G01*
X210700000Y-73573000D01*
X210675224Y-73575440D01*
X210651399Y-73582667D01*
X210629443Y-73594403D01*
X210610197Y-73610197D01*
X210594403Y-73629443D01*
X210582667Y-73651399D01*
X210575440Y-73675224D01*
X210573000Y-73700000D01*
X210573000Y-80700000D01*
X210575440Y-80724776D01*
X210582667Y-80748601D01*
X210594403Y-80770557D01*
X210610197Y-80789803D01*
X210629443Y-80805597D01*
X210651399Y-80817333D01*
X210675224Y-80824560D01*
X210700000Y-80827000D01*
X217540000Y-80827000D01*
X217540000Y-92540000D01*
X173860000Y-92540000D01*
X173860000Y-89893740D01*
X175645000Y-89893740D01*
X175645000Y-90186260D01*
X175702068Y-90473158D01*
X175814010Y-90743411D01*
X175976525Y-90986632D01*
X176183368Y-91193475D01*
X176426589Y-91355990D01*
X176696842Y-91467932D01*
X176983740Y-91525000D01*
X177276260Y-91525000D01*
X177563158Y-91467932D01*
X177833411Y-91355990D01*
X178076632Y-91193475D01*
X178283475Y-90986632D01*
X178400000Y-90812240D01*
X178516525Y-90986632D01*
X178723368Y-91193475D01*
X178966589Y-91355990D01*
X179236842Y-91467932D01*
X179523740Y-91525000D01*
X179816260Y-91525000D01*
X180103158Y-91467932D01*
X180373411Y-91355990D01*
X180616632Y-91193475D01*
X180823475Y-90986632D01*
X180940000Y-90812240D01*
X181056525Y-90986632D01*
X181263368Y-91193475D01*
X181506589Y-91355990D01*
X181776842Y-91467932D01*
X182063740Y-91525000D01*
X182356260Y-91525000D01*
X182643158Y-91467932D01*
X182913411Y-91355990D01*
X183156632Y-91193475D01*
X183363475Y-90986632D01*
X183480000Y-90812240D01*
X183596525Y-90986632D01*
X183803368Y-91193475D01*
X184046589Y-91355990D01*
X184316842Y-91467932D01*
X184603740Y-91525000D01*
X184896260Y-91525000D01*
X185183158Y-91467932D01*
X185453411Y-91355990D01*
X185696632Y-91193475D01*
X185903475Y-90986632D01*
X186020000Y-90812240D01*
X186136525Y-90986632D01*
X186343368Y-91193475D01*
X186586589Y-91355990D01*
X186856842Y-91467932D01*
X187143740Y-91525000D01*
X187436260Y-91525000D01*
X187723158Y-91467932D01*
X187993411Y-91355990D01*
X188236632Y-91193475D01*
X188443475Y-90986632D01*
X188560000Y-90812240D01*
X188676525Y-90986632D01*
X188883368Y-91193475D01*
X189126589Y-91355990D01*
X189396842Y-91467932D01*
X189683740Y-91525000D01*
X189976260Y-91525000D01*
X190263158Y-91467932D01*
X190533411Y-91355990D01*
X190776632Y-91193475D01*
X190983475Y-90986632D01*
X191100000Y-90812240D01*
X191216525Y-90986632D01*
X191423368Y-91193475D01*
X191666589Y-91355990D01*
X191936842Y-91467932D01*
X192223740Y-91525000D01*
X192516260Y-91525000D01*
X192803158Y-91467932D01*
X193073411Y-91355990D01*
X193316632Y-91193475D01*
X193523475Y-90986632D01*
X193640000Y-90812240D01*
X193756525Y-90986632D01*
X193963368Y-91193475D01*
X194206589Y-91355990D01*
X194476842Y-91467932D01*
X194763740Y-91525000D01*
X195056260Y-91525000D01*
X195343158Y-91467932D01*
X195613411Y-91355990D01*
X195856632Y-91193475D01*
X196063475Y-90986632D01*
X196180000Y-90812240D01*
X196296525Y-90986632D01*
X196503368Y-91193475D01*
X196746589Y-91355990D01*
X197016842Y-91467932D01*
X197303740Y-91525000D01*
X197596260Y-91525000D01*
X197883158Y-91467932D01*
X198153411Y-91355990D01*
X198396632Y-91193475D01*
X198603475Y-90986632D01*
X198720000Y-90812240D01*
X198836525Y-90986632D01*
X199043368Y-91193475D01*
X199286589Y-91355990D01*
X199556842Y-91467932D01*
X199843740Y-91525000D01*
X200136260Y-91525000D01*
X200423158Y-91467932D01*
X200693411Y-91355990D01*
X200936632Y-91193475D01*
X201143475Y-90986632D01*
X201260000Y-90812240D01*
X201376525Y-90986632D01*
X201583368Y-91193475D01*
X201826589Y-91355990D01*
X202096842Y-91467932D01*
X202383740Y-91525000D01*
X202676260Y-91525000D01*
X202963158Y-91467932D01*
X203233411Y-91355990D01*
X203476632Y-91193475D01*
X203683475Y-90986632D01*
X203800000Y-90812240D01*
X203916525Y-90986632D01*
X204123368Y-91193475D01*
X204366589Y-91355990D01*
X204636842Y-91467932D01*
X204923740Y-91525000D01*
X205216260Y-91525000D01*
X205503158Y-91467932D01*
X205773411Y-91355990D01*
X206016632Y-91193475D01*
X206223475Y-90986632D01*
X206340000Y-90812240D01*
X206456525Y-90986632D01*
X206663368Y-91193475D01*
X206906589Y-91355990D01*
X207176842Y-91467932D01*
X207463740Y-91525000D01*
X207756260Y-91525000D01*
X208043158Y-91467932D01*
X208313411Y-91355990D01*
X208556632Y-91193475D01*
X208763475Y-90986632D01*
X208880000Y-90812240D01*
X208996525Y-90986632D01*
X209203368Y-91193475D01*
X209446589Y-91355990D01*
X209716842Y-91467932D01*
X210003740Y-91525000D01*
X210296260Y-91525000D01*
X210583158Y-91467932D01*
X210853411Y-91355990D01*
X211096632Y-91193475D01*
X211303475Y-90986632D01*
X211420000Y-90812240D01*
X211536525Y-90986632D01*
X211743368Y-91193475D01*
X211986589Y-91355990D01*
X212256842Y-91467932D01*
X212543740Y-91525000D01*
X212836260Y-91525000D01*
X213123158Y-91467932D01*
X213393411Y-91355990D01*
X213636632Y-91193475D01*
X213768487Y-91061620D01*
X213790498Y-91134180D01*
X213849463Y-91244494D01*
X213928815Y-91341185D01*
X214025506Y-91420537D01*
X214135820Y-91479502D01*
X214255518Y-91515812D01*
X214380000Y-91528072D01*
X216080000Y-91528072D01*
X216204482Y-91515812D01*
X216324180Y-91479502D01*
X216434494Y-91420537D01*
X216531185Y-91341185D01*
X216610537Y-91244494D01*
X216669502Y-91134180D01*
X216705812Y-91014482D01*
X216718072Y-90890000D01*
X216718072Y-89190000D01*
X216705812Y-89065518D01*
X216669502Y-88945820D01*
X216610537Y-88835506D01*
X216531185Y-88738815D01*
X216434494Y-88659463D01*
X216324180Y-88600498D01*
X216204482Y-88564188D01*
X216080000Y-88551928D01*
X214380000Y-88551928D01*
X214255518Y-88564188D01*
X214135820Y-88600498D01*
X214025506Y-88659463D01*
X213928815Y-88738815D01*
X213849463Y-88835506D01*
X213790498Y-88945820D01*
X213768487Y-89018380D01*
X213636632Y-88886525D01*
X213393411Y-88724010D01*
X213123158Y-88612068D01*
X212836260Y-88555000D01*
X212543740Y-88555000D01*
X212256842Y-88612068D01*
X211986589Y-88724010D01*
X211743368Y-88886525D01*
X211536525Y-89093368D01*
X211420000Y-89267760D01*
X211303475Y-89093368D01*
X211096632Y-88886525D01*
X210853411Y-88724010D01*
X210583158Y-88612068D01*
X210296260Y-88555000D01*
X210003740Y-88555000D01*
X209716842Y-88612068D01*
X209446589Y-88724010D01*
X209203368Y-88886525D01*
X208996525Y-89093368D01*
X208880000Y-89267760D01*
X208763475Y-89093368D01*
X208556632Y-88886525D01*
X208313411Y-88724010D01*
X208043158Y-88612068D01*
X207756260Y-88555000D01*
X207463740Y-88555000D01*
X207176842Y-88612068D01*
X206906589Y-88724010D01*
X206663368Y-88886525D01*
X206456525Y-89093368D01*
X206340000Y-89267760D01*
X206223475Y-89093368D01*
X206016632Y-88886525D01*
X205773411Y-88724010D01*
X205503158Y-88612068D01*
X205216260Y-88555000D01*
X204923740Y-88555000D01*
X204636842Y-88612068D01*
X204366589Y-88724010D01*
X204123368Y-88886525D01*
X203916525Y-89093368D01*
X203800000Y-89267760D01*
X203683475Y-89093368D01*
X203476632Y-88886525D01*
X203233411Y-88724010D01*
X202963158Y-88612068D01*
X202676260Y-88555000D01*
X202383740Y-88555000D01*
X202096842Y-88612068D01*
X201826589Y-88724010D01*
X201583368Y-88886525D01*
X201376525Y-89093368D01*
X201260000Y-89267760D01*
X201143475Y-89093368D01*
X200936632Y-88886525D01*
X200693411Y-88724010D01*
X200423158Y-88612068D01*
X200136260Y-88555000D01*
X199843740Y-88555000D01*
X199556842Y-88612068D01*
X199286589Y-88724010D01*
X199043368Y-88886525D01*
X198836525Y-89093368D01*
X198720000Y-89267760D01*
X198603475Y-89093368D01*
X198396632Y-88886525D01*
X198153411Y-88724010D01*
X197883158Y-88612068D01*
X197596260Y-88555000D01*
X197303740Y-88555000D01*
X197016842Y-88612068D01*
X196746589Y-88724010D01*
X196503368Y-88886525D01*
X196296525Y-89093368D01*
X196180000Y-89267760D01*
X196063475Y-89093368D01*
X195856632Y-88886525D01*
X195613411Y-88724010D01*
X195343158Y-88612068D01*
X195056260Y-88555000D01*
X194763740Y-88555000D01*
X194476842Y-88612068D01*
X194206589Y-88724010D01*
X193963368Y-88886525D01*
X193756525Y-89093368D01*
X193640000Y-89267760D01*
X193523475Y-89093368D01*
X193316632Y-88886525D01*
X193073411Y-88724010D01*
X192803158Y-88612068D01*
X192516260Y-88555000D01*
X192223740Y-88555000D01*
X191936842Y-88612068D01*
X191666589Y-88724010D01*
X191423368Y-88886525D01*
X191216525Y-89093368D01*
X191100000Y-89267760D01*
X190983475Y-89093368D01*
X190776632Y-88886525D01*
X190533411Y-88724010D01*
X190263158Y-88612068D01*
X189976260Y-88555000D01*
X189683740Y-88555000D01*
X189396842Y-88612068D01*
X189126589Y-88724010D01*
X188883368Y-88886525D01*
X188676525Y-89093368D01*
X188560000Y-89267760D01*
X188443475Y-89093368D01*
X188236632Y-88886525D01*
X187993411Y-88724010D01*
X187723158Y-88612068D01*
X187436260Y-88555000D01*
X187143740Y-88555000D01*
X186856842Y-88612068D01*
X186586589Y-88724010D01*
X186343368Y-88886525D01*
X186136525Y-89093368D01*
X186020000Y-89267760D01*
X185903475Y-89093368D01*
X185696632Y-88886525D01*
X185453411Y-88724010D01*
X185183158Y-88612068D01*
X184896260Y-88555000D01*
X184603740Y-88555000D01*
X184316842Y-88612068D01*
X184046589Y-88724010D01*
X183803368Y-88886525D01*
X183596525Y-89093368D01*
X183480000Y-89267760D01*
X183363475Y-89093368D01*
X183156632Y-88886525D01*
X182913411Y-88724010D01*
X182643158Y-88612068D01*
X182356260Y-88555000D01*
X182063740Y-88555000D01*
X181776842Y-88612068D01*
X181506589Y-88724010D01*
X181263368Y-88886525D01*
X181056525Y-89093368D01*
X180940000Y-89267760D01*
X180823475Y-89093368D01*
X180616632Y-88886525D01*
X180373411Y-88724010D01*
X180103158Y-88612068D01*
X179816260Y-88555000D01*
X179523740Y-88555000D01*
X179236842Y-88612068D01*
X178966589Y-88724010D01*
X178723368Y-88886525D01*
X178516525Y-89093368D01*
X178400000Y-89267760D01*
X178283475Y-89093368D01*
X178076632Y-88886525D01*
X177833411Y-88724010D01*
X177563158Y-88612068D01*
X177276260Y-88555000D01*
X176983740Y-88555000D01*
X176696842Y-88612068D01*
X176426589Y-88724010D01*
X176183368Y-88886525D01*
X175976525Y-89093368D01*
X175814010Y-89336589D01*
X175702068Y-89606842D01*
X175645000Y-89893740D01*
X173860000Y-89893740D01*
X173860000Y-84703740D01*
X175650000Y-84703740D01*
X175650000Y-84996260D01*
X175707068Y-85283158D01*
X175819010Y-85553411D01*
X175981525Y-85796632D01*
X176188368Y-86003475D01*
X176431589Y-86165990D01*
X176701842Y-86277932D01*
X176988740Y-86335000D01*
X177281260Y-86335000D01*
X177568158Y-86277932D01*
X177838411Y-86165990D01*
X178081632Y-86003475D01*
X178213487Y-85871620D01*
X178235498Y-85944180D01*
X178294463Y-86054494D01*
X178373815Y-86151185D01*
X178470506Y-86230537D01*
X178580820Y-86289502D01*
X178700518Y-86325812D01*
X178825000Y-86338072D01*
X180525000Y-86338072D01*
X180649482Y-86325812D01*
X180769180Y-86289502D01*
X180879494Y-86230537D01*
X180976185Y-86151185D01*
X181055537Y-86054494D01*
X181114502Y-85944180D01*
X181150812Y-85824482D01*
X181163072Y-85700000D01*
X181163072Y-85523061D01*
X181215000Y-85523061D01*
X181215000Y-85726939D01*
X181254774Y-85926898D01*
X181332795Y-86115256D01*
X181446063Y-86284774D01*
X181590226Y-86428937D01*
X181759744Y-86542205D01*
X181948102Y-86620226D01*
X182148061Y-86660000D01*
X182351939Y-86660000D01*
X182551898Y-86620226D01*
X182740256Y-86542205D01*
X182909774Y-86428937D01*
X182953711Y-86385000D01*
X196117678Y-86385000D01*
X196155000Y-86388676D01*
X196192322Y-86385000D01*
X196192333Y-86385000D01*
X196303986Y-86374003D01*
X196447247Y-86330546D01*
X196579276Y-86259974D01*
X196695001Y-86165001D01*
X196718804Y-86135997D01*
X197173592Y-85681209D01*
X197393740Y-85725000D01*
X197686260Y-85725000D01*
X197973158Y-85667932D01*
X198243411Y-85555990D01*
X198486632Y-85393475D01*
X198693475Y-85186632D01*
X198855990Y-84943411D01*
X198967932Y-84673158D01*
X199025000Y-84386260D01*
X199025000Y-84093740D01*
X198967932Y-83806842D01*
X198855990Y-83536589D01*
X198693475Y-83293368D01*
X198486632Y-83086525D01*
X198312240Y-82970000D01*
X198486632Y-82853475D01*
X198693475Y-82646632D01*
X198855990Y-82403411D01*
X198967932Y-82133158D01*
X199025000Y-81846260D01*
X199025000Y-81553740D01*
X198967932Y-81266842D01*
X198855990Y-80996589D01*
X198693475Y-80753368D01*
X198486632Y-80546525D01*
X198312240Y-80430000D01*
X198486632Y-80313475D01*
X198693475Y-80106632D01*
X198855990Y-79863411D01*
X198967932Y-79593158D01*
X199025000Y-79306260D01*
X199025000Y-79013740D01*
X198967932Y-78726842D01*
X198855990Y-78456589D01*
X198693475Y-78213368D01*
X198486632Y-78006525D01*
X198312240Y-77890000D01*
X198486632Y-77773475D01*
X198693475Y-77566632D01*
X198818178Y-77380000D01*
X198966289Y-77380000D01*
X199010226Y-77423937D01*
X199179744Y-77537205D01*
X199368102Y-77615226D01*
X199568061Y-77655000D01*
X199771939Y-77655000D01*
X199971898Y-77615226D01*
X200160256Y-77537205D01*
X200329774Y-77423937D01*
X200473937Y-77279774D01*
X200587205Y-77110256D01*
X200665226Y-76921898D01*
X200705000Y-76721939D01*
X200705000Y-76518061D01*
X200672551Y-76354926D01*
X200698061Y-76360000D01*
X200901939Y-76360000D01*
X201101898Y-76320226D01*
X201290256Y-76242205D01*
X201459774Y-76128937D01*
X201603937Y-75984774D01*
X201717205Y-75815256D01*
X201795226Y-75626898D01*
X201835000Y-75426939D01*
X201835000Y-75223061D01*
X201795226Y-75023102D01*
X201719382Y-74840000D01*
X201801289Y-74840000D01*
X201845226Y-74883937D01*
X202014744Y-74997205D01*
X202203102Y-75075226D01*
X202403061Y-75115000D01*
X202606939Y-75115000D01*
X202806898Y-75075226D01*
X202995256Y-74997205D01*
X203164774Y-74883937D01*
X203308937Y-74739774D01*
X203422205Y-74570256D01*
X203500226Y-74381898D01*
X203540000Y-74181939D01*
X203540000Y-73978061D01*
X203500226Y-73778102D01*
X203422205Y-73589744D01*
X203402331Y-73560000D01*
X204296289Y-73560000D01*
X204340226Y-73603937D01*
X204509744Y-73717205D01*
X204698102Y-73795226D01*
X204898061Y-73835000D01*
X205101939Y-73835000D01*
X205301898Y-73795226D01*
X205490256Y-73717205D01*
X205659774Y-73603937D01*
X205803937Y-73459774D01*
X205917205Y-73290256D01*
X205995226Y-73101898D01*
X206035000Y-72901939D01*
X206035000Y-72698061D01*
X205995226Y-72498102D01*
X205917205Y-72309744D01*
X205910694Y-72300000D01*
X206886289Y-72300000D01*
X206930226Y-72343937D01*
X207099744Y-72457205D01*
X207288102Y-72535226D01*
X207488061Y-72575000D01*
X207691939Y-72575000D01*
X207891898Y-72535226D01*
X208080256Y-72457205D01*
X208249774Y-72343937D01*
X208393937Y-72199774D01*
X208507205Y-72030256D01*
X208585226Y-71841898D01*
X208625000Y-71641939D01*
X208625000Y-71438061D01*
X208585226Y-71238102D01*
X208507205Y-71049744D01*
X208497353Y-71035000D01*
X209371289Y-71035000D01*
X209415226Y-71078937D01*
X209584744Y-71192205D01*
X209773102Y-71270226D01*
X209973061Y-71310000D01*
X210176939Y-71310000D01*
X210376898Y-71270226D01*
X210565256Y-71192205D01*
X210734774Y-71078937D01*
X210878937Y-70934774D01*
X210992205Y-70765256D01*
X211070226Y-70576898D01*
X211110000Y-70376939D01*
X211110000Y-70173061D01*
X211070226Y-69973102D01*
X210992205Y-69784744D01*
X210975672Y-69760000D01*
X211946289Y-69760000D01*
X211990226Y-69803937D01*
X212159744Y-69917205D01*
X212348102Y-69995226D01*
X212548061Y-70035000D01*
X212751939Y-70035000D01*
X212951898Y-69995226D01*
X213140256Y-69917205D01*
X213309774Y-69803937D01*
X213453937Y-69659774D01*
X213567205Y-69490256D01*
X213645226Y-69301898D01*
X213685000Y-69101939D01*
X213685000Y-68898061D01*
X213645226Y-68698102D01*
X213577666Y-68535000D01*
X214471289Y-68535000D01*
X214515226Y-68578937D01*
X214684744Y-68692205D01*
X214873102Y-68770226D01*
X215073061Y-68810000D01*
X215276939Y-68810000D01*
X215476898Y-68770226D01*
X215665256Y-68692205D01*
X215834774Y-68578937D01*
X215978937Y-68434774D01*
X216092205Y-68265256D01*
X216170226Y-68076898D01*
X216210000Y-67876939D01*
X216210000Y-67673061D01*
X216170226Y-67473102D01*
X216092205Y-67284744D01*
X215978937Y-67115226D01*
X215834774Y-66971063D01*
X215665256Y-66857795D01*
X215476898Y-66779774D01*
X215276939Y-66740000D01*
X215073061Y-66740000D01*
X214873102Y-66779774D01*
X214684744Y-66857795D01*
X214515226Y-66971063D01*
X214471289Y-67015000D01*
X196262333Y-67015000D01*
X196225000Y-67011323D01*
X196187667Y-67015000D01*
X196076014Y-67025997D01*
X195932753Y-67069454D01*
X195800724Y-67140026D01*
X195684999Y-67234999D01*
X195661201Y-67263997D01*
X195413270Y-67511928D01*
X194150000Y-67511928D01*
X194025518Y-67524188D01*
X193905820Y-67560498D01*
X193795506Y-67619463D01*
X193698815Y-67698815D01*
X193619463Y-67795506D01*
X193560498Y-67905820D01*
X193524188Y-68025518D01*
X193511928Y-68150000D01*
X193511928Y-69850000D01*
X193524188Y-69974482D01*
X193560498Y-70094180D01*
X193619463Y-70204494D01*
X193698815Y-70301185D01*
X193795506Y-70380537D01*
X193905820Y-70439502D01*
X193978380Y-70461513D01*
X193846525Y-70593368D01*
X193684010Y-70836589D01*
X193572068Y-71106842D01*
X193515000Y-71393740D01*
X193515000Y-71686260D01*
X193572068Y-71973158D01*
X193684010Y-72243411D01*
X193846525Y-72486632D01*
X194053368Y-72693475D01*
X194227760Y-72810000D01*
X194053368Y-72926525D01*
X193846525Y-73133368D01*
X193684010Y-73376589D01*
X193572068Y-73646842D01*
X193515000Y-73933740D01*
X193515000Y-74226260D01*
X193572068Y-74513158D01*
X193684010Y-74783411D01*
X193846525Y-75026632D01*
X194053368Y-75233475D01*
X194227760Y-75350000D01*
X194053368Y-75466525D01*
X193846525Y-75673368D01*
X193684010Y-75916589D01*
X193572068Y-76186842D01*
X193515000Y-76473740D01*
X193515000Y-76766260D01*
X193572068Y-77053158D01*
X193684010Y-77323411D01*
X193846525Y-77566632D01*
X194053368Y-77773475D01*
X194227760Y-77890000D01*
X194053368Y-78006525D01*
X193846525Y-78213368D01*
X193787784Y-78301279D01*
X193700256Y-78242795D01*
X193511898Y-78164774D01*
X193311939Y-78125000D01*
X193108061Y-78125000D01*
X192908102Y-78164774D01*
X192719744Y-78242795D01*
X192550226Y-78356063D01*
X192406063Y-78500226D01*
X192292795Y-78669744D01*
X192214774Y-78858102D01*
X192175000Y-79058061D01*
X192175000Y-79261939D01*
X192204187Y-79408673D01*
X192098102Y-79429774D01*
X191909744Y-79507795D01*
X191740226Y-79621063D01*
X191596063Y-79765226D01*
X191482795Y-79934744D01*
X191404774Y-80123102D01*
X191365000Y-80323061D01*
X191365000Y-80526939D01*
X191404774Y-80726898D01*
X191482795Y-80915256D01*
X191499328Y-80940000D01*
X190553711Y-80940000D01*
X190509774Y-80896063D01*
X190340256Y-80782795D01*
X190151898Y-80704774D01*
X189951939Y-80665000D01*
X189748061Y-80665000D01*
X189548102Y-80704774D01*
X189359744Y-80782795D01*
X189190226Y-80896063D01*
X189046063Y-81040226D01*
X188932795Y-81209744D01*
X188854774Y-81398102D01*
X188815000Y-81598061D01*
X188815000Y-81801939D01*
X188854774Y-82001898D01*
X188901623Y-82115001D01*
X188078710Y-82115001D01*
X188034773Y-82071064D01*
X187865255Y-81957796D01*
X187676897Y-81879775D01*
X187476938Y-81840001D01*
X187273060Y-81840001D01*
X187073101Y-81879775D01*
X186884743Y-81957796D01*
X186715225Y-82071064D01*
X186571062Y-82215227D01*
X186457794Y-82384745D01*
X186379773Y-82573103D01*
X186339999Y-82773062D01*
X186339999Y-82976940D01*
X186379773Y-83176899D01*
X186457794Y-83365257D01*
X186534463Y-83480000D01*
X185468711Y-83480000D01*
X185424774Y-83436063D01*
X185255256Y-83322795D01*
X185066898Y-83244774D01*
X184866939Y-83205000D01*
X184663061Y-83205000D01*
X184463102Y-83244774D01*
X184274744Y-83322795D01*
X184105226Y-83436063D01*
X183961063Y-83580226D01*
X183847795Y-83749744D01*
X183769774Y-83938102D01*
X183730000Y-84138061D01*
X183730000Y-84341939D01*
X183769774Y-84541898D01*
X183847795Y-84730256D01*
X183937828Y-84865000D01*
X182953711Y-84865000D01*
X182909774Y-84821063D01*
X182740256Y-84707795D01*
X182551898Y-84629774D01*
X182351939Y-84590000D01*
X182148061Y-84590000D01*
X181948102Y-84629774D01*
X181759744Y-84707795D01*
X181590226Y-84821063D01*
X181446063Y-84965226D01*
X181332795Y-85134744D01*
X181254774Y-85323102D01*
X181215000Y-85523061D01*
X181163072Y-85523061D01*
X181163072Y-84000000D01*
X181150812Y-83875518D01*
X181114502Y-83755820D01*
X181055537Y-83645506D01*
X180976185Y-83548815D01*
X180879494Y-83469463D01*
X180769180Y-83410498D01*
X180649482Y-83374188D01*
X180525000Y-83361928D01*
X178825000Y-83361928D01*
X178700518Y-83374188D01*
X178580820Y-83410498D01*
X178470506Y-83469463D01*
X178373815Y-83548815D01*
X178294463Y-83645506D01*
X178235498Y-83755820D01*
X178213487Y-83828380D01*
X178081632Y-83696525D01*
X177838411Y-83534010D01*
X177568158Y-83422068D01*
X177281260Y-83365000D01*
X176988740Y-83365000D01*
X176701842Y-83422068D01*
X176431589Y-83534010D01*
X176188368Y-83696525D01*
X175981525Y-83903368D01*
X175819010Y-84146589D01*
X175707068Y-84416842D01*
X175650000Y-84703740D01*
X173860000Y-84703740D01*
X173860000Y-81077000D01*
X180700000Y-81077000D01*
X180724776Y-81074560D01*
X180748601Y-81067333D01*
X180770557Y-81055597D01*
X180789803Y-81039803D01*
X180805597Y-81020557D01*
X180817333Y-80998601D01*
X180824560Y-80974776D01*
X180827000Y-80950000D01*
X180827000Y-73700000D01*
X180824560Y-73675224D01*
X180817333Y-73651399D01*
X180805597Y-73629443D01*
X180789803Y-73610197D01*
X180770557Y-73594403D01*
X180748601Y-73582667D01*
X180724776Y-73575440D01*
X180700000Y-73573000D01*
X173860000Y-73573000D01*
X173860000Y-63928740D01*
X175590000Y-63928740D01*
X175590000Y-64221260D01*
X175647068Y-64508158D01*
X175759010Y-64778411D01*
X175921525Y-65021632D01*
X176128368Y-65228475D01*
X176371589Y-65390990D01*
X176641842Y-65502932D01*
X176928740Y-65560000D01*
X177221260Y-65560000D01*
X177508158Y-65502932D01*
X177778411Y-65390990D01*
X178021632Y-65228475D01*
X178228475Y-65021632D01*
X178345000Y-64847240D01*
X178461525Y-65021632D01*
X178668368Y-65228475D01*
X178911589Y-65390990D01*
X179181842Y-65502932D01*
X179468740Y-65560000D01*
X179761260Y-65560000D01*
X180048158Y-65502932D01*
X180318411Y-65390990D01*
X180561632Y-65228475D01*
X180768475Y-65021632D01*
X180885000Y-64847240D01*
X181001525Y-65021632D01*
X181208368Y-65228475D01*
X181451589Y-65390990D01*
X181721842Y-65502932D01*
X182008740Y-65560000D01*
X182301260Y-65560000D01*
X182588158Y-65502932D01*
X182858411Y-65390990D01*
X183101632Y-65228475D01*
X183308475Y-65021632D01*
X183425000Y-64847240D01*
X183541525Y-65021632D01*
X183748368Y-65228475D01*
X183991589Y-65390990D01*
X184261842Y-65502932D01*
X184548740Y-65560000D01*
X184841260Y-65560000D01*
X185128158Y-65502932D01*
X185398411Y-65390990D01*
X185641632Y-65228475D01*
X185848475Y-65021632D01*
X185965000Y-64847240D01*
X186081525Y-65021632D01*
X186288368Y-65228475D01*
X186531589Y-65390990D01*
X186801842Y-65502932D01*
X187088740Y-65560000D01*
X187381260Y-65560000D01*
X187668158Y-65502932D01*
X187938411Y-65390990D01*
X188181632Y-65228475D01*
X188388475Y-65021632D01*
X188505000Y-64847240D01*
X188621525Y-65021632D01*
X188828368Y-65228475D01*
X189071589Y-65390990D01*
X189341842Y-65502932D01*
X189628740Y-65560000D01*
X189921260Y-65560000D01*
X190208158Y-65502932D01*
X190478411Y-65390990D01*
X190721632Y-65228475D01*
X190928475Y-65021632D01*
X191045000Y-64847240D01*
X191161525Y-65021632D01*
X191368368Y-65228475D01*
X191611589Y-65390990D01*
X191881842Y-65502932D01*
X192168740Y-65560000D01*
X192461260Y-65560000D01*
X192748158Y-65502932D01*
X193018411Y-65390990D01*
X193261632Y-65228475D01*
X193468475Y-65021632D01*
X193585000Y-64847240D01*
X193701525Y-65021632D01*
X193908368Y-65228475D01*
X194151589Y-65390990D01*
X194421842Y-65502932D01*
X194708740Y-65560000D01*
X195001260Y-65560000D01*
X195288158Y-65502932D01*
X195558411Y-65390990D01*
X195801632Y-65228475D01*
X196008475Y-65021632D01*
X196125000Y-64847240D01*
X196241525Y-65021632D01*
X196448368Y-65228475D01*
X196691589Y-65390990D01*
X196961842Y-65502932D01*
X197248740Y-65560000D01*
X197541260Y-65560000D01*
X197828158Y-65502932D01*
X198098411Y-65390990D01*
X198341632Y-65228475D01*
X198548475Y-65021632D01*
X198665000Y-64847240D01*
X198781525Y-65021632D01*
X198988368Y-65228475D01*
X199231589Y-65390990D01*
X199501842Y-65502932D01*
X199788740Y-65560000D01*
X200081260Y-65560000D01*
X200368158Y-65502932D01*
X200638411Y-65390990D01*
X200881632Y-65228475D01*
X201088475Y-65021632D01*
X201205000Y-64847240D01*
X201321525Y-65021632D01*
X201528368Y-65228475D01*
X201771589Y-65390990D01*
X202041842Y-65502932D01*
X202328740Y-65560000D01*
X202621260Y-65560000D01*
X202908158Y-65502932D01*
X203178411Y-65390990D01*
X203421632Y-65228475D01*
X203628475Y-65021632D01*
X203745000Y-64847240D01*
X203861525Y-65021632D01*
X204068368Y-65228475D01*
X204311589Y-65390990D01*
X204581842Y-65502932D01*
X204868740Y-65560000D01*
X205161260Y-65560000D01*
X205448158Y-65502932D01*
X205718411Y-65390990D01*
X205961632Y-65228475D01*
X206168475Y-65021632D01*
X206285000Y-64847240D01*
X206401525Y-65021632D01*
X206608368Y-65228475D01*
X206851589Y-65390990D01*
X207121842Y-65502932D01*
X207408740Y-65560000D01*
X207701260Y-65560000D01*
X207988158Y-65502932D01*
X208258411Y-65390990D01*
X208501632Y-65228475D01*
X208708475Y-65021632D01*
X208825000Y-64847240D01*
X208941525Y-65021632D01*
X209148368Y-65228475D01*
X209391589Y-65390990D01*
X209661842Y-65502932D01*
X209948740Y-65560000D01*
X210241260Y-65560000D01*
X210528158Y-65502932D01*
X210798411Y-65390990D01*
X211041632Y-65228475D01*
X211248475Y-65021632D01*
X211365000Y-64847240D01*
X211481525Y-65021632D01*
X211688368Y-65228475D01*
X211931589Y-65390990D01*
X212201842Y-65502932D01*
X212488740Y-65560000D01*
X212781260Y-65560000D01*
X213068158Y-65502932D01*
X213338411Y-65390990D01*
X213581632Y-65228475D01*
X213713487Y-65096620D01*
X213735498Y-65169180D01*
X213794463Y-65279494D01*
X213873815Y-65376185D01*
X213970506Y-65455537D01*
X214080820Y-65514502D01*
X214200518Y-65550812D01*
X214325000Y-65563072D01*
X216025000Y-65563072D01*
X216149482Y-65550812D01*
X216269180Y-65514502D01*
X216379494Y-65455537D01*
X216476185Y-65376185D01*
X216555537Y-65279494D01*
X216614502Y-65169180D01*
X216650812Y-65049482D01*
X216663072Y-64925000D01*
X216663072Y-63225000D01*
X216650812Y-63100518D01*
X216614502Y-62980820D01*
X216555537Y-62870506D01*
X216476185Y-62773815D01*
X216379494Y-62694463D01*
X216269180Y-62635498D01*
X216149482Y-62599188D01*
X216025000Y-62586928D01*
X214325000Y-62586928D01*
X214200518Y-62599188D01*
X214080820Y-62635498D01*
X213970506Y-62694463D01*
X213873815Y-62773815D01*
X213794463Y-62870506D01*
X213735498Y-62980820D01*
X213713487Y-63053380D01*
X213581632Y-62921525D01*
X213338411Y-62759010D01*
X213068158Y-62647068D01*
X212781260Y-62590000D01*
X212488740Y-62590000D01*
X212201842Y-62647068D01*
X211931589Y-62759010D01*
X211688368Y-62921525D01*
X211481525Y-63128368D01*
X211365000Y-63302760D01*
X211248475Y-63128368D01*
X211041632Y-62921525D01*
X210798411Y-62759010D01*
X210528158Y-62647068D01*
X210241260Y-62590000D01*
X209948740Y-62590000D01*
X209661842Y-62647068D01*
X209391589Y-62759010D01*
X209148368Y-62921525D01*
X208941525Y-63128368D01*
X208825000Y-63302760D01*
X208708475Y-63128368D01*
X208501632Y-62921525D01*
X208258411Y-62759010D01*
X207988158Y-62647068D01*
X207701260Y-62590000D01*
X207408740Y-62590000D01*
X207121842Y-62647068D01*
X206851589Y-62759010D01*
X206608368Y-62921525D01*
X206401525Y-63128368D01*
X206285000Y-63302760D01*
X206168475Y-63128368D01*
X205961632Y-62921525D01*
X205718411Y-62759010D01*
X205448158Y-62647068D01*
X205161260Y-62590000D01*
X204868740Y-62590000D01*
X204581842Y-62647068D01*
X204311589Y-62759010D01*
X204068368Y-62921525D01*
X203861525Y-63128368D01*
X203745000Y-63302760D01*
X203628475Y-63128368D01*
X203421632Y-62921525D01*
X203178411Y-62759010D01*
X202908158Y-62647068D01*
X202621260Y-62590000D01*
X202328740Y-62590000D01*
X202041842Y-62647068D01*
X201771589Y-62759010D01*
X201528368Y-62921525D01*
X201321525Y-63128368D01*
X201205000Y-63302760D01*
X201088475Y-63128368D01*
X200881632Y-62921525D01*
X200638411Y-62759010D01*
X200368158Y-62647068D01*
X200081260Y-62590000D01*
X199788740Y-62590000D01*
X199501842Y-62647068D01*
X199231589Y-62759010D01*
X198988368Y-62921525D01*
X198781525Y-63128368D01*
X198665000Y-63302760D01*
X198548475Y-63128368D01*
X198341632Y-62921525D01*
X198098411Y-62759010D01*
X197828158Y-62647068D01*
X197541260Y-62590000D01*
X197248740Y-62590000D01*
X196961842Y-62647068D01*
X196691589Y-62759010D01*
X196448368Y-62921525D01*
X196241525Y-63128368D01*
X196125000Y-63302760D01*
X196008475Y-63128368D01*
X195801632Y-62921525D01*
X195558411Y-62759010D01*
X195288158Y-62647068D01*
X195001260Y-62590000D01*
X194708740Y-62590000D01*
X194421842Y-62647068D01*
X194151589Y-62759010D01*
X193908368Y-62921525D01*
X193701525Y-63128368D01*
X193585000Y-63302760D01*
X193468475Y-63128368D01*
X193261632Y-62921525D01*
X193018411Y-62759010D01*
X192748158Y-62647068D01*
X192461260Y-62590000D01*
X192168740Y-62590000D01*
X191881842Y-62647068D01*
X191611589Y-62759010D01*
X191368368Y-62921525D01*
X191161525Y-63128368D01*
X191045000Y-63302760D01*
X190928475Y-63128368D01*
X190721632Y-62921525D01*
X190478411Y-62759010D01*
X190208158Y-62647068D01*
X189921260Y-62590000D01*
X189628740Y-62590000D01*
X189341842Y-62647068D01*
X189071589Y-62759010D01*
X188828368Y-62921525D01*
X188621525Y-63128368D01*
X188505000Y-63302760D01*
X188388475Y-63128368D01*
X188181632Y-62921525D01*
X187938411Y-62759010D01*
X187668158Y-62647068D01*
X187381260Y-62590000D01*
X187088740Y-62590000D01*
X186801842Y-62647068D01*
X186531589Y-62759010D01*
X186288368Y-62921525D01*
X186081525Y-63128368D01*
X185965000Y-63302760D01*
X185848475Y-63128368D01*
X185641632Y-62921525D01*
X185398411Y-62759010D01*
X185128158Y-62647068D01*
X184841260Y-62590000D01*
X184548740Y-62590000D01*
X184261842Y-62647068D01*
X183991589Y-62759010D01*
X183748368Y-62921525D01*
X183541525Y-63128368D01*
X183425000Y-63302760D01*
X183308475Y-63128368D01*
X183101632Y-62921525D01*
X182858411Y-62759010D01*
X182588158Y-62647068D01*
X182301260Y-62590000D01*
X182008740Y-62590000D01*
X181721842Y-62647068D01*
X181451589Y-62759010D01*
X181208368Y-62921525D01*
X181001525Y-63128368D01*
X180885000Y-63302760D01*
X180768475Y-63128368D01*
X180561632Y-62921525D01*
X180318411Y-62759010D01*
X180048158Y-62647068D01*
X179761260Y-62590000D01*
X179468740Y-62590000D01*
X179181842Y-62647068D01*
X178911589Y-62759010D01*
X178668368Y-62921525D01*
X178461525Y-63128368D01*
X178345000Y-63302760D01*
X178228475Y-63128368D01*
X178021632Y-62921525D01*
X177778411Y-62759010D01*
X177508158Y-62647068D01*
X177221260Y-62590000D01*
X176928740Y-62590000D01*
X176641842Y-62647068D01*
X176371589Y-62759010D01*
X176128368Y-62921525D01*
X175921525Y-63128368D01*
X175759010Y-63371589D01*
X175647068Y-63641842D01*
X175590000Y-63928740D01*
X173860000Y-63928740D01*
X173860000Y-61860000D01*
X217540001Y-61860000D01*
X217540001Y-73573000D01*
G37*
%TD.AperFunction*%
D14*
X196386525Y-77566632D02*
X196593368Y-77773475D01*
X196767760Y-77890000D01*
X196593368Y-78006525D01*
X196386525Y-78213368D01*
X196270000Y-78387760D01*
X196153475Y-78213368D01*
X195946632Y-78006525D01*
X195772240Y-77890000D01*
X195946632Y-77773475D01*
X196153475Y-77566632D01*
X196270000Y-77392240D01*
X196386525Y-77566632D01*
%TA.AperFunction,NonConductor*%
D15*
G36*
X196386525Y-77566632D02*
G01*
X196593368Y-77773475D01*
X196767760Y-77890000D01*
X196593368Y-78006525D01*
X196386525Y-78213368D01*
X196270000Y-78387760D01*
X196153475Y-78213368D01*
X195946632Y-78006525D01*
X195772240Y-77890000D01*
X195946632Y-77773475D01*
X196153475Y-77566632D01*
X196270000Y-77392240D01*
X196386525Y-77566632D01*
G37*
%TD.AperFunction*%
M02*
