%TF.GenerationSoftware,KiCad,Pcbnew,(5.1.9)-1*%
%TF.CreationDate,2021-03-23T14:30:04+01:00*%
%TF.ProjectId,Display Board,44697370-6c61-4792-9042-6f6172642e6b,rev?*%
%TF.SameCoordinates,Original*%
%TF.FileFunction,Legend,Top*%
%TF.FilePolarity,Positive*%
%FSLAX46Y46*%
G04 Gerber Fmt 4.6, Leading zero omitted, Abs format (unit mm)*
G04 Created by KiCad (PCBNEW (5.1.9)-1) date 2021-03-23 14:30:04*
%MOMM*%
%LPD*%
G01*
G04 APERTURE LIST*
%ADD10C,0.150000*%
%ADD11C,0.120000*%
G04 APERTURE END LIST*
D10*
X175616666Y-92902380D02*
X175616666Y-91902380D01*
X176045238Y-92902380D02*
X176045238Y-92378571D01*
X175997619Y-92283333D01*
X175902380Y-92235714D01*
X175759523Y-92235714D01*
X175664285Y-92283333D01*
X175616666Y-92330952D01*
X176378571Y-92235714D02*
X176759523Y-92235714D01*
X176521428Y-91902380D02*
X176521428Y-92759523D01*
X176569047Y-92854761D01*
X176664285Y-92902380D01*
X176759523Y-92902380D01*
X176950000Y-92235714D02*
X177330952Y-92235714D01*
X177092857Y-91902380D02*
X177092857Y-92759523D01*
X177140476Y-92854761D01*
X177235714Y-92902380D01*
X177330952Y-92902380D01*
X177664285Y-92235714D02*
X177664285Y-93235714D01*
X177664285Y-92283333D02*
X177759523Y-92235714D01*
X177950000Y-92235714D01*
X178045238Y-92283333D01*
X178092857Y-92330952D01*
X178140476Y-92426190D01*
X178140476Y-92711904D01*
X178092857Y-92807142D01*
X178045238Y-92854761D01*
X177950000Y-92902380D01*
X177759523Y-92902380D01*
X177664285Y-92854761D01*
X178521428Y-92854761D02*
X178616666Y-92902380D01*
X178807142Y-92902380D01*
X178902380Y-92854761D01*
X178950000Y-92759523D01*
X178950000Y-92711904D01*
X178902380Y-92616666D01*
X178807142Y-92569047D01*
X178664285Y-92569047D01*
X178569047Y-92521428D01*
X178521428Y-92426190D01*
X178521428Y-92378571D01*
X178569047Y-92283333D01*
X178664285Y-92235714D01*
X178807142Y-92235714D01*
X178902380Y-92283333D01*
X179378571Y-92807142D02*
X179426190Y-92854761D01*
X179378571Y-92902380D01*
X179330952Y-92854761D01*
X179378571Y-92807142D01*
X179378571Y-92902380D01*
X179378571Y-92283333D02*
X179426190Y-92330952D01*
X179378571Y-92378571D01*
X179330952Y-92330952D01*
X179378571Y-92283333D01*
X179378571Y-92378571D01*
X180569047Y-91854761D02*
X179711904Y-93140476D01*
X181616666Y-91854761D02*
X180759523Y-93140476D01*
X181854761Y-92235714D02*
X182045238Y-92902380D01*
X182235714Y-92426190D01*
X182426190Y-92902380D01*
X182616666Y-92235714D01*
X182902380Y-92235714D02*
X183092857Y-92902380D01*
X183283333Y-92426190D01*
X183473809Y-92902380D01*
X183664285Y-92235714D01*
X183950000Y-92235714D02*
X184140476Y-92902380D01*
X184330952Y-92426190D01*
X184521428Y-92902380D01*
X184711904Y-92235714D01*
X185092857Y-92807142D02*
X185140476Y-92854761D01*
X185092857Y-92902380D01*
X185045238Y-92854761D01*
X185092857Y-92807142D01*
X185092857Y-92902380D01*
X185997619Y-92902380D02*
X185997619Y-92378571D01*
X185950000Y-92283333D01*
X185854761Y-92235714D01*
X185664285Y-92235714D01*
X185569047Y-92283333D01*
X185997619Y-92854761D02*
X185902380Y-92902380D01*
X185664285Y-92902380D01*
X185569047Y-92854761D01*
X185521428Y-92759523D01*
X185521428Y-92664285D01*
X185569047Y-92569047D01*
X185664285Y-92521428D01*
X185902380Y-92521428D01*
X185997619Y-92473809D01*
X186616666Y-92902380D02*
X186521428Y-92854761D01*
X186473809Y-92759523D01*
X186473809Y-91902380D01*
X186997619Y-92902380D02*
X186997619Y-91902380D01*
X186997619Y-92283333D02*
X187092857Y-92235714D01*
X187283333Y-92235714D01*
X187378571Y-92283333D01*
X187426190Y-92330952D01*
X187473809Y-92426190D01*
X187473809Y-92711904D01*
X187426190Y-92807142D01*
X187378571Y-92854761D01*
X187283333Y-92902380D01*
X187092857Y-92902380D01*
X186997619Y-92854761D01*
X188283333Y-92854761D02*
X188188095Y-92902380D01*
X187997619Y-92902380D01*
X187902380Y-92854761D01*
X187854761Y-92759523D01*
X187854761Y-92378571D01*
X187902380Y-92283333D01*
X187997619Y-92235714D01*
X188188095Y-92235714D01*
X188283333Y-92283333D01*
X188330952Y-92378571D01*
X188330952Y-92473809D01*
X187854761Y-92569047D01*
X188759523Y-92902380D02*
X188759523Y-92235714D01*
X188759523Y-92426190D02*
X188807142Y-92330952D01*
X188854761Y-92283333D01*
X188950000Y-92235714D01*
X189045238Y-92235714D01*
X189235714Y-92235714D02*
X189616666Y-92235714D01*
X189378571Y-91902380D02*
X189378571Y-92759523D01*
X189426190Y-92854761D01*
X189521428Y-92902380D01*
X189616666Y-92902380D01*
X189950000Y-92521428D02*
X190711904Y-92521428D01*
X191188095Y-92902380D02*
X191188095Y-91902380D01*
X191616666Y-92902380D02*
X191616666Y-92378571D01*
X191569047Y-92283333D01*
X191473809Y-92235714D01*
X191330952Y-92235714D01*
X191235714Y-92283333D01*
X191188095Y-92330952D01*
X192473809Y-92854761D02*
X192378571Y-92902380D01*
X192188095Y-92902380D01*
X192092857Y-92854761D01*
X192045238Y-92759523D01*
X192045238Y-92378571D01*
X192092857Y-92283333D01*
X192188095Y-92235714D01*
X192378571Y-92235714D01*
X192473809Y-92283333D01*
X192521428Y-92378571D01*
X192521428Y-92473809D01*
X192045238Y-92569047D01*
X192807142Y-92235714D02*
X193188095Y-92235714D01*
X192950000Y-91902380D02*
X192950000Y-92759523D01*
X192997619Y-92854761D01*
X193092857Y-92902380D01*
X193188095Y-92902380D01*
X193426190Y-92235714D02*
X193950000Y-92235714D01*
X193426190Y-92902380D01*
X193950000Y-92902380D01*
X194473809Y-92902380D02*
X194378571Y-92854761D01*
X194330952Y-92759523D01*
X194330952Y-91902380D01*
X195235714Y-92854761D02*
X195140476Y-92902380D01*
X194950000Y-92902380D01*
X194854761Y-92854761D01*
X194807142Y-92759523D01*
X194807142Y-92378571D01*
X194854761Y-92283333D01*
X194950000Y-92235714D01*
X195140476Y-92235714D01*
X195235714Y-92283333D01*
X195283333Y-92378571D01*
X195283333Y-92473809D01*
X194807142Y-92569047D01*
X195664285Y-92854761D02*
X195759523Y-92902380D01*
X195950000Y-92902380D01*
X196045238Y-92854761D01*
X196092857Y-92759523D01*
X196092857Y-92711904D01*
X196045238Y-92616666D01*
X195950000Y-92569047D01*
X195807142Y-92569047D01*
X195711904Y-92521428D01*
X195664285Y-92426190D01*
X195664285Y-92378571D01*
X195711904Y-92283333D01*
X195807142Y-92235714D01*
X195950000Y-92235714D01*
X196045238Y-92283333D01*
X196521428Y-92807142D02*
X196569047Y-92854761D01*
X196521428Y-92902380D01*
X196473809Y-92854761D01*
X196521428Y-92807142D01*
X196521428Y-92902380D01*
X197426190Y-92902380D02*
X197426190Y-91902380D01*
X197426190Y-92854761D02*
X197330952Y-92902380D01*
X197140476Y-92902380D01*
X197045238Y-92854761D01*
X196997619Y-92807142D01*
X196950000Y-92711904D01*
X196950000Y-92426190D01*
X196997619Y-92330952D01*
X197045238Y-92283333D01*
X197140476Y-92235714D01*
X197330952Y-92235714D01*
X197426190Y-92283333D01*
X198283333Y-92854761D02*
X198188095Y-92902380D01*
X197997619Y-92902380D01*
X197902380Y-92854761D01*
X197854761Y-92759523D01*
X197854761Y-92378571D01*
X197902380Y-92283333D01*
X197997619Y-92235714D01*
X198188095Y-92235714D01*
X198283333Y-92283333D01*
X198330952Y-92378571D01*
X198330952Y-92473809D01*
X197854761Y-92569047D01*
X194497619Y-86759523D02*
X194497619Y-86188095D01*
X194497619Y-86473809D02*
X195497619Y-86473809D01*
X195354761Y-86378571D01*
X195259523Y-86283333D01*
X195211904Y-86188095D01*
X195497619Y-87092857D02*
X195497619Y-87711904D01*
X195116666Y-87378571D01*
X195116666Y-87521428D01*
X195069047Y-87616666D01*
X195021428Y-87664285D01*
X194926190Y-87711904D01*
X194688095Y-87711904D01*
X194592857Y-87664285D01*
X194545238Y-87616666D01*
X194497619Y-87521428D01*
X194497619Y-87235714D01*
X194545238Y-87140476D01*
X194592857Y-87092857D01*
X197902380Y-66414285D02*
X197950000Y-66461904D01*
X197997619Y-66557142D01*
X197997619Y-66795238D01*
X197950000Y-66890476D01*
X197902380Y-66938095D01*
X197807142Y-66985714D01*
X197711904Y-66985714D01*
X197569047Y-66938095D01*
X196997619Y-66366666D01*
X196997619Y-66985714D01*
X196997619Y-86759523D02*
X196997619Y-86188095D01*
X196997619Y-86473809D02*
X197997619Y-86473809D01*
X197854761Y-86378571D01*
X197759523Y-86283333D01*
X197711904Y-86188095D01*
X197664285Y-87616666D02*
X196997619Y-87616666D01*
X198045238Y-87378571D02*
X197330952Y-87140476D01*
X197330952Y-87759523D01*
X193997619Y-66985714D02*
X193997619Y-66414285D01*
X193997619Y-66700000D02*
X194997619Y-66700000D01*
X194854761Y-66604761D01*
X194759523Y-66509523D01*
X194711904Y-66414285D01*
X175105952Y-81896428D02*
X175867857Y-81896428D01*
X177582142Y-82277380D02*
X177105952Y-82277380D01*
X177105952Y-81277380D01*
X177915476Y-81753571D02*
X178248809Y-81753571D01*
X178391666Y-82277380D02*
X177915476Y-82277380D01*
X177915476Y-81277380D01*
X178391666Y-81277380D01*
X178820238Y-82277380D02*
X178820238Y-81277380D01*
X179058333Y-81277380D01*
X179201190Y-81325000D01*
X179296428Y-81420238D01*
X179344047Y-81515476D01*
X179391666Y-81705952D01*
X179391666Y-81848809D01*
X179344047Y-82039285D01*
X179296428Y-82134523D01*
X179201190Y-82229761D01*
X179058333Y-82277380D01*
X178820238Y-82277380D01*
X180582142Y-81896428D02*
X181344047Y-81896428D01*
X180963095Y-82277380D02*
X180963095Y-81515476D01*
X176884523Y-88152380D02*
X176313095Y-88152380D01*
X176598809Y-88152380D02*
X176598809Y-87152380D01*
X176503571Y-87295238D01*
X176408333Y-87390476D01*
X176313095Y-87438095D01*
X177741666Y-87152380D02*
X177551190Y-87152380D01*
X177455952Y-87200000D01*
X177408333Y-87247619D01*
X177313095Y-87390476D01*
X177265476Y-87580952D01*
X177265476Y-87961904D01*
X177313095Y-88057142D01*
X177360714Y-88104761D01*
X177455952Y-88152380D01*
X177646428Y-88152380D01*
X177741666Y-88104761D01*
X177789285Y-88057142D01*
X177836904Y-87961904D01*
X177836904Y-87723809D01*
X177789285Y-87628571D01*
X177741666Y-87580952D01*
X177646428Y-87533333D01*
X177455952Y-87533333D01*
X177360714Y-87580952D01*
X177313095Y-87628571D01*
X177265476Y-87723809D01*
X176809523Y-66952380D02*
X176238095Y-66952380D01*
X176523809Y-66952380D02*
X176523809Y-65952380D01*
X176428571Y-66095238D01*
X176333333Y-66190476D01*
X176238095Y-66238095D01*
X177666666Y-65952380D02*
X177476190Y-65952380D01*
X177380952Y-66000000D01*
X177333333Y-66047619D01*
X177238095Y-66190476D01*
X177190476Y-66380952D01*
X177190476Y-66761904D01*
X177238095Y-66857142D01*
X177285714Y-66904761D01*
X177380952Y-66952380D01*
X177571428Y-66952380D01*
X177666666Y-66904761D01*
X177714285Y-66857142D01*
X177761904Y-66761904D01*
X177761904Y-66523809D01*
X177714285Y-66428571D01*
X177666666Y-66380952D01*
X177571428Y-66333333D01*
X177380952Y-66333333D01*
X177285714Y-66380952D01*
X177238095Y-66428571D01*
X177190476Y-66523809D01*
X216435714Y-67052380D02*
X215864285Y-67052380D01*
X216150000Y-67052380D02*
X216150000Y-66052380D01*
X216054761Y-66195238D01*
X215959523Y-66290476D01*
X215864285Y-66338095D01*
X215660714Y-87402380D02*
X215089285Y-87402380D01*
X215375000Y-87402380D02*
X215375000Y-86402380D01*
X215279761Y-86545238D01*
X215184523Y-86640476D01*
X215089285Y-86688095D01*
X183415476Y-75427380D02*
X183415476Y-74427380D01*
X183748809Y-75141666D01*
X184082142Y-74427380D01*
X184082142Y-75427380D01*
X184986904Y-74760714D02*
X184986904Y-75427380D01*
X184558333Y-74760714D02*
X184558333Y-75284523D01*
X184605952Y-75379761D01*
X184701190Y-75427380D01*
X184844047Y-75427380D01*
X184939285Y-75379761D01*
X184986904Y-75332142D01*
X185320238Y-74760714D02*
X185701190Y-74760714D01*
X185463095Y-74427380D02*
X185463095Y-75284523D01*
X185510714Y-75379761D01*
X185605952Y-75427380D01*
X185701190Y-75427380D01*
X185891666Y-74760714D02*
X186272619Y-74760714D01*
X186034523Y-74427380D02*
X186034523Y-75284523D01*
X186082142Y-75379761D01*
X186177380Y-75427380D01*
X186272619Y-75427380D01*
X186986904Y-75379761D02*
X186891666Y-75427380D01*
X186701190Y-75427380D01*
X186605952Y-75379761D01*
X186558333Y-75284523D01*
X186558333Y-74903571D01*
X186605952Y-74808333D01*
X186701190Y-74760714D01*
X186891666Y-74760714D01*
X186986904Y-74808333D01*
X187034523Y-74903571D01*
X187034523Y-74998809D01*
X186558333Y-75094047D01*
X187463095Y-75427380D02*
X187463095Y-74760714D01*
X187463095Y-74951190D02*
X187510714Y-74855952D01*
X187558333Y-74808333D01*
X187653571Y-74760714D01*
X187748809Y-74760714D01*
X188510714Y-74760714D02*
X188510714Y-75427380D01*
X188082142Y-74760714D02*
X188082142Y-75284523D01*
X188129761Y-75379761D01*
X188225000Y-75427380D01*
X188367857Y-75427380D01*
X188463095Y-75379761D01*
X188510714Y-75332142D01*
X188986904Y-75427380D02*
X188986904Y-74427380D01*
X189415476Y-75427380D02*
X189415476Y-74903571D01*
X189367857Y-74808333D01*
X189272619Y-74760714D01*
X189129761Y-74760714D01*
X189034523Y-74808333D01*
X188986904Y-74855952D01*
X189891666Y-75427380D02*
X189891666Y-74760714D01*
X189891666Y-74951190D02*
X189939285Y-74855952D01*
X189986904Y-74808333D01*
X190082142Y-74760714D01*
X190177380Y-74760714D01*
X183558333Y-77077380D02*
X183558333Y-76077380D01*
X183558333Y-76553571D02*
X184129761Y-76553571D01*
X184129761Y-77077380D02*
X184129761Y-76077380D01*
X184605952Y-77077380D02*
X184605952Y-76077380D01*
X184844047Y-76077380D01*
X184986904Y-76125000D01*
X185082142Y-76220238D01*
X185129761Y-76315476D01*
X185177380Y-76505952D01*
X185177380Y-76648809D01*
X185129761Y-76839285D01*
X185082142Y-76934523D01*
X184986904Y-77029761D01*
X184844047Y-77077380D01*
X184605952Y-77077380D01*
X186034523Y-76410714D02*
X186034523Y-77077380D01*
X185796428Y-76029761D02*
X185558333Y-76744047D01*
X186177380Y-76744047D01*
X186986904Y-76410714D02*
X186986904Y-77077380D01*
X186748809Y-76029761D02*
X186510714Y-76744047D01*
X187129761Y-76744047D01*
X187415476Y-76077380D02*
X188082142Y-76077380D01*
X187653571Y-77077380D01*
X188605952Y-76505952D02*
X188510714Y-76458333D01*
X188463095Y-76410714D01*
X188415476Y-76315476D01*
X188415476Y-76267857D01*
X188463095Y-76172619D01*
X188510714Y-76125000D01*
X188605952Y-76077380D01*
X188796428Y-76077380D01*
X188891666Y-76125000D01*
X188939285Y-76172619D01*
X188986904Y-76267857D01*
X188986904Y-76315476D01*
X188939285Y-76410714D01*
X188891666Y-76458333D01*
X188796428Y-76505952D01*
X188605952Y-76505952D01*
X188510714Y-76553571D01*
X188463095Y-76601190D01*
X188415476Y-76696428D01*
X188415476Y-76886904D01*
X188463095Y-76982142D01*
X188510714Y-77029761D01*
X188605952Y-77077380D01*
X188796428Y-77077380D01*
X188891666Y-77029761D01*
X188939285Y-76982142D01*
X188986904Y-76886904D01*
X188986904Y-76696428D01*
X188939285Y-76601190D01*
X188891666Y-76553571D01*
X188796428Y-76505952D01*
X189605952Y-76077380D02*
X189701190Y-76077380D01*
X189796428Y-76125000D01*
X189844047Y-76172619D01*
X189891666Y-76267857D01*
X189939285Y-76458333D01*
X189939285Y-76696428D01*
X189891666Y-76886904D01*
X189844047Y-76982142D01*
X189796428Y-77029761D01*
X189701190Y-77077380D01*
X189605952Y-77077380D01*
X189510714Y-77029761D01*
X189463095Y-76982142D01*
X189415476Y-76886904D01*
X189367857Y-76696428D01*
X189367857Y-76458333D01*
X189415476Y-76267857D01*
X189463095Y-76172619D01*
X189510714Y-76125000D01*
X189605952Y-76077380D01*
X182153571Y-78727380D02*
X182153571Y-77727380D01*
X182391666Y-77727380D01*
X182534523Y-77775000D01*
X182629761Y-77870238D01*
X182677380Y-77965476D01*
X182725000Y-78155952D01*
X182725000Y-78298809D01*
X182677380Y-78489285D01*
X182629761Y-78584523D01*
X182534523Y-78679761D01*
X182391666Y-78727380D01*
X182153571Y-78727380D01*
X183153571Y-78727380D02*
X183153571Y-78060714D01*
X183153571Y-77727380D02*
X183105952Y-77775000D01*
X183153571Y-77822619D01*
X183201190Y-77775000D01*
X183153571Y-77727380D01*
X183153571Y-77822619D01*
X183582142Y-78679761D02*
X183677380Y-78727380D01*
X183867857Y-78727380D01*
X183963095Y-78679761D01*
X184010714Y-78584523D01*
X184010714Y-78536904D01*
X183963095Y-78441666D01*
X183867857Y-78394047D01*
X183725000Y-78394047D01*
X183629761Y-78346428D01*
X183582142Y-78251190D01*
X183582142Y-78203571D01*
X183629761Y-78108333D01*
X183725000Y-78060714D01*
X183867857Y-78060714D01*
X183963095Y-78108333D01*
X184439285Y-78060714D02*
X184439285Y-79060714D01*
X184439285Y-78108333D02*
X184534523Y-78060714D01*
X184725000Y-78060714D01*
X184820238Y-78108333D01*
X184867857Y-78155952D01*
X184915476Y-78251190D01*
X184915476Y-78536904D01*
X184867857Y-78632142D01*
X184820238Y-78679761D01*
X184725000Y-78727380D01*
X184534523Y-78727380D01*
X184439285Y-78679761D01*
X185486904Y-78727380D02*
X185391666Y-78679761D01*
X185344047Y-78584523D01*
X185344047Y-77727380D01*
X186296428Y-78727380D02*
X186296428Y-78203571D01*
X186248809Y-78108333D01*
X186153571Y-78060714D01*
X185963095Y-78060714D01*
X185867857Y-78108333D01*
X186296428Y-78679761D02*
X186201190Y-78727380D01*
X185963095Y-78727380D01*
X185867857Y-78679761D01*
X185820238Y-78584523D01*
X185820238Y-78489285D01*
X185867857Y-78394047D01*
X185963095Y-78346428D01*
X186201190Y-78346428D01*
X186296428Y-78298809D01*
X186677380Y-78060714D02*
X186915476Y-78727380D01*
X187153571Y-78060714D02*
X186915476Y-78727380D01*
X186820238Y-78965476D01*
X186772619Y-79013095D01*
X186677380Y-79060714D01*
X187534523Y-78727380D02*
X187534523Y-77727380D01*
X187534523Y-78108333D02*
X187629761Y-78060714D01*
X187820238Y-78060714D01*
X187915476Y-78108333D01*
X187963095Y-78155952D01*
X188010714Y-78251190D01*
X188010714Y-78536904D01*
X187963095Y-78632142D01*
X187915476Y-78679761D01*
X187820238Y-78727380D01*
X187629761Y-78727380D01*
X187534523Y-78679761D01*
X188582142Y-78727380D02*
X188486904Y-78679761D01*
X188439285Y-78632142D01*
X188391666Y-78536904D01*
X188391666Y-78251190D01*
X188439285Y-78155952D01*
X188486904Y-78108333D01*
X188582142Y-78060714D01*
X188725000Y-78060714D01*
X188820238Y-78108333D01*
X188867857Y-78155952D01*
X188915476Y-78251190D01*
X188915476Y-78536904D01*
X188867857Y-78632142D01*
X188820238Y-78679761D01*
X188725000Y-78727380D01*
X188582142Y-78727380D01*
X189772619Y-78727380D02*
X189772619Y-78203571D01*
X189725000Y-78108333D01*
X189629761Y-78060714D01*
X189439285Y-78060714D01*
X189344047Y-78108333D01*
X189772619Y-78679761D02*
X189677380Y-78727380D01*
X189439285Y-78727380D01*
X189344047Y-78679761D01*
X189296428Y-78584523D01*
X189296428Y-78489285D01*
X189344047Y-78394047D01*
X189439285Y-78346428D01*
X189677380Y-78346428D01*
X189772619Y-78298809D01*
X190248809Y-78727380D02*
X190248809Y-78060714D01*
X190248809Y-78251190D02*
X190296428Y-78155952D01*
X190344047Y-78108333D01*
X190439285Y-78060714D01*
X190534523Y-78060714D01*
X191296428Y-78727380D02*
X191296428Y-77727380D01*
X191296428Y-78679761D02*
X191201190Y-78727380D01*
X191010714Y-78727380D01*
X190915476Y-78679761D01*
X190867857Y-78632142D01*
X190820238Y-78536904D01*
X190820238Y-78251190D01*
X190867857Y-78155952D01*
X190915476Y-78108333D01*
X191010714Y-78060714D01*
X191201190Y-78060714D01*
X191296428Y-78108333D01*
D11*
X217700000Y-77200000D02*
G75*
G03*
X217700000Y-77200000I-3500000J0D01*
G01*
X180700000Y-77200000D02*
G75*
G03*
X180700000Y-77200000I-3500000J0D01*
G01*
%TO.C,J1*%
X193670000Y-67670000D02*
X195000000Y-67670000D01*
X193670000Y-69000000D02*
X193670000Y-67670000D01*
X196270000Y-67670000D02*
X198870000Y-67670000D01*
X196270000Y-70270000D02*
X196270000Y-67670000D01*
X193670000Y-70270000D02*
X196270000Y-70270000D01*
X198870000Y-67670000D02*
X198870000Y-85570000D01*
X193670000Y-70270000D02*
X193670000Y-85570000D01*
X193670000Y-85570000D02*
X198870000Y-85570000D01*
%TO.C,J3*%
X181005000Y-83520000D02*
X181005000Y-84850000D01*
X179675000Y-83520000D02*
X181005000Y-83520000D01*
X178405000Y-83520000D02*
X178405000Y-86180000D01*
X178405000Y-86180000D02*
X175805000Y-86180000D01*
X178405000Y-83520000D02*
X175805000Y-83520000D01*
X175805000Y-83520000D02*
X175805000Y-86180000D01*
%TO.C,J1*%
D10*
X191616666Y-68402380D02*
X191616666Y-69116666D01*
X191569047Y-69259523D01*
X191473809Y-69354761D01*
X191330952Y-69402380D01*
X191235714Y-69402380D01*
X192616666Y-69402380D02*
X192045238Y-69402380D01*
X192330952Y-69402380D02*
X192330952Y-68402380D01*
X192235714Y-68545238D01*
X192140476Y-68640476D01*
X192045238Y-68688095D01*
%TO.C,J3*%
X181457380Y-85183333D02*
X182171666Y-85183333D01*
X182314523Y-85230952D01*
X182409761Y-85326190D01*
X182457380Y-85469047D01*
X182457380Y-85564285D01*
X181457380Y-84802380D02*
X181457380Y-84183333D01*
X181838333Y-84516666D01*
X181838333Y-84373809D01*
X181885952Y-84278571D01*
X181933571Y-84230952D01*
X182028809Y-84183333D01*
X182266904Y-84183333D01*
X182362142Y-84230952D01*
X182409761Y-84278571D01*
X182457380Y-84373809D01*
X182457380Y-84659523D01*
X182409761Y-84754761D01*
X182362142Y-84802380D01*
%TD*%
M02*
