%TF.GenerationSoftware,KiCad,Pcbnew,7.0.9*%
%TF.CreationDate,2023-12-16T09:33:54+01:00*%
%TF.ProjectId,Mutteruhr,4d757474-6572-4756-9872-2e6b69636164,rev?*%
%TF.SameCoordinates,Original*%
%TF.FileFunction,Soldermask,Top*%
%TF.FilePolarity,Negative*%
%FSLAX46Y46*%
G04 Gerber Fmt 4.6, Leading zero omitted, Abs format (unit mm)*
G04 Created by KiCad (PCBNEW 7.0.9) date 2023-12-16 09:33:54*
%MOMM*%
%LPD*%
G01*
G04 APERTURE LIST*
G04 Aperture macros list*
%AMRoundRect*
0 Rectangle with rounded corners*
0 $1 Rounding radius*
0 $2 $3 $4 $5 $6 $7 $8 $9 X,Y pos of 4 corners*
0 Add a 4 corners polygon primitive as box body*
4,1,4,$2,$3,$4,$5,$6,$7,$8,$9,$2,$3,0*
0 Add four circle primitives for the rounded corners*
1,1,$1+$1,$2,$3*
1,1,$1+$1,$4,$5*
1,1,$1+$1,$6,$7*
1,1,$1+$1,$8,$9*
0 Add four rect primitives between the rounded corners*
20,1,$1+$1,$2,$3,$4,$5,0*
20,1,$1+$1,$4,$5,$6,$7,0*
20,1,$1+$1,$6,$7,$8,$9,0*
20,1,$1+$1,$8,$9,$2,$3,0*%
G04 Aperture macros list end*
%ADD10R,1.275000X1.800000*%
%ADD11O,1.275000X1.800000*%
%ADD12R,1.600000X1.600000*%
%ADD13O,1.600000X1.600000*%
%ADD14RoundRect,0.150000X0.875000X0.150000X-0.875000X0.150000X-0.875000X-0.150000X0.875000X-0.150000X0*%
%ADD15R,1.800000X1.800000*%
%ADD16O,1.800000X1.800000*%
%ADD17C,1.600000*%
%ADD18R,2.000000X2.000000*%
%ADD19C,2.000000*%
%ADD20C,1.800000*%
%ADD21R,1.700000X1.700000*%
%ADD22O,1.700000X1.700000*%
%ADD23C,2.600000*%
%ADD24R,2.400000X1.600000*%
%ADD25O,2.400000X1.600000*%
%ADD26C,1.500000*%
%ADD27C,1.620000*%
%ADD28C,1.700000*%
%ADD29C,3.500000*%
%ADD30C,2.010000*%
%ADD31R,2.600000X2.600000*%
%ADD32R,2.200000X2.200000*%
%ADD33O,2.200000X2.200000*%
%ADD34C,1.400000*%
%ADD35O,1.400000X1.400000*%
G04 APERTURE END LIST*
D10*
%TO.C,U1*%
X163850000Y-42300000D03*
D11*
X162150000Y-42300000D03*
X160450000Y-42300000D03*
X158750000Y-42300000D03*
X157050000Y-42300000D03*
%TD*%
D12*
%TO.C,U2*%
X195326000Y-37338000D03*
D13*
X195326000Y-39878000D03*
X195326000Y-42418000D03*
X195326000Y-44958000D03*
X195326000Y-47498000D03*
X195326000Y-50038000D03*
X195326000Y-52578000D03*
X195326000Y-55118000D03*
X195326000Y-57658000D03*
X195326000Y-60198000D03*
X195326000Y-62738000D03*
X195326000Y-65278000D03*
X195326000Y-67818000D03*
X195326000Y-70358000D03*
X202946000Y-70358000D03*
X202946000Y-67818000D03*
X202946000Y-65278000D03*
X202946000Y-62738000D03*
X202946000Y-60198000D03*
X202946000Y-57658000D03*
X202946000Y-55118000D03*
X202946000Y-52578000D03*
X202946000Y-50038000D03*
X202946000Y-47498000D03*
X202946000Y-44958000D03*
X202946000Y-42418000D03*
X202946000Y-39878000D03*
X202946000Y-37338000D03*
%TD*%
D14*
%TO.C,U4*%
X216524100Y-84188300D03*
X216524100Y-82918300D03*
X216524100Y-81648300D03*
X216524100Y-80378300D03*
X216524100Y-79108300D03*
X216524100Y-77838300D03*
X216524100Y-76568300D03*
X216524100Y-75298300D03*
X216524100Y-74028300D03*
X216524100Y-72758300D03*
X207224100Y-72758300D03*
X207224100Y-74028300D03*
X207224100Y-75298300D03*
X207224100Y-76568300D03*
X207224100Y-77838300D03*
X207224100Y-79108300D03*
X207224100Y-80378300D03*
X207224100Y-81648300D03*
X207224100Y-82918300D03*
X207224100Y-84188300D03*
%TD*%
D15*
%TO.C,U5*%
X164592000Y-90170000D03*
D16*
X159512000Y-88900000D03*
X164592000Y-87630000D03*
X159512000Y-86360000D03*
X164592000Y-85090000D03*
X159512000Y-83820000D03*
X164592000Y-82550000D03*
X159512000Y-81280000D03*
X164592000Y-80010000D03*
X159512000Y-78740000D03*
X164592000Y-77470000D03*
X159512000Y-76200000D03*
X164592000Y-74930000D03*
X159512000Y-73660000D03*
X164592000Y-72390000D03*
%TD*%
D12*
%TO.C,D11*%
X171196000Y-78740000D03*
D13*
X178816000Y-78740000D03*
%TD*%
D12*
%TO.C,C1*%
X179438300Y-26733500D03*
D17*
X179438300Y-21733500D03*
%TD*%
D18*
%TO.C,C3*%
X159512000Y-68326000D03*
D19*
X159512000Y-60826000D03*
%TD*%
%TO.C,C5*%
X183388000Y-66294000D03*
X183388000Y-61294000D03*
%TD*%
D17*
%TO.C,C7*%
X208675600Y-61836300D03*
X211175600Y-61836300D03*
%TD*%
%TO.C,C8*%
X216039700Y-61861700D03*
X213539700Y-61861700D03*
%TD*%
D18*
%TO.C,C10*%
X170688000Y-68326000D03*
D19*
X170688000Y-60826000D03*
%TD*%
D12*
%TO.C,C13*%
X197700900Y-30492700D03*
D17*
X197700900Y-32992700D03*
%TD*%
D15*
%TO.C,D8*%
X218948000Y-91452700D03*
D20*
X216408000Y-91452700D03*
%TD*%
D15*
%TO.C,D9*%
X213614000Y-91452700D03*
D20*
X211074000Y-91452700D03*
%TD*%
D21*
%TO.C,J3*%
X215460000Y-53086000D03*
D22*
X218000000Y-53086000D03*
X215460000Y-55626000D03*
X218000000Y-55626000D03*
X215460000Y-58166000D03*
X218000000Y-58166000D03*
%TD*%
D21*
%TO.C,J7*%
X188468000Y-70104000D03*
D22*
X191008000Y-70104000D03*
%TD*%
D23*
%TO.C,L1*%
X156750000Y-51650000D03*
X161750000Y-51650000D03*
%TD*%
%TO.C,L2*%
X180594000Y-33007300D03*
X185594000Y-33007300D03*
%TD*%
D17*
%TO.C,R2*%
X175768000Y-41910000D03*
D13*
X175768000Y-31750000D03*
%TD*%
D17*
%TO.C,R6*%
X191820800Y-40690800D03*
D13*
X191820800Y-50850800D03*
%TD*%
D17*
%TO.C,R7*%
X171196000Y-74930000D03*
D13*
X181356000Y-74930000D03*
%TD*%
D24*
%TO.C,U3*%
X187858400Y-50355500D03*
D25*
X187858400Y-47815500D03*
X187858400Y-45275500D03*
X187858400Y-42735500D03*
X180238400Y-42735500D03*
X180238400Y-45275500D03*
X180238400Y-47815500D03*
X180238400Y-50355500D03*
%TD*%
D26*
%TO.C,Y2*%
X209521400Y-67424300D03*
X214401400Y-67424300D03*
%TD*%
D27*
%TO.C,RV1*%
X207010000Y-39370000D03*
X209510000Y-36870000D03*
X212010000Y-39370000D03*
%TD*%
D21*
%TO.C,J4*%
X202476100Y-88353900D03*
D28*
X199976100Y-88353900D03*
X199976100Y-90353900D03*
X202476100Y-90353900D03*
D29*
X207246100Y-93063900D03*
X195206100Y-93063900D03*
%TD*%
D30*
%TO.C,F1*%
X158600000Y-31200000D03*
X163700000Y-32400000D03*
%TD*%
D31*
%TO.C,J1*%
X171043600Y-23101300D03*
D23*
X165963600Y-23101300D03*
%TD*%
D31*
%TO.C,J2*%
X206240000Y-23152100D03*
D23*
X201160000Y-23152100D03*
X196080000Y-23152100D03*
X191000000Y-23152100D03*
%TD*%
D32*
%TO.C,D1*%
X166800000Y-35950000D03*
D33*
X156640000Y-35950000D03*
%TD*%
D17*
%TO.C,R1*%
X172212000Y-31750000D03*
D13*
X172212000Y-41910000D03*
%TD*%
D26*
%TO.C,Y1*%
X190246000Y-59690000D03*
X190246000Y-64570000D03*
%TD*%
D32*
%TO.C,D2*%
X167894000Y-50038000D03*
D33*
X167894000Y-39878000D03*
%TD*%
D31*
%TO.C,J5*%
X165976300Y-98900000D03*
D23*
X171056300Y-98900000D03*
%TD*%
D32*
%TO.C,D4*%
X167589200Y-89598500D03*
D33*
X177749200Y-89598500D03*
%TD*%
D32*
%TO.C,D7*%
X180835300Y-93357700D03*
D33*
X190995300Y-93357700D03*
%TD*%
D32*
%TO.C,D5*%
X180898800Y-89623900D03*
D33*
X191058800Y-89623900D03*
%TD*%
D32*
%TO.C,D3*%
X167589200Y-86093300D03*
D33*
X177749200Y-86093300D03*
%TD*%
D12*
%TO.C,D10*%
X171196000Y-82042000D03*
D13*
X178816000Y-82042000D03*
%TD*%
D12*
%TO.C,C4*%
X175514000Y-48006000D03*
D17*
X173014000Y-48006000D03*
%TD*%
%TO.C,C6*%
X182626000Y-57404000D03*
X185126000Y-57404000D03*
%TD*%
D21*
%TO.C,J6*%
X215410000Y-30860000D03*
D22*
X217950000Y-30860000D03*
X215410000Y-33400000D03*
X217950000Y-33400000D03*
X215410000Y-35940000D03*
X217950000Y-35940000D03*
X215410000Y-38480000D03*
X217950000Y-38480000D03*
X215410000Y-41020000D03*
X217950000Y-41020000D03*
X215410000Y-43560000D03*
X217950000Y-43560000D03*
X215410000Y-46100000D03*
X217950000Y-46100000D03*
%TD*%
D17*
%TO.C,R3*%
X202184000Y-84074000D03*
D13*
X202184000Y-73914000D03*
%TD*%
D32*
%TO.C,D6*%
X180924200Y-86106000D03*
D33*
X191084200Y-86106000D03*
%TD*%
D34*
%TO.C,R4*%
X211150200Y-87388700D03*
D35*
X213690200Y-87388700D03*
%TD*%
D34*
%TO.C,R5*%
X216446100Y-87388700D03*
D35*
X218986100Y-87388700D03*
%TD*%
D17*
%TO.C,C2*%
X167894000Y-54864000D03*
X172894000Y-54864000D03*
%TD*%
%TO.C,C9*%
X197065900Y-82524600D03*
X197065900Y-77524600D03*
%TD*%
%TO.C,C11*%
X190246000Y-77533500D03*
X190246000Y-82533500D03*
%TD*%
%TO.C,C12*%
X190919100Y-30556200D03*
X190919100Y-35556200D03*
%TD*%
D21*
%TO.C,J8*%
X211300000Y-33400000D03*
D22*
X211300000Y-30860000D03*
%TD*%
M02*
