M48
; DRILL file {KiCad 7.0.9} date Sat Dec 16 09:33:44 2023
; FORMAT={3:3/ absolute / metric / suppress leading zeros}
; #@! TF.CreationDate,2023-12-16T09:33:44+01:00
; #@! TF.GenerationSoftware,Kicad,Pcbnew,7.0.9
; #@! TF.FileFunction,MixedPlating,1,2
FMAT,2
METRIC,TZ
; #@! TA.AperFunction,Plated,PTH,ViaDrill
T1C0.400
; #@! TA.AperFunction,Plated,PTH,ComponentDrill
T2C0.700
; #@! TA.AperFunction,Plated,PTH,ComponentDrill
T3C0.800
; #@! TA.AperFunction,Plated,PTH,ComponentDrill
T4C0.900
; #@! TA.AperFunction,Plated,PTH,ComponentDrill
T5C0.920
; #@! TA.AperFunction,Plated,PTH,ComponentDrill
T6C1.000
; #@! TA.AperFunction,Plated,PTH,ComponentDrill
T7C1.010
; #@! TA.AperFunction,Plated,PTH,ComponentDrill
T8C1.100
; #@! TA.AperFunction,Plated,PTH,ComponentDrill
T9C1.300
; #@! TA.AperFunction,Plated,PTH,ComponentDrill
T10C2.330
%
G90
G05
T1
X169164Y-27940
X170180Y-39878
X177800Y-52578
X180848Y-72644
X188468Y-72644
X206413Y-52578
X208900Y-90300
X209055Y-72720
X210986Y-73914
X213170Y-80302
X213716Y-57658
X214000Y-84200
X214732Y-75235
X214732Y-82918
T2
X211150Y-87389
X213690Y-87389
X216446Y-87389
X218986Y-87389
T3
X167894Y-54864
X171196Y-74930
X171196Y-78740
X171196Y-82042
X172212Y-31750
X172212Y-41910
X172894Y-54864
X173014Y-48006
X175514Y-48006
X175768Y-31750
X175768Y-41910
X178816Y-78740
X178816Y-82042
X179438Y-21734
X179438Y-26734
X180238Y-42735
X180238Y-45276
X180238Y-47815
X180238Y-50356
X181356Y-74930
X182626Y-57404
X185126Y-57404
X187858Y-42735
X187858Y-45276
X187858Y-47815
X187858Y-50356
X190246Y-59690
X190246Y-64570
X190246Y-77534
X190246Y-82533
X190919Y-30556
X190919Y-35556
X191821Y-40691
X191821Y-50851
X195326Y-37338
X195326Y-39878
X195326Y-42418
X195326Y-44958
X195326Y-47498
X195326Y-50038
X195326Y-52578
X195326Y-55118
X195326Y-57658
X195326Y-60198
X195326Y-62738
X195326Y-65278
X195326Y-67818
X195326Y-70358
X197066Y-77525
X197066Y-82525
X197701Y-30493
X197701Y-32993
X202184Y-73914
X202184Y-84074
X202946Y-37338
X202946Y-39878
X202946Y-42418
X202946Y-44958
X202946Y-47498
X202946Y-50038
X202946Y-52578
X202946Y-55118
X202946Y-57658
X202946Y-60198
X202946Y-62738
X202946Y-65278
X202946Y-67818
X202946Y-70358
X208676Y-61836
X209521Y-67424
X211176Y-61836
X213540Y-61862
X214401Y-67424
X216040Y-61862
T4
X207010Y-39370
X209510Y-36870
X211074Y-91453
X212010Y-39370
X213614Y-91453
X216408Y-91453
X218948Y-91453
T5
X199976Y-88354
X199976Y-90354
X202476Y-88354
X202476Y-90354
T6
X159512Y-60826
X159512Y-68326
X159512Y-73660
X159512Y-76200
X159512Y-78740
X159512Y-81280
X159512Y-83820
X159512Y-86360
X159512Y-88900
X164592Y-72390
X164592Y-74930
X164592Y-77470
X164592Y-80010
X164592Y-82550
X164592Y-85090
X164592Y-87630
X164592Y-90170
X170688Y-60826
X170688Y-68326
X183388Y-61294
X183388Y-66294
X188468Y-70104
X191008Y-70104
X211300Y-30860
X211300Y-33400
X215410Y-30860
X215410Y-33400
X215410Y-35940
X215410Y-38480
X215410Y-41020
X215410Y-43560
X215410Y-46100
X215460Y-53086
X215460Y-55626
X215460Y-58166
X217950Y-30860
X217950Y-33400
X217950Y-35940
X217950Y-38480
X217950Y-41020
X217950Y-43560
X217950Y-46100
X218000Y-53086
X218000Y-55626
X218000Y-58166
T7
X158600Y-31200
X163700Y-32400
T8
X156640Y-35950
X157050Y-42300
X158750Y-42300
X160450Y-42300
X162150Y-42300
X163850Y-42300
X166800Y-35950
X167589Y-86093
X167589Y-89599
X167894Y-39878
X167894Y-50038
X177749Y-86093
X177749Y-89599
X180835Y-93358
X180899Y-89624
X180924Y-86106
X190995Y-93358
X191059Y-89624
X191084Y-86106
T9
X156750Y-51650
X161750Y-51650
X165964Y-23101
X165976Y-98900
X171044Y-23101
X171056Y-98900
X180594Y-33007
X185594Y-33007
X191000Y-23152
X196080Y-23152
X201160Y-23152
X206240Y-23152
T10
X195206Y-93064
X207246Y-93064
T0
M30
