%TF.GenerationSoftware,KiCad,Pcbnew,7.0.9*%
%TF.CreationDate,2023-12-16T09:33:54+01:00*%
%TF.ProjectId,Mutteruhr,4d757474-6572-4756-9872-2e6b69636164,rev?*%
%TF.SameCoordinates,Original*%
%TF.FileFunction,Legend,Top*%
%TF.FilePolarity,Positive*%
%FSLAX46Y46*%
G04 Gerber Fmt 4.6, Leading zero omitted, Abs format (unit mm)*
G04 Created by KiCad (PCBNEW 7.0.9) date 2023-12-16 09:33:54*
%MOMM*%
%LPD*%
G01*
G04 APERTURE LIST*
%ADD10C,0.120000*%
%ADD11C,0.150000*%
G04 APERTURE END LIST*
D10*
X219500000Y-99500000D02*
G75*
G03*
X219500000Y-99500000I-3500000J0D01*
G01*
X219500000Y-22500000D02*
G75*
G03*
X219500000Y-22500000I-3500000J0D01*
G01*
X161500000Y-99500000D02*
G75*
G03*
X161500000Y-99500000I-3500000J0D01*
G01*
X161500000Y-22500000D02*
G75*
G03*
X161500000Y-22500000I-3500000J0D01*
G01*
D11*
X218949942Y-49964286D02*
X218997561Y-50011905D01*
X218997561Y-50011905D02*
X219045180Y-50107143D01*
X219045180Y-50107143D02*
X219045180Y-50345238D01*
X219045180Y-50345238D02*
X218997561Y-50440476D01*
X218997561Y-50440476D02*
X218949942Y-50488095D01*
X218949942Y-50488095D02*
X218854704Y-50535714D01*
X218854704Y-50535714D02*
X218759466Y-50535714D01*
X218759466Y-50535714D02*
X218616609Y-50488095D01*
X218616609Y-50488095D02*
X218045180Y-49916667D01*
X218045180Y-49916667D02*
X218045180Y-50535714D01*
X219204819Y-53440476D02*
X219204819Y-53916666D01*
X219204819Y-53916666D02*
X219681009Y-53964285D01*
X219681009Y-53964285D02*
X219633390Y-53916666D01*
X219633390Y-53916666D02*
X219585771Y-53821428D01*
X219585771Y-53821428D02*
X219585771Y-53583333D01*
X219585771Y-53583333D02*
X219633390Y-53488095D01*
X219633390Y-53488095D02*
X219681009Y-53440476D01*
X219681009Y-53440476D02*
X219776247Y-53392857D01*
X219776247Y-53392857D02*
X220014342Y-53392857D01*
X220014342Y-53392857D02*
X220109580Y-53440476D01*
X220109580Y-53440476D02*
X220157200Y-53488095D01*
X220157200Y-53488095D02*
X220204819Y-53583333D01*
X220204819Y-53583333D02*
X220204819Y-53821428D01*
X220204819Y-53821428D02*
X220157200Y-53916666D01*
X220157200Y-53916666D02*
X220109580Y-53964285D01*
X219204819Y-53107142D02*
X220204819Y-52773809D01*
X220204819Y-52773809D02*
X219204819Y-52440476D01*
X193954819Y-70642857D02*
X193954819Y-71214285D01*
X193954819Y-70928571D02*
X192954819Y-70928571D01*
X192954819Y-70928571D02*
X193097676Y-71023809D01*
X193097676Y-71023809D02*
X193192914Y-71119047D01*
X193192914Y-71119047D02*
X193240533Y-71214285D01*
X193954819Y-70214285D02*
X192954819Y-70214285D01*
X193431009Y-70214285D02*
X193431009Y-69642857D01*
X193954819Y-69642857D02*
X192954819Y-69642857D01*
X193288152Y-69261904D02*
X193288152Y-68738095D01*
X193288152Y-68738095D02*
X193954819Y-69261904D01*
X193954819Y-69261904D02*
X193954819Y-68738095D01*
X211407200Y-57214285D02*
X211454819Y-57071428D01*
X211454819Y-57071428D02*
X211454819Y-56833333D01*
X211454819Y-56833333D02*
X211407200Y-56738095D01*
X211407200Y-56738095D02*
X211359580Y-56690476D01*
X211359580Y-56690476D02*
X211264342Y-56642857D01*
X211264342Y-56642857D02*
X211169104Y-56642857D01*
X211169104Y-56642857D02*
X211073866Y-56690476D01*
X211073866Y-56690476D02*
X211026247Y-56738095D01*
X211026247Y-56738095D02*
X210978628Y-56833333D01*
X210978628Y-56833333D02*
X210931009Y-57023809D01*
X210931009Y-57023809D02*
X210883390Y-57119047D01*
X210883390Y-57119047D02*
X210835771Y-57166666D01*
X210835771Y-57166666D02*
X210740533Y-57214285D01*
X210740533Y-57214285D02*
X210645295Y-57214285D01*
X210645295Y-57214285D02*
X210550057Y-57166666D01*
X210550057Y-57166666D02*
X210502438Y-57119047D01*
X210502438Y-57119047D02*
X210454819Y-57023809D01*
X210454819Y-57023809D02*
X210454819Y-56785714D01*
X210454819Y-56785714D02*
X210502438Y-56642857D01*
X211407200Y-55833333D02*
X211454819Y-55928571D01*
X211454819Y-55928571D02*
X211454819Y-56119047D01*
X211454819Y-56119047D02*
X211407200Y-56214285D01*
X211407200Y-56214285D02*
X211311961Y-56261904D01*
X211311961Y-56261904D02*
X210931009Y-56261904D01*
X210931009Y-56261904D02*
X210835771Y-56214285D01*
X210835771Y-56214285D02*
X210788152Y-56119047D01*
X210788152Y-56119047D02*
X210788152Y-55928571D01*
X210788152Y-55928571D02*
X210835771Y-55833333D01*
X210835771Y-55833333D02*
X210931009Y-55785714D01*
X210931009Y-55785714D02*
X211026247Y-55785714D01*
X211026247Y-55785714D02*
X211121485Y-56261904D01*
X211454819Y-55357142D02*
X210788152Y-55357142D01*
X210978628Y-55357142D02*
X210883390Y-55309523D01*
X210883390Y-55309523D02*
X210835771Y-55261904D01*
X210835771Y-55261904D02*
X210788152Y-55166666D01*
X210788152Y-55166666D02*
X210788152Y-55071428D01*
X211454819Y-54738094D02*
X210788152Y-54738094D01*
X210454819Y-54738094D02*
X210502438Y-54785713D01*
X210502438Y-54785713D02*
X210550057Y-54738094D01*
X210550057Y-54738094D02*
X210502438Y-54690475D01*
X210502438Y-54690475D02*
X210454819Y-54738094D01*
X210454819Y-54738094D02*
X210550057Y-54738094D01*
X211407200Y-53880952D02*
X211454819Y-53976190D01*
X211454819Y-53976190D02*
X211454819Y-54166666D01*
X211454819Y-54166666D02*
X211407200Y-54261904D01*
X211407200Y-54261904D02*
X211311961Y-54309523D01*
X211311961Y-54309523D02*
X210931009Y-54309523D01*
X210931009Y-54309523D02*
X210835771Y-54261904D01*
X210835771Y-54261904D02*
X210788152Y-54166666D01*
X210788152Y-54166666D02*
X210788152Y-53976190D01*
X210788152Y-53976190D02*
X210835771Y-53880952D01*
X210835771Y-53880952D02*
X210931009Y-53833333D01*
X210931009Y-53833333D02*
X211026247Y-53833333D01*
X211026247Y-53833333D02*
X211121485Y-54309523D01*
X211454819Y-53261904D02*
X211407200Y-53357142D01*
X211407200Y-53357142D02*
X211311961Y-53404761D01*
X211311961Y-53404761D02*
X210454819Y-53404761D01*
X211454819Y-52738094D02*
X211407200Y-52833332D01*
X211407200Y-52833332D02*
X211311961Y-52880951D01*
X211311961Y-52880951D02*
X210454819Y-52880951D01*
X212704819Y-56940475D02*
X212704819Y-56369047D01*
X213704819Y-56654761D02*
X212704819Y-56654761D01*
X213704819Y-56130951D02*
X213038152Y-55607142D01*
X213038152Y-56130951D02*
X213704819Y-55607142D01*
X213704819Y-55226189D02*
X212704819Y-55226189D01*
X212704819Y-55226189D02*
X212704819Y-54988094D01*
X212704819Y-54988094D02*
X212752438Y-54845237D01*
X212752438Y-54845237D02*
X212847676Y-54749999D01*
X212847676Y-54749999D02*
X212942914Y-54702380D01*
X212942914Y-54702380D02*
X213133390Y-54654761D01*
X213133390Y-54654761D02*
X213276247Y-54654761D01*
X213276247Y-54654761D02*
X213466723Y-54702380D01*
X213466723Y-54702380D02*
X213561961Y-54749999D01*
X213561961Y-54749999D02*
X213657200Y-54845237D01*
X213657200Y-54845237D02*
X213704819Y-54988094D01*
X213704819Y-54988094D02*
X213704819Y-55226189D01*
X211149819Y-47416666D02*
X210149819Y-47416666D01*
X210626009Y-47416666D02*
X210626009Y-46845238D01*
X211149819Y-46845238D02*
X210149819Y-46845238D01*
X211149819Y-46369047D02*
X210149819Y-46369047D01*
X210149819Y-46369047D02*
X210149819Y-46130952D01*
X210149819Y-46130952D02*
X210197438Y-45988095D01*
X210197438Y-45988095D02*
X210292676Y-45892857D01*
X210292676Y-45892857D02*
X210387914Y-45845238D01*
X210387914Y-45845238D02*
X210578390Y-45797619D01*
X210578390Y-45797619D02*
X210721247Y-45797619D01*
X210721247Y-45797619D02*
X210911723Y-45845238D01*
X210911723Y-45845238D02*
X211006961Y-45892857D01*
X211006961Y-45892857D02*
X211102200Y-45988095D01*
X211102200Y-45988095D02*
X211149819Y-46130952D01*
X211149819Y-46130952D02*
X211149819Y-46369047D01*
X210483152Y-44940476D02*
X211149819Y-44940476D01*
X210102200Y-45178571D02*
X210816485Y-45416666D01*
X210816485Y-45416666D02*
X210816485Y-44797619D01*
X210483152Y-43988095D02*
X211149819Y-43988095D01*
X210102200Y-44226190D02*
X210816485Y-44464285D01*
X210816485Y-44464285D02*
X210816485Y-43845238D01*
X210149819Y-43559523D02*
X210149819Y-42892857D01*
X210149819Y-42892857D02*
X211149819Y-43321428D01*
X210578390Y-42369047D02*
X210530771Y-42464285D01*
X210530771Y-42464285D02*
X210483152Y-42511904D01*
X210483152Y-42511904D02*
X210387914Y-42559523D01*
X210387914Y-42559523D02*
X210340295Y-42559523D01*
X210340295Y-42559523D02*
X210245057Y-42511904D01*
X210245057Y-42511904D02*
X210197438Y-42464285D01*
X210197438Y-42464285D02*
X210149819Y-42369047D01*
X210149819Y-42369047D02*
X210149819Y-42178571D01*
X210149819Y-42178571D02*
X210197438Y-42083333D01*
X210197438Y-42083333D02*
X210245057Y-42035714D01*
X210245057Y-42035714D02*
X210340295Y-41988095D01*
X210340295Y-41988095D02*
X210387914Y-41988095D01*
X210387914Y-41988095D02*
X210483152Y-42035714D01*
X210483152Y-42035714D02*
X210530771Y-42083333D01*
X210530771Y-42083333D02*
X210578390Y-42178571D01*
X210578390Y-42178571D02*
X210578390Y-42369047D01*
X210578390Y-42369047D02*
X210626009Y-42464285D01*
X210626009Y-42464285D02*
X210673628Y-42511904D01*
X210673628Y-42511904D02*
X210768866Y-42559523D01*
X210768866Y-42559523D02*
X210959342Y-42559523D01*
X210959342Y-42559523D02*
X211054580Y-42511904D01*
X211054580Y-42511904D02*
X211102200Y-42464285D01*
X211102200Y-42464285D02*
X211149819Y-42369047D01*
X211149819Y-42369047D02*
X211149819Y-42178571D01*
X211149819Y-42178571D02*
X211102200Y-42083333D01*
X211102200Y-42083333D02*
X211054580Y-42035714D01*
X211054580Y-42035714D02*
X210959342Y-41988095D01*
X210959342Y-41988095D02*
X210768866Y-41988095D01*
X210768866Y-41988095D02*
X210673628Y-42035714D01*
X210673628Y-42035714D02*
X210626009Y-42083333D01*
X210626009Y-42083333D02*
X210578390Y-42178571D01*
X210149819Y-41369047D02*
X210149819Y-41273809D01*
X210149819Y-41273809D02*
X210197438Y-41178571D01*
X210197438Y-41178571D02*
X210245057Y-41130952D01*
X210245057Y-41130952D02*
X210340295Y-41083333D01*
X210340295Y-41083333D02*
X210530771Y-41035714D01*
X210530771Y-41035714D02*
X210768866Y-41035714D01*
X210768866Y-41035714D02*
X210959342Y-41083333D01*
X210959342Y-41083333D02*
X211054580Y-41130952D01*
X211054580Y-41130952D02*
X211102200Y-41178571D01*
X211102200Y-41178571D02*
X211149819Y-41273809D01*
X211149819Y-41273809D02*
X211149819Y-41369047D01*
X211149819Y-41369047D02*
X211102200Y-41464285D01*
X211102200Y-41464285D02*
X211054580Y-41511904D01*
X211054580Y-41511904D02*
X210959342Y-41559523D01*
X210959342Y-41559523D02*
X210768866Y-41607142D01*
X210768866Y-41607142D02*
X210530771Y-41607142D01*
X210530771Y-41607142D02*
X210340295Y-41559523D01*
X210340295Y-41559523D02*
X210245057Y-41511904D01*
X210245057Y-41511904D02*
X210197438Y-41464285D01*
X210197438Y-41464285D02*
X210149819Y-41369047D01*
X212759819Y-46702380D02*
X211759819Y-46702380D01*
X211759819Y-46702380D02*
X211759819Y-46464285D01*
X211759819Y-46464285D02*
X211807438Y-46321428D01*
X211807438Y-46321428D02*
X211902676Y-46226190D01*
X211902676Y-46226190D02*
X211997914Y-46178571D01*
X211997914Y-46178571D02*
X212188390Y-46130952D01*
X212188390Y-46130952D02*
X212331247Y-46130952D01*
X212331247Y-46130952D02*
X212521723Y-46178571D01*
X212521723Y-46178571D02*
X212616961Y-46226190D01*
X212616961Y-46226190D02*
X212712200Y-46321428D01*
X212712200Y-46321428D02*
X212759819Y-46464285D01*
X212759819Y-46464285D02*
X212759819Y-46702380D01*
X212759819Y-45702380D02*
X212093152Y-45702380D01*
X211759819Y-45702380D02*
X211807438Y-45749999D01*
X211807438Y-45749999D02*
X211855057Y-45702380D01*
X211855057Y-45702380D02*
X211807438Y-45654761D01*
X211807438Y-45654761D02*
X211759819Y-45702380D01*
X211759819Y-45702380D02*
X211855057Y-45702380D01*
X212712200Y-45273809D02*
X212759819Y-45178571D01*
X212759819Y-45178571D02*
X212759819Y-44988095D01*
X212759819Y-44988095D02*
X212712200Y-44892857D01*
X212712200Y-44892857D02*
X212616961Y-44845238D01*
X212616961Y-44845238D02*
X212569342Y-44845238D01*
X212569342Y-44845238D02*
X212474104Y-44892857D01*
X212474104Y-44892857D02*
X212426485Y-44988095D01*
X212426485Y-44988095D02*
X212426485Y-45130952D01*
X212426485Y-45130952D02*
X212378866Y-45226190D01*
X212378866Y-45226190D02*
X212283628Y-45273809D01*
X212283628Y-45273809D02*
X212236009Y-45273809D01*
X212236009Y-45273809D02*
X212140771Y-45226190D01*
X212140771Y-45226190D02*
X212093152Y-45130952D01*
X212093152Y-45130952D02*
X212093152Y-44988095D01*
X212093152Y-44988095D02*
X212140771Y-44892857D01*
X212093152Y-44416666D02*
X213093152Y-44416666D01*
X212140771Y-44416666D02*
X212093152Y-44321428D01*
X212093152Y-44321428D02*
X212093152Y-44130952D01*
X212093152Y-44130952D02*
X212140771Y-44035714D01*
X212140771Y-44035714D02*
X212188390Y-43988095D01*
X212188390Y-43988095D02*
X212283628Y-43940476D01*
X212283628Y-43940476D02*
X212569342Y-43940476D01*
X212569342Y-43940476D02*
X212664580Y-43988095D01*
X212664580Y-43988095D02*
X212712200Y-44035714D01*
X212712200Y-44035714D02*
X212759819Y-44130952D01*
X212759819Y-44130952D02*
X212759819Y-44321428D01*
X212759819Y-44321428D02*
X212712200Y-44416666D01*
X212759819Y-43369047D02*
X212712200Y-43464285D01*
X212712200Y-43464285D02*
X212616961Y-43511904D01*
X212616961Y-43511904D02*
X211759819Y-43511904D01*
X212759819Y-42559523D02*
X212236009Y-42559523D01*
X212236009Y-42559523D02*
X212140771Y-42607142D01*
X212140771Y-42607142D02*
X212093152Y-42702380D01*
X212093152Y-42702380D02*
X212093152Y-42892856D01*
X212093152Y-42892856D02*
X212140771Y-42988094D01*
X212712200Y-42559523D02*
X212759819Y-42654761D01*
X212759819Y-42654761D02*
X212759819Y-42892856D01*
X212759819Y-42892856D02*
X212712200Y-42988094D01*
X212712200Y-42988094D02*
X212616961Y-43035713D01*
X212616961Y-43035713D02*
X212521723Y-43035713D01*
X212521723Y-43035713D02*
X212426485Y-42988094D01*
X212426485Y-42988094D02*
X212378866Y-42892856D01*
X212378866Y-42892856D02*
X212378866Y-42654761D01*
X212378866Y-42654761D02*
X212331247Y-42559523D01*
X212093152Y-42178570D02*
X212759819Y-41940475D01*
X212093152Y-41702380D02*
X212759819Y-41940475D01*
X212759819Y-41940475D02*
X212997914Y-42035713D01*
X212997914Y-42035713D02*
X213045533Y-42083332D01*
X213045533Y-42083332D02*
X213093152Y-42178570D01*
X208149819Y-34952380D02*
X207149819Y-34952380D01*
X207149819Y-34952380D02*
X207149819Y-34714285D01*
X207149819Y-34714285D02*
X207197438Y-34571428D01*
X207197438Y-34571428D02*
X207292676Y-34476190D01*
X207292676Y-34476190D02*
X207387914Y-34428571D01*
X207387914Y-34428571D02*
X207578390Y-34380952D01*
X207578390Y-34380952D02*
X207721247Y-34380952D01*
X207721247Y-34380952D02*
X207911723Y-34428571D01*
X207911723Y-34428571D02*
X208006961Y-34476190D01*
X208006961Y-34476190D02*
X208102200Y-34571428D01*
X208102200Y-34571428D02*
X208149819Y-34714285D01*
X208149819Y-34714285D02*
X208149819Y-34952380D01*
X208149819Y-33952380D02*
X207483152Y-33952380D01*
X207149819Y-33952380D02*
X207197438Y-33999999D01*
X207197438Y-33999999D02*
X207245057Y-33952380D01*
X207245057Y-33952380D02*
X207197438Y-33904761D01*
X207197438Y-33904761D02*
X207149819Y-33952380D01*
X207149819Y-33952380D02*
X207245057Y-33952380D01*
X208102200Y-33523809D02*
X208149819Y-33428571D01*
X208149819Y-33428571D02*
X208149819Y-33238095D01*
X208149819Y-33238095D02*
X208102200Y-33142857D01*
X208102200Y-33142857D02*
X208006961Y-33095238D01*
X208006961Y-33095238D02*
X207959342Y-33095238D01*
X207959342Y-33095238D02*
X207864104Y-33142857D01*
X207864104Y-33142857D02*
X207816485Y-33238095D01*
X207816485Y-33238095D02*
X207816485Y-33380952D01*
X207816485Y-33380952D02*
X207768866Y-33476190D01*
X207768866Y-33476190D02*
X207673628Y-33523809D01*
X207673628Y-33523809D02*
X207626009Y-33523809D01*
X207626009Y-33523809D02*
X207530771Y-33476190D01*
X207530771Y-33476190D02*
X207483152Y-33380952D01*
X207483152Y-33380952D02*
X207483152Y-33238095D01*
X207483152Y-33238095D02*
X207530771Y-33142857D01*
X207483152Y-32666666D02*
X208483152Y-32666666D01*
X207530771Y-32666666D02*
X207483152Y-32571428D01*
X207483152Y-32571428D02*
X207483152Y-32380952D01*
X207483152Y-32380952D02*
X207530771Y-32285714D01*
X207530771Y-32285714D02*
X207578390Y-32238095D01*
X207578390Y-32238095D02*
X207673628Y-32190476D01*
X207673628Y-32190476D02*
X207959342Y-32190476D01*
X207959342Y-32190476D02*
X208054580Y-32238095D01*
X208054580Y-32238095D02*
X208102200Y-32285714D01*
X208102200Y-32285714D02*
X208149819Y-32380952D01*
X208149819Y-32380952D02*
X208149819Y-32571428D01*
X208149819Y-32571428D02*
X208102200Y-32666666D01*
X208149819Y-31619047D02*
X208102200Y-31714285D01*
X208102200Y-31714285D02*
X208006961Y-31761904D01*
X208006961Y-31761904D02*
X207149819Y-31761904D01*
X208149819Y-30809523D02*
X207626009Y-30809523D01*
X207626009Y-30809523D02*
X207530771Y-30857142D01*
X207530771Y-30857142D02*
X207483152Y-30952380D01*
X207483152Y-30952380D02*
X207483152Y-31142856D01*
X207483152Y-31142856D02*
X207530771Y-31238094D01*
X208102200Y-30809523D02*
X208149819Y-30904761D01*
X208149819Y-30904761D02*
X208149819Y-31142856D01*
X208149819Y-31142856D02*
X208102200Y-31238094D01*
X208102200Y-31238094D02*
X208006961Y-31285713D01*
X208006961Y-31285713D02*
X207911723Y-31285713D01*
X207911723Y-31285713D02*
X207816485Y-31238094D01*
X207816485Y-31238094D02*
X207768866Y-31142856D01*
X207768866Y-31142856D02*
X207768866Y-30904761D01*
X207768866Y-30904761D02*
X207721247Y-30809523D01*
X207483152Y-30428570D02*
X208149819Y-30190475D01*
X207483152Y-29952380D02*
X208149819Y-30190475D01*
X208149819Y-30190475D02*
X208387914Y-30285713D01*
X208387914Y-30285713D02*
X208435533Y-30333332D01*
X208435533Y-30333332D02*
X208483152Y-30428570D01*
X209759819Y-33142857D02*
X209759819Y-33619047D01*
X209759819Y-33619047D02*
X208759819Y-33619047D01*
X209236009Y-32809523D02*
X209236009Y-32476190D01*
X209759819Y-32333333D02*
X209759819Y-32809523D01*
X209759819Y-32809523D02*
X208759819Y-32809523D01*
X208759819Y-32809523D02*
X208759819Y-32333333D01*
X209759819Y-31904761D02*
X208759819Y-31904761D01*
X208759819Y-31904761D02*
X208759819Y-31666666D01*
X208759819Y-31666666D02*
X208807438Y-31523809D01*
X208807438Y-31523809D02*
X208902676Y-31428571D01*
X208902676Y-31428571D02*
X208997914Y-31380952D01*
X208997914Y-31380952D02*
X209188390Y-31333333D01*
X209188390Y-31333333D02*
X209331247Y-31333333D01*
X209331247Y-31333333D02*
X209521723Y-31380952D01*
X209521723Y-31380952D02*
X209616961Y-31428571D01*
X209616961Y-31428571D02*
X209712200Y-31523809D01*
X209712200Y-31523809D02*
X209759819Y-31666666D01*
X209759819Y-31666666D02*
X209759819Y-31904761D01*
X214295180Y-50535714D02*
X214295180Y-49964286D01*
X214295180Y-50250000D02*
X215295180Y-50250000D01*
X215295180Y-50250000D02*
X215152323Y-50154762D01*
X215152323Y-50154762D02*
X215057085Y-50059524D01*
X215057085Y-50059524D02*
X215009466Y-49964286D01*
X220204819Y-56345238D02*
X219728628Y-56678571D01*
X220204819Y-56916666D02*
X219204819Y-56916666D01*
X219204819Y-56916666D02*
X219204819Y-56535714D01*
X219204819Y-56535714D02*
X219252438Y-56440476D01*
X219252438Y-56440476D02*
X219300057Y-56392857D01*
X219300057Y-56392857D02*
X219395295Y-56345238D01*
X219395295Y-56345238D02*
X219538152Y-56345238D01*
X219538152Y-56345238D02*
X219633390Y-56392857D01*
X219633390Y-56392857D02*
X219681009Y-56440476D01*
X219681009Y-56440476D02*
X219728628Y-56535714D01*
X219728628Y-56535714D02*
X219728628Y-56916666D01*
X220204819Y-56011904D02*
X219538152Y-55488095D01*
X219538152Y-56011904D02*
X220204819Y-55488095D01*
X220204819Y-55107142D02*
X219204819Y-55107142D01*
X219204819Y-55107142D02*
X219204819Y-54869047D01*
X219204819Y-54869047D02*
X219252438Y-54726190D01*
X219252438Y-54726190D02*
X219347676Y-54630952D01*
X219347676Y-54630952D02*
X219442914Y-54583333D01*
X219442914Y-54583333D02*
X219633390Y-54535714D01*
X219633390Y-54535714D02*
X219776247Y-54535714D01*
X219776247Y-54535714D02*
X219966723Y-54583333D01*
X219966723Y-54583333D02*
X220061961Y-54630952D01*
X220061961Y-54630952D02*
X220157200Y-54726190D01*
X220157200Y-54726190D02*
X220204819Y-54869047D01*
X220204819Y-54869047D02*
X220204819Y-55107142D01*
X171642856Y-29426133D02*
X170880952Y-29426133D01*
X171261904Y-29045180D02*
X171261904Y-29807085D01*
X169690475Y-29949942D02*
X169642856Y-29997561D01*
X169642856Y-29997561D02*
X169547618Y-30045180D01*
X169547618Y-30045180D02*
X169309523Y-30045180D01*
X169309523Y-30045180D02*
X169214285Y-29997561D01*
X169214285Y-29997561D02*
X169166666Y-29949942D01*
X169166666Y-29949942D02*
X169119047Y-29854704D01*
X169119047Y-29854704D02*
X169119047Y-29759466D01*
X169119047Y-29759466D02*
X169166666Y-29616609D01*
X169166666Y-29616609D02*
X169738094Y-29045180D01*
X169738094Y-29045180D02*
X169119047Y-29045180D01*
X168261904Y-29711847D02*
X168261904Y-29045180D01*
X168499999Y-30092800D02*
X168738094Y-29378514D01*
X168738094Y-29378514D02*
X168119047Y-29378514D01*
X167880951Y-30045180D02*
X167547618Y-29045180D01*
X167547618Y-29045180D02*
X167214285Y-30045180D01*
X166119046Y-29426133D02*
X165357142Y-29426133D01*
X214045180Y-28785714D02*
X214045180Y-28214286D01*
X214045180Y-28500000D02*
X215045180Y-28500000D01*
X215045180Y-28500000D02*
X214902323Y-28404762D01*
X214902323Y-28404762D02*
X214807085Y-28309524D01*
X214807085Y-28309524D02*
X214759466Y-28214286D01*
X218949942Y-28214286D02*
X218997561Y-28261905D01*
X218997561Y-28261905D02*
X219045180Y-28357143D01*
X219045180Y-28357143D02*
X219045180Y-28595238D01*
X219045180Y-28595238D02*
X218997561Y-28690476D01*
X218997561Y-28690476D02*
X218949942Y-28738095D01*
X218949942Y-28738095D02*
X218854704Y-28785714D01*
X218854704Y-28785714D02*
X218759466Y-28785714D01*
X218759466Y-28785714D02*
X218616609Y-28738095D01*
X218616609Y-28738095D02*
X218045180Y-28166667D01*
X218045180Y-28166667D02*
X218045180Y-28785714D01*
X208714286Y-28545180D02*
X208714286Y-29545180D01*
X208714286Y-29545180D02*
X208476191Y-29545180D01*
X208476191Y-29545180D02*
X208333334Y-29497561D01*
X208333334Y-29497561D02*
X208238096Y-29402323D01*
X208238096Y-29402323D02*
X208190477Y-29307085D01*
X208190477Y-29307085D02*
X208142858Y-29116609D01*
X208142858Y-29116609D02*
X208142858Y-28973752D01*
X208142858Y-28973752D02*
X208190477Y-28783276D01*
X208190477Y-28783276D02*
X208238096Y-28688038D01*
X208238096Y-28688038D02*
X208333334Y-28592800D01*
X208333334Y-28592800D02*
X208476191Y-28545180D01*
X208476191Y-28545180D02*
X208714286Y-28545180D01*
X207285715Y-28545180D02*
X207285715Y-29068990D01*
X207285715Y-29068990D02*
X207333334Y-29164228D01*
X207333334Y-29164228D02*
X207428572Y-29211847D01*
X207428572Y-29211847D02*
X207619048Y-29211847D01*
X207619048Y-29211847D02*
X207714286Y-29164228D01*
X207285715Y-28592800D02*
X207380953Y-28545180D01*
X207380953Y-28545180D02*
X207619048Y-28545180D01*
X207619048Y-28545180D02*
X207714286Y-28592800D01*
X207714286Y-28592800D02*
X207761905Y-28688038D01*
X207761905Y-28688038D02*
X207761905Y-28783276D01*
X207761905Y-28783276D02*
X207714286Y-28878514D01*
X207714286Y-28878514D02*
X207619048Y-28926133D01*
X207619048Y-28926133D02*
X207380953Y-28926133D01*
X207380953Y-28926133D02*
X207285715Y-28973752D01*
X206952381Y-29211847D02*
X206571429Y-29211847D01*
X206809524Y-29545180D02*
X206809524Y-28688038D01*
X206809524Y-28688038D02*
X206761905Y-28592800D01*
X206761905Y-28592800D02*
X206666667Y-28545180D01*
X206666667Y-28545180D02*
X206571429Y-28545180D01*
X205809524Y-28545180D02*
X205809524Y-29068990D01*
X205809524Y-29068990D02*
X205857143Y-29164228D01*
X205857143Y-29164228D02*
X205952381Y-29211847D01*
X205952381Y-29211847D02*
X206142857Y-29211847D01*
X206142857Y-29211847D02*
X206238095Y-29164228D01*
X205809524Y-28592800D02*
X205904762Y-28545180D01*
X205904762Y-28545180D02*
X206142857Y-28545180D01*
X206142857Y-28545180D02*
X206238095Y-28592800D01*
X206238095Y-28592800D02*
X206285714Y-28688038D01*
X206285714Y-28688038D02*
X206285714Y-28783276D01*
X206285714Y-28783276D02*
X206238095Y-28878514D01*
X206238095Y-28878514D02*
X206142857Y-28926133D01*
X206142857Y-28926133D02*
X205904762Y-28926133D01*
X205904762Y-28926133D02*
X205809524Y-28973752D01*
X204571428Y-28926133D02*
X203809524Y-28926133D01*
X202571428Y-28545180D02*
X202571428Y-29545180D01*
X202571428Y-29545180D02*
X202333333Y-29545180D01*
X202333333Y-29545180D02*
X202190476Y-29497561D01*
X202190476Y-29497561D02*
X202095238Y-29402323D01*
X202095238Y-29402323D02*
X202047619Y-29307085D01*
X202047619Y-29307085D02*
X202000000Y-29116609D01*
X202000000Y-29116609D02*
X202000000Y-28973752D01*
X202000000Y-28973752D02*
X202047619Y-28783276D01*
X202047619Y-28783276D02*
X202095238Y-28688038D01*
X202095238Y-28688038D02*
X202190476Y-28592800D01*
X202190476Y-28592800D02*
X202333333Y-28545180D01*
X202333333Y-28545180D02*
X202571428Y-28545180D01*
X201142857Y-28545180D02*
X201142857Y-29068990D01*
X201142857Y-29068990D02*
X201190476Y-29164228D01*
X201190476Y-29164228D02*
X201285714Y-29211847D01*
X201285714Y-29211847D02*
X201476190Y-29211847D01*
X201476190Y-29211847D02*
X201571428Y-29164228D01*
X201142857Y-28592800D02*
X201238095Y-28545180D01*
X201238095Y-28545180D02*
X201476190Y-28545180D01*
X201476190Y-28545180D02*
X201571428Y-28592800D01*
X201571428Y-28592800D02*
X201619047Y-28688038D01*
X201619047Y-28688038D02*
X201619047Y-28783276D01*
X201619047Y-28783276D02*
X201571428Y-28878514D01*
X201571428Y-28878514D02*
X201476190Y-28926133D01*
X201476190Y-28926133D02*
X201238095Y-28926133D01*
X201238095Y-28926133D02*
X201142857Y-28973752D01*
X200809523Y-29211847D02*
X200428571Y-29211847D01*
X200666666Y-29545180D02*
X200666666Y-28688038D01*
X200666666Y-28688038D02*
X200619047Y-28592800D01*
X200619047Y-28592800D02*
X200523809Y-28545180D01*
X200523809Y-28545180D02*
X200428571Y-28545180D01*
X199666666Y-28545180D02*
X199666666Y-29068990D01*
X199666666Y-29068990D02*
X199714285Y-29164228D01*
X199714285Y-29164228D02*
X199809523Y-29211847D01*
X199809523Y-29211847D02*
X199999999Y-29211847D01*
X199999999Y-29211847D02*
X200095237Y-29164228D01*
X199666666Y-28592800D02*
X199761904Y-28545180D01*
X199761904Y-28545180D02*
X199999999Y-28545180D01*
X199999999Y-28545180D02*
X200095237Y-28592800D01*
X200095237Y-28592800D02*
X200142856Y-28688038D01*
X200142856Y-28688038D02*
X200142856Y-28783276D01*
X200142856Y-28783276D02*
X200095237Y-28878514D01*
X200095237Y-28878514D02*
X199999999Y-28926133D01*
X199999999Y-28926133D02*
X199761904Y-28926133D01*
X199761904Y-28926133D02*
X199666666Y-28973752D01*
X198428570Y-28926133D02*
X197666666Y-28926133D01*
X198047618Y-28545180D02*
X198047618Y-29307085D01*
X195952380Y-29545180D02*
X196428570Y-29545180D01*
X196428570Y-29545180D02*
X196476189Y-29068990D01*
X196476189Y-29068990D02*
X196428570Y-29116609D01*
X196428570Y-29116609D02*
X196333332Y-29164228D01*
X196333332Y-29164228D02*
X196095237Y-29164228D01*
X196095237Y-29164228D02*
X195999999Y-29116609D01*
X195999999Y-29116609D02*
X195952380Y-29068990D01*
X195952380Y-29068990D02*
X195904761Y-28973752D01*
X195904761Y-28973752D02*
X195904761Y-28735657D01*
X195904761Y-28735657D02*
X195952380Y-28640419D01*
X195952380Y-28640419D02*
X195999999Y-28592800D01*
X195999999Y-28592800D02*
X196095237Y-28545180D01*
X196095237Y-28545180D02*
X196333332Y-28545180D01*
X196333332Y-28545180D02*
X196428570Y-28592800D01*
X196428570Y-28592800D02*
X196476189Y-28640419D01*
X195619046Y-29545180D02*
X195285713Y-28545180D01*
X195285713Y-28545180D02*
X194952380Y-29545180D01*
X193333332Y-29497561D02*
X193428570Y-29545180D01*
X193428570Y-29545180D02*
X193571427Y-29545180D01*
X193571427Y-29545180D02*
X193714284Y-29497561D01*
X193714284Y-29497561D02*
X193809522Y-29402323D01*
X193809522Y-29402323D02*
X193857141Y-29307085D01*
X193857141Y-29307085D02*
X193904760Y-29116609D01*
X193904760Y-29116609D02*
X193904760Y-28973752D01*
X193904760Y-28973752D02*
X193857141Y-28783276D01*
X193857141Y-28783276D02*
X193809522Y-28688038D01*
X193809522Y-28688038D02*
X193714284Y-28592800D01*
X193714284Y-28592800D02*
X193571427Y-28545180D01*
X193571427Y-28545180D02*
X193476189Y-28545180D01*
X193476189Y-28545180D02*
X193333332Y-28592800D01*
X193333332Y-28592800D02*
X193285713Y-28640419D01*
X193285713Y-28640419D02*
X193285713Y-28973752D01*
X193285713Y-28973752D02*
X193476189Y-28973752D01*
X192857141Y-28545180D02*
X192857141Y-29545180D01*
X192857141Y-29545180D02*
X192285713Y-28545180D01*
X192285713Y-28545180D02*
X192285713Y-29545180D01*
X191809522Y-28545180D02*
X191809522Y-29545180D01*
X191809522Y-29545180D02*
X191571427Y-29545180D01*
X191571427Y-29545180D02*
X191428570Y-29497561D01*
X191428570Y-29497561D02*
X191333332Y-29402323D01*
X191333332Y-29402323D02*
X191285713Y-29307085D01*
X191285713Y-29307085D02*
X191238094Y-29116609D01*
X191238094Y-29116609D02*
X191238094Y-28973752D01*
X191238094Y-28973752D02*
X191285713Y-28783276D01*
X191285713Y-28783276D02*
X191333332Y-28688038D01*
X191333332Y-28688038D02*
X191428570Y-28592800D01*
X191428570Y-28592800D02*
X191571427Y-28545180D01*
X191571427Y-28545180D02*
X191809522Y-28545180D01*
X181190475Y-101649819D02*
X181190475Y-100649819D01*
X181190475Y-100649819D02*
X181523808Y-101364104D01*
X181523808Y-101364104D02*
X181857141Y-100649819D01*
X181857141Y-100649819D02*
X181857141Y-101649819D01*
X182761903Y-100983152D02*
X182761903Y-101649819D01*
X182333332Y-100983152D02*
X182333332Y-101506961D01*
X182333332Y-101506961D02*
X182380951Y-101602200D01*
X182380951Y-101602200D02*
X182476189Y-101649819D01*
X182476189Y-101649819D02*
X182619046Y-101649819D01*
X182619046Y-101649819D02*
X182714284Y-101602200D01*
X182714284Y-101602200D02*
X182761903Y-101554580D01*
X183095237Y-100983152D02*
X183476189Y-100983152D01*
X183238094Y-100649819D02*
X183238094Y-101506961D01*
X183238094Y-101506961D02*
X183285713Y-101602200D01*
X183285713Y-101602200D02*
X183380951Y-101649819D01*
X183380951Y-101649819D02*
X183476189Y-101649819D01*
X183666666Y-100983152D02*
X184047618Y-100983152D01*
X183809523Y-100649819D02*
X183809523Y-101506961D01*
X183809523Y-101506961D02*
X183857142Y-101602200D01*
X183857142Y-101602200D02*
X183952380Y-101649819D01*
X183952380Y-101649819D02*
X184047618Y-101649819D01*
X184761904Y-101602200D02*
X184666666Y-101649819D01*
X184666666Y-101649819D02*
X184476190Y-101649819D01*
X184476190Y-101649819D02*
X184380952Y-101602200D01*
X184380952Y-101602200D02*
X184333333Y-101506961D01*
X184333333Y-101506961D02*
X184333333Y-101126009D01*
X184333333Y-101126009D02*
X184380952Y-101030771D01*
X184380952Y-101030771D02*
X184476190Y-100983152D01*
X184476190Y-100983152D02*
X184666666Y-100983152D01*
X184666666Y-100983152D02*
X184761904Y-101030771D01*
X184761904Y-101030771D02*
X184809523Y-101126009D01*
X184809523Y-101126009D02*
X184809523Y-101221247D01*
X184809523Y-101221247D02*
X184333333Y-101316485D01*
X185238095Y-101649819D02*
X185238095Y-100983152D01*
X185238095Y-101173628D02*
X185285714Y-101078390D01*
X185285714Y-101078390D02*
X185333333Y-101030771D01*
X185333333Y-101030771D02*
X185428571Y-100983152D01*
X185428571Y-100983152D02*
X185523809Y-100983152D01*
X186285714Y-100983152D02*
X186285714Y-101649819D01*
X185857143Y-100983152D02*
X185857143Y-101506961D01*
X185857143Y-101506961D02*
X185904762Y-101602200D01*
X185904762Y-101602200D02*
X186000000Y-101649819D01*
X186000000Y-101649819D02*
X186142857Y-101649819D01*
X186142857Y-101649819D02*
X186238095Y-101602200D01*
X186238095Y-101602200D02*
X186285714Y-101554580D01*
X186761905Y-101649819D02*
X186761905Y-100649819D01*
X187190476Y-101649819D02*
X187190476Y-101126009D01*
X187190476Y-101126009D02*
X187142857Y-101030771D01*
X187142857Y-101030771D02*
X187047619Y-100983152D01*
X187047619Y-100983152D02*
X186904762Y-100983152D01*
X186904762Y-100983152D02*
X186809524Y-101030771D01*
X186809524Y-101030771D02*
X186761905Y-101078390D01*
X187666667Y-101649819D02*
X187666667Y-100983152D01*
X187666667Y-101173628D02*
X187714286Y-101078390D01*
X187714286Y-101078390D02*
X187761905Y-101030771D01*
X187761905Y-101030771D02*
X187857143Y-100983152D01*
X187857143Y-100983152D02*
X187952381Y-100983152D01*
X174976189Y-103259819D02*
X174976189Y-102259819D01*
X175404760Y-103259819D02*
X175404760Y-102736009D01*
X175404760Y-102736009D02*
X175357141Y-102640771D01*
X175357141Y-102640771D02*
X175261903Y-102593152D01*
X175261903Y-102593152D02*
X175119046Y-102593152D01*
X175119046Y-102593152D02*
X175023808Y-102640771D01*
X175023808Y-102640771D02*
X174976189Y-102688390D01*
X175738094Y-102593152D02*
X176119046Y-102593152D01*
X175880951Y-102259819D02*
X175880951Y-103116961D01*
X175880951Y-103116961D02*
X175928570Y-103212200D01*
X175928570Y-103212200D02*
X176023808Y-103259819D01*
X176023808Y-103259819D02*
X176119046Y-103259819D01*
X176309523Y-102593152D02*
X176690475Y-102593152D01*
X176452380Y-102259819D02*
X176452380Y-103116961D01*
X176452380Y-103116961D02*
X176499999Y-103212200D01*
X176499999Y-103212200D02*
X176595237Y-103259819D01*
X176595237Y-103259819D02*
X176690475Y-103259819D01*
X177023809Y-102593152D02*
X177023809Y-103593152D01*
X177023809Y-102640771D02*
X177119047Y-102593152D01*
X177119047Y-102593152D02*
X177309523Y-102593152D01*
X177309523Y-102593152D02*
X177404761Y-102640771D01*
X177404761Y-102640771D02*
X177452380Y-102688390D01*
X177452380Y-102688390D02*
X177499999Y-102783628D01*
X177499999Y-102783628D02*
X177499999Y-103069342D01*
X177499999Y-103069342D02*
X177452380Y-103164580D01*
X177452380Y-103164580D02*
X177404761Y-103212200D01*
X177404761Y-103212200D02*
X177309523Y-103259819D01*
X177309523Y-103259819D02*
X177119047Y-103259819D01*
X177119047Y-103259819D02*
X177023809Y-103212200D01*
X177880952Y-103212200D02*
X177976190Y-103259819D01*
X177976190Y-103259819D02*
X178166666Y-103259819D01*
X178166666Y-103259819D02*
X178261904Y-103212200D01*
X178261904Y-103212200D02*
X178309523Y-103116961D01*
X178309523Y-103116961D02*
X178309523Y-103069342D01*
X178309523Y-103069342D02*
X178261904Y-102974104D01*
X178261904Y-102974104D02*
X178166666Y-102926485D01*
X178166666Y-102926485D02*
X178023809Y-102926485D01*
X178023809Y-102926485D02*
X177928571Y-102878866D01*
X177928571Y-102878866D02*
X177880952Y-102783628D01*
X177880952Y-102783628D02*
X177880952Y-102736009D01*
X177880952Y-102736009D02*
X177928571Y-102640771D01*
X177928571Y-102640771D02*
X178023809Y-102593152D01*
X178023809Y-102593152D02*
X178166666Y-102593152D01*
X178166666Y-102593152D02*
X178261904Y-102640771D01*
X178738095Y-103164580D02*
X178785714Y-103212200D01*
X178785714Y-103212200D02*
X178738095Y-103259819D01*
X178738095Y-103259819D02*
X178690476Y-103212200D01*
X178690476Y-103212200D02*
X178738095Y-103164580D01*
X178738095Y-103164580D02*
X178738095Y-103259819D01*
X178738095Y-102640771D02*
X178785714Y-102688390D01*
X178785714Y-102688390D02*
X178738095Y-102736009D01*
X178738095Y-102736009D02*
X178690476Y-102688390D01*
X178690476Y-102688390D02*
X178738095Y-102640771D01*
X178738095Y-102640771D02*
X178738095Y-102736009D01*
X179928570Y-102212200D02*
X179071428Y-103497914D01*
X180976189Y-102212200D02*
X180119047Y-103497914D01*
X181738094Y-103259819D02*
X181738094Y-102736009D01*
X181738094Y-102736009D02*
X181690475Y-102640771D01*
X181690475Y-102640771D02*
X181595237Y-102593152D01*
X181595237Y-102593152D02*
X181404761Y-102593152D01*
X181404761Y-102593152D02*
X181309523Y-102640771D01*
X181738094Y-103212200D02*
X181642856Y-103259819D01*
X181642856Y-103259819D02*
X181404761Y-103259819D01*
X181404761Y-103259819D02*
X181309523Y-103212200D01*
X181309523Y-103212200D02*
X181261904Y-103116961D01*
X181261904Y-103116961D02*
X181261904Y-103021723D01*
X181261904Y-103021723D02*
X181309523Y-102926485D01*
X181309523Y-102926485D02*
X181404761Y-102878866D01*
X181404761Y-102878866D02*
X181642856Y-102878866D01*
X181642856Y-102878866D02*
X181738094Y-102831247D01*
X182357142Y-103259819D02*
X182261904Y-103212200D01*
X182261904Y-103212200D02*
X182214285Y-103116961D01*
X182214285Y-103116961D02*
X182214285Y-102259819D01*
X182738095Y-103259819D02*
X182738095Y-102259819D01*
X182738095Y-102640771D02*
X182833333Y-102593152D01*
X182833333Y-102593152D02*
X183023809Y-102593152D01*
X183023809Y-102593152D02*
X183119047Y-102640771D01*
X183119047Y-102640771D02*
X183166666Y-102688390D01*
X183166666Y-102688390D02*
X183214285Y-102783628D01*
X183214285Y-102783628D02*
X183214285Y-103069342D01*
X183214285Y-103069342D02*
X183166666Y-103164580D01*
X183166666Y-103164580D02*
X183119047Y-103212200D01*
X183119047Y-103212200D02*
X183023809Y-103259819D01*
X183023809Y-103259819D02*
X182833333Y-103259819D01*
X182833333Y-103259819D02*
X182738095Y-103212200D01*
X184023809Y-103212200D02*
X183928571Y-103259819D01*
X183928571Y-103259819D02*
X183738095Y-103259819D01*
X183738095Y-103259819D02*
X183642857Y-103212200D01*
X183642857Y-103212200D02*
X183595238Y-103116961D01*
X183595238Y-103116961D02*
X183595238Y-102736009D01*
X183595238Y-102736009D02*
X183642857Y-102640771D01*
X183642857Y-102640771D02*
X183738095Y-102593152D01*
X183738095Y-102593152D02*
X183928571Y-102593152D01*
X183928571Y-102593152D02*
X184023809Y-102640771D01*
X184023809Y-102640771D02*
X184071428Y-102736009D01*
X184071428Y-102736009D02*
X184071428Y-102831247D01*
X184071428Y-102831247D02*
X183595238Y-102926485D01*
X184500000Y-103259819D02*
X184500000Y-102593152D01*
X184500000Y-102783628D02*
X184547619Y-102688390D01*
X184547619Y-102688390D02*
X184595238Y-102640771D01*
X184595238Y-102640771D02*
X184690476Y-102593152D01*
X184690476Y-102593152D02*
X184785714Y-102593152D01*
X184976191Y-102593152D02*
X185357143Y-102593152D01*
X185119048Y-102259819D02*
X185119048Y-103116961D01*
X185119048Y-103116961D02*
X185166667Y-103212200D01*
X185166667Y-103212200D02*
X185261905Y-103259819D01*
X185261905Y-103259819D02*
X185357143Y-103259819D01*
X185690477Y-102878866D02*
X186452382Y-102878866D01*
X186928572Y-103259819D02*
X186928572Y-102259819D01*
X187357143Y-103259819D02*
X187357143Y-102736009D01*
X187357143Y-102736009D02*
X187309524Y-102640771D01*
X187309524Y-102640771D02*
X187214286Y-102593152D01*
X187214286Y-102593152D02*
X187071429Y-102593152D01*
X187071429Y-102593152D02*
X186976191Y-102640771D01*
X186976191Y-102640771D02*
X186928572Y-102688390D01*
X188214286Y-103212200D02*
X188119048Y-103259819D01*
X188119048Y-103259819D02*
X187928572Y-103259819D01*
X187928572Y-103259819D02*
X187833334Y-103212200D01*
X187833334Y-103212200D02*
X187785715Y-103116961D01*
X187785715Y-103116961D02*
X187785715Y-102736009D01*
X187785715Y-102736009D02*
X187833334Y-102640771D01*
X187833334Y-102640771D02*
X187928572Y-102593152D01*
X187928572Y-102593152D02*
X188119048Y-102593152D01*
X188119048Y-102593152D02*
X188214286Y-102640771D01*
X188214286Y-102640771D02*
X188261905Y-102736009D01*
X188261905Y-102736009D02*
X188261905Y-102831247D01*
X188261905Y-102831247D02*
X187785715Y-102926485D01*
X188547620Y-102593152D02*
X188928572Y-102593152D01*
X188690477Y-102259819D02*
X188690477Y-103116961D01*
X188690477Y-103116961D02*
X188738096Y-103212200D01*
X188738096Y-103212200D02*
X188833334Y-103259819D01*
X188833334Y-103259819D02*
X188928572Y-103259819D01*
X189166668Y-102593152D02*
X189690477Y-102593152D01*
X189690477Y-102593152D02*
X189166668Y-103259819D01*
X189166668Y-103259819D02*
X189690477Y-103259819D01*
X190214287Y-103259819D02*
X190119049Y-103212200D01*
X190119049Y-103212200D02*
X190071430Y-103116961D01*
X190071430Y-103116961D02*
X190071430Y-102259819D01*
X190976192Y-103212200D02*
X190880954Y-103259819D01*
X190880954Y-103259819D02*
X190690478Y-103259819D01*
X190690478Y-103259819D02*
X190595240Y-103212200D01*
X190595240Y-103212200D02*
X190547621Y-103116961D01*
X190547621Y-103116961D02*
X190547621Y-102736009D01*
X190547621Y-102736009D02*
X190595240Y-102640771D01*
X190595240Y-102640771D02*
X190690478Y-102593152D01*
X190690478Y-102593152D02*
X190880954Y-102593152D01*
X190880954Y-102593152D02*
X190976192Y-102640771D01*
X190976192Y-102640771D02*
X191023811Y-102736009D01*
X191023811Y-102736009D02*
X191023811Y-102831247D01*
X191023811Y-102831247D02*
X190547621Y-102926485D01*
X191404764Y-103212200D02*
X191500002Y-103259819D01*
X191500002Y-103259819D02*
X191690478Y-103259819D01*
X191690478Y-103259819D02*
X191785716Y-103212200D01*
X191785716Y-103212200D02*
X191833335Y-103116961D01*
X191833335Y-103116961D02*
X191833335Y-103069342D01*
X191833335Y-103069342D02*
X191785716Y-102974104D01*
X191785716Y-102974104D02*
X191690478Y-102926485D01*
X191690478Y-102926485D02*
X191547621Y-102926485D01*
X191547621Y-102926485D02*
X191452383Y-102878866D01*
X191452383Y-102878866D02*
X191404764Y-102783628D01*
X191404764Y-102783628D02*
X191404764Y-102736009D01*
X191404764Y-102736009D02*
X191452383Y-102640771D01*
X191452383Y-102640771D02*
X191547621Y-102593152D01*
X191547621Y-102593152D02*
X191690478Y-102593152D01*
X191690478Y-102593152D02*
X191785716Y-102640771D01*
X192261907Y-103164580D02*
X192309526Y-103212200D01*
X192309526Y-103212200D02*
X192261907Y-103259819D01*
X192261907Y-103259819D02*
X192214288Y-103212200D01*
X192214288Y-103212200D02*
X192261907Y-103164580D01*
X192261907Y-103164580D02*
X192261907Y-103259819D01*
X193166668Y-103259819D02*
X193166668Y-102259819D01*
X193166668Y-103212200D02*
X193071430Y-103259819D01*
X193071430Y-103259819D02*
X192880954Y-103259819D01*
X192880954Y-103259819D02*
X192785716Y-103212200D01*
X192785716Y-103212200D02*
X192738097Y-103164580D01*
X192738097Y-103164580D02*
X192690478Y-103069342D01*
X192690478Y-103069342D02*
X192690478Y-102783628D01*
X192690478Y-102783628D02*
X192738097Y-102688390D01*
X192738097Y-102688390D02*
X192785716Y-102640771D01*
X192785716Y-102640771D02*
X192880954Y-102593152D01*
X192880954Y-102593152D02*
X193071430Y-102593152D01*
X193071430Y-102593152D02*
X193166668Y-102640771D01*
X194023811Y-103212200D02*
X193928573Y-103259819D01*
X193928573Y-103259819D02*
X193738097Y-103259819D01*
X193738097Y-103259819D02*
X193642859Y-103212200D01*
X193642859Y-103212200D02*
X193595240Y-103116961D01*
X193595240Y-103116961D02*
X193595240Y-102736009D01*
X193595240Y-102736009D02*
X193642859Y-102640771D01*
X193642859Y-102640771D02*
X193738097Y-102593152D01*
X193738097Y-102593152D02*
X193928573Y-102593152D01*
X193928573Y-102593152D02*
X194023811Y-102640771D01*
X194023811Y-102640771D02*
X194071430Y-102736009D01*
X194071430Y-102736009D02*
X194071430Y-102831247D01*
X194071430Y-102831247D02*
X193595240Y-102926485D01*
X212752438Y-53761904D02*
X212704819Y-53857142D01*
X212704819Y-53857142D02*
X212704819Y-53999999D01*
X212704819Y-53999999D02*
X212752438Y-54142856D01*
X212752438Y-54142856D02*
X212847676Y-54238094D01*
X212847676Y-54238094D02*
X212942914Y-54285713D01*
X212942914Y-54285713D02*
X213133390Y-54333332D01*
X213133390Y-54333332D02*
X213276247Y-54333332D01*
X213276247Y-54333332D02*
X213466723Y-54285713D01*
X213466723Y-54285713D02*
X213561961Y-54238094D01*
X213561961Y-54238094D02*
X213657200Y-54142856D01*
X213657200Y-54142856D02*
X213704819Y-53999999D01*
X213704819Y-53999999D02*
X213704819Y-53904761D01*
X213704819Y-53904761D02*
X213657200Y-53761904D01*
X213657200Y-53761904D02*
X213609580Y-53714285D01*
X213609580Y-53714285D02*
X213276247Y-53714285D01*
X213276247Y-53714285D02*
X213276247Y-53904761D01*
X213704819Y-53285713D02*
X212704819Y-53285713D01*
X212704819Y-53285713D02*
X213704819Y-52714285D01*
X213704819Y-52714285D02*
X212704819Y-52714285D01*
X213704819Y-52238094D02*
X212704819Y-52238094D01*
X212704819Y-52238094D02*
X212704819Y-51999999D01*
X212704819Y-51999999D02*
X212752438Y-51857142D01*
X212752438Y-51857142D02*
X212847676Y-51761904D01*
X212847676Y-51761904D02*
X212942914Y-51714285D01*
X212942914Y-51714285D02*
X213133390Y-51666666D01*
X213133390Y-51666666D02*
X213276247Y-51666666D01*
X213276247Y-51666666D02*
X213466723Y-51714285D01*
X213466723Y-51714285D02*
X213561961Y-51761904D01*
X213561961Y-51761904D02*
X213657200Y-51857142D01*
X213657200Y-51857142D02*
X213704819Y-51999999D01*
X213704819Y-51999999D02*
X213704819Y-52238094D01*
X186149819Y-26142856D02*
X185149819Y-26142856D01*
X185149819Y-26142856D02*
X185149819Y-25904761D01*
X185149819Y-25904761D02*
X185197438Y-25761904D01*
X185197438Y-25761904D02*
X185292676Y-25666666D01*
X185292676Y-25666666D02*
X185387914Y-25619047D01*
X185387914Y-25619047D02*
X185578390Y-25571428D01*
X185578390Y-25571428D02*
X185721247Y-25571428D01*
X185721247Y-25571428D02*
X185911723Y-25619047D01*
X185911723Y-25619047D02*
X186006961Y-25666666D01*
X186006961Y-25666666D02*
X186102200Y-25761904D01*
X186102200Y-25761904D02*
X186149819Y-25904761D01*
X186149819Y-25904761D02*
X186149819Y-26142856D01*
X186054580Y-24571428D02*
X186102200Y-24619047D01*
X186102200Y-24619047D02*
X186149819Y-24761904D01*
X186149819Y-24761904D02*
X186149819Y-24857142D01*
X186149819Y-24857142D02*
X186102200Y-24999999D01*
X186102200Y-24999999D02*
X186006961Y-25095237D01*
X186006961Y-25095237D02*
X185911723Y-25142856D01*
X185911723Y-25142856D02*
X185721247Y-25190475D01*
X185721247Y-25190475D02*
X185578390Y-25190475D01*
X185578390Y-25190475D02*
X185387914Y-25142856D01*
X185387914Y-25142856D02*
X185292676Y-25095237D01*
X185292676Y-25095237D02*
X185197438Y-24999999D01*
X185197438Y-24999999D02*
X185149819Y-24857142D01*
X185149819Y-24857142D02*
X185149819Y-24761904D01*
X185149819Y-24761904D02*
X185197438Y-24619047D01*
X185197438Y-24619047D02*
X185245057Y-24571428D01*
X185626009Y-23809523D02*
X185626009Y-24142856D01*
X186149819Y-24142856D02*
X185149819Y-24142856D01*
X185149819Y-24142856D02*
X185149819Y-23666666D01*
X185149819Y-23380951D02*
X185149819Y-22714285D01*
X185149819Y-22714285D02*
X186149819Y-23142856D01*
X185149819Y-22428570D02*
X185149819Y-21761904D01*
X185149819Y-21761904D02*
X186149819Y-22190475D01*
X187236009Y-27714285D02*
X187236009Y-27380952D01*
X187759819Y-27238095D02*
X187759819Y-27714285D01*
X187759819Y-27714285D02*
X186759819Y-27714285D01*
X186759819Y-27714285D02*
X186759819Y-27238095D01*
X187759819Y-26809523D02*
X187093152Y-26809523D01*
X187188390Y-26809523D02*
X187140771Y-26761904D01*
X187140771Y-26761904D02*
X187093152Y-26666666D01*
X187093152Y-26666666D02*
X187093152Y-26523809D01*
X187093152Y-26523809D02*
X187140771Y-26428571D01*
X187140771Y-26428571D02*
X187236009Y-26380952D01*
X187236009Y-26380952D02*
X187759819Y-26380952D01*
X187236009Y-26380952D02*
X187140771Y-26333333D01*
X187140771Y-26333333D02*
X187093152Y-26238095D01*
X187093152Y-26238095D02*
X187093152Y-26095238D01*
X187093152Y-26095238D02*
X187140771Y-25999999D01*
X187140771Y-25999999D02*
X187236009Y-25952380D01*
X187236009Y-25952380D02*
X187759819Y-25952380D01*
X187093152Y-25476190D02*
X188093152Y-25476190D01*
X187140771Y-25476190D02*
X187093152Y-25380952D01*
X187093152Y-25380952D02*
X187093152Y-25190476D01*
X187093152Y-25190476D02*
X187140771Y-25095238D01*
X187140771Y-25095238D02*
X187188390Y-25047619D01*
X187188390Y-25047619D02*
X187283628Y-25000000D01*
X187283628Y-25000000D02*
X187569342Y-25000000D01*
X187569342Y-25000000D02*
X187664580Y-25047619D01*
X187664580Y-25047619D02*
X187712200Y-25095238D01*
X187712200Y-25095238D02*
X187759819Y-25190476D01*
X187759819Y-25190476D02*
X187759819Y-25380952D01*
X187759819Y-25380952D02*
X187712200Y-25476190D01*
X187093152Y-24714285D02*
X187093152Y-24333333D01*
X187759819Y-24571428D02*
X186902676Y-24571428D01*
X186902676Y-24571428D02*
X186807438Y-24523809D01*
X186807438Y-24523809D02*
X186759819Y-24428571D01*
X186759819Y-24428571D02*
X186759819Y-24333333D01*
X187759819Y-23571428D02*
X187236009Y-23571428D01*
X187236009Y-23571428D02*
X187140771Y-23619047D01*
X187140771Y-23619047D02*
X187093152Y-23714285D01*
X187093152Y-23714285D02*
X187093152Y-23904761D01*
X187093152Y-23904761D02*
X187140771Y-23999999D01*
X187712200Y-23571428D02*
X187759819Y-23666666D01*
X187759819Y-23666666D02*
X187759819Y-23904761D01*
X187759819Y-23904761D02*
X187712200Y-23999999D01*
X187712200Y-23999999D02*
X187616961Y-24047618D01*
X187616961Y-24047618D02*
X187521723Y-24047618D01*
X187521723Y-24047618D02*
X187426485Y-23999999D01*
X187426485Y-23999999D02*
X187378866Y-23904761D01*
X187378866Y-23904761D02*
X187378866Y-23666666D01*
X187378866Y-23666666D02*
X187331247Y-23571428D01*
X186759819Y-23999999D02*
X186807438Y-23952380D01*
X186807438Y-23952380D02*
X186855057Y-23999999D01*
X186855057Y-23999999D02*
X186807438Y-24047618D01*
X186807438Y-24047618D02*
X186759819Y-23999999D01*
X186759819Y-23999999D02*
X186855057Y-23999999D01*
X186759819Y-23619047D02*
X186807438Y-23571428D01*
X186807438Y-23571428D02*
X186855057Y-23619047D01*
X186855057Y-23619047D02*
X186807438Y-23666666D01*
X186807438Y-23666666D02*
X186759819Y-23619047D01*
X186759819Y-23619047D02*
X186855057Y-23619047D01*
X187093152Y-23095237D02*
X187759819Y-23095237D01*
X187188390Y-23095237D02*
X187140771Y-23047618D01*
X187140771Y-23047618D02*
X187093152Y-22952380D01*
X187093152Y-22952380D02*
X187093152Y-22809523D01*
X187093152Y-22809523D02*
X187140771Y-22714285D01*
X187140771Y-22714285D02*
X187236009Y-22666666D01*
X187236009Y-22666666D02*
X187759819Y-22666666D01*
X187093152Y-21761904D02*
X187902676Y-21761904D01*
X187902676Y-21761904D02*
X187997914Y-21809523D01*
X187997914Y-21809523D02*
X188045533Y-21857142D01*
X188045533Y-21857142D02*
X188093152Y-21952380D01*
X188093152Y-21952380D02*
X188093152Y-22095237D01*
X188093152Y-22095237D02*
X188045533Y-22190475D01*
X187712200Y-21761904D02*
X187759819Y-21857142D01*
X187759819Y-21857142D02*
X187759819Y-22047618D01*
X187759819Y-22047618D02*
X187712200Y-22142856D01*
X187712200Y-22142856D02*
X187664580Y-22190475D01*
X187664580Y-22190475D02*
X187569342Y-22238094D01*
X187569342Y-22238094D02*
X187283628Y-22238094D01*
X187283628Y-22238094D02*
X187188390Y-22190475D01*
X187188390Y-22190475D02*
X187140771Y-22142856D01*
X187140771Y-22142856D02*
X187093152Y-22047618D01*
X187093152Y-22047618D02*
X187093152Y-21857142D01*
X187093152Y-21857142D02*
X187140771Y-21761904D01*
X187712200Y-20904761D02*
X187759819Y-20999999D01*
X187759819Y-20999999D02*
X187759819Y-21190475D01*
X187759819Y-21190475D02*
X187712200Y-21285713D01*
X187712200Y-21285713D02*
X187616961Y-21333332D01*
X187616961Y-21333332D02*
X187236009Y-21333332D01*
X187236009Y-21333332D02*
X187140771Y-21285713D01*
X187140771Y-21285713D02*
X187093152Y-21190475D01*
X187093152Y-21190475D02*
X187093152Y-20999999D01*
X187093152Y-20999999D02*
X187140771Y-20904761D01*
X187140771Y-20904761D02*
X187236009Y-20857142D01*
X187236009Y-20857142D02*
X187331247Y-20857142D01*
X187331247Y-20857142D02*
X187426485Y-21333332D01*
X187759819Y-20428570D02*
X187093152Y-20428570D01*
X187283628Y-20428570D02*
X187188390Y-20380951D01*
X187188390Y-20380951D02*
X187140771Y-20333332D01*
X187140771Y-20333332D02*
X187093152Y-20238094D01*
X187093152Y-20238094D02*
X187093152Y-20142856D01*
X155488095Y-46024819D02*
X155488095Y-46834342D01*
X155488095Y-46834342D02*
X155535714Y-46929580D01*
X155535714Y-46929580D02*
X155583333Y-46977200D01*
X155583333Y-46977200D02*
X155678571Y-47024819D01*
X155678571Y-47024819D02*
X155869047Y-47024819D01*
X155869047Y-47024819D02*
X155964285Y-46977200D01*
X155964285Y-46977200D02*
X156011904Y-46929580D01*
X156011904Y-46929580D02*
X156059523Y-46834342D01*
X156059523Y-46834342D02*
X156059523Y-46024819D01*
X157059523Y-47024819D02*
X156488095Y-47024819D01*
X156773809Y-47024819D02*
X156773809Y-46024819D01*
X156773809Y-46024819D02*
X156678571Y-46167676D01*
X156678571Y-46167676D02*
X156583333Y-46262914D01*
X156583333Y-46262914D02*
X156488095Y-46310533D01*
X198374095Y-34462819D02*
X198374095Y-35272342D01*
X198374095Y-35272342D02*
X198421714Y-35367580D01*
X198421714Y-35367580D02*
X198469333Y-35415200D01*
X198469333Y-35415200D02*
X198564571Y-35462819D01*
X198564571Y-35462819D02*
X198755047Y-35462819D01*
X198755047Y-35462819D02*
X198850285Y-35415200D01*
X198850285Y-35415200D02*
X198897904Y-35367580D01*
X198897904Y-35367580D02*
X198945523Y-35272342D01*
X198945523Y-35272342D02*
X198945523Y-34462819D01*
X199374095Y-34558057D02*
X199421714Y-34510438D01*
X199421714Y-34510438D02*
X199516952Y-34462819D01*
X199516952Y-34462819D02*
X199755047Y-34462819D01*
X199755047Y-34462819D02*
X199850285Y-34510438D01*
X199850285Y-34510438D02*
X199897904Y-34558057D01*
X199897904Y-34558057D02*
X199945523Y-34653295D01*
X199945523Y-34653295D02*
X199945523Y-34748533D01*
X199945523Y-34748533D02*
X199897904Y-34891390D01*
X199897904Y-34891390D02*
X199326476Y-35462819D01*
X199326476Y-35462819D02*
X199945523Y-35462819D01*
X206238095Y-85454819D02*
X206238095Y-86264342D01*
X206238095Y-86264342D02*
X206285714Y-86359580D01*
X206285714Y-86359580D02*
X206333333Y-86407200D01*
X206333333Y-86407200D02*
X206428571Y-86454819D01*
X206428571Y-86454819D02*
X206619047Y-86454819D01*
X206619047Y-86454819D02*
X206714285Y-86407200D01*
X206714285Y-86407200D02*
X206761904Y-86359580D01*
X206761904Y-86359580D02*
X206809523Y-86264342D01*
X206809523Y-86264342D02*
X206809523Y-85454819D01*
X207714285Y-85788152D02*
X207714285Y-86454819D01*
X207476190Y-85407200D02*
X207238095Y-86121485D01*
X207238095Y-86121485D02*
X207857142Y-86121485D01*
X166454819Y-82261904D02*
X167264342Y-82261904D01*
X167264342Y-82261904D02*
X167359580Y-82214285D01*
X167359580Y-82214285D02*
X167407200Y-82166666D01*
X167407200Y-82166666D02*
X167454819Y-82071428D01*
X167454819Y-82071428D02*
X167454819Y-81880952D01*
X167454819Y-81880952D02*
X167407200Y-81785714D01*
X167407200Y-81785714D02*
X167359580Y-81738095D01*
X167359580Y-81738095D02*
X167264342Y-81690476D01*
X167264342Y-81690476D02*
X166454819Y-81690476D01*
X166454819Y-80738095D02*
X166454819Y-81214285D01*
X166454819Y-81214285D02*
X166931009Y-81261904D01*
X166931009Y-81261904D02*
X166883390Y-81214285D01*
X166883390Y-81214285D02*
X166835771Y-81119047D01*
X166835771Y-81119047D02*
X166835771Y-80880952D01*
X166835771Y-80880952D02*
X166883390Y-80785714D01*
X166883390Y-80785714D02*
X166931009Y-80738095D01*
X166931009Y-80738095D02*
X167026247Y-80690476D01*
X167026247Y-80690476D02*
X167264342Y-80690476D01*
X167264342Y-80690476D02*
X167359580Y-80738095D01*
X167359580Y-80738095D02*
X167407200Y-80785714D01*
X167407200Y-80785714D02*
X167454819Y-80880952D01*
X167454819Y-80880952D02*
X167454819Y-81119047D01*
X167454819Y-81119047D02*
X167407200Y-81214285D01*
X167407200Y-81214285D02*
X167359580Y-81261904D01*
X173791714Y-77074819D02*
X173791714Y-76074819D01*
X173791714Y-76074819D02*
X174029809Y-76074819D01*
X174029809Y-76074819D02*
X174172666Y-76122438D01*
X174172666Y-76122438D02*
X174267904Y-76217676D01*
X174267904Y-76217676D02*
X174315523Y-76312914D01*
X174315523Y-76312914D02*
X174363142Y-76503390D01*
X174363142Y-76503390D02*
X174363142Y-76646247D01*
X174363142Y-76646247D02*
X174315523Y-76836723D01*
X174315523Y-76836723D02*
X174267904Y-76931961D01*
X174267904Y-76931961D02*
X174172666Y-77027200D01*
X174172666Y-77027200D02*
X174029809Y-77074819D01*
X174029809Y-77074819D02*
X173791714Y-77074819D01*
X175315523Y-77074819D02*
X174744095Y-77074819D01*
X175029809Y-77074819D02*
X175029809Y-76074819D01*
X175029809Y-76074819D02*
X174934571Y-76217676D01*
X174934571Y-76217676D02*
X174839333Y-76312914D01*
X174839333Y-76312914D02*
X174744095Y-76360533D01*
X176267904Y-77074819D02*
X175696476Y-77074819D01*
X175982190Y-77074819D02*
X175982190Y-76074819D01*
X175982190Y-76074819D02*
X175886952Y-76217676D01*
X175886952Y-76217676D02*
X175791714Y-76312914D01*
X175791714Y-76312914D02*
X175696476Y-76360533D01*
X170934095Y-77394819D02*
X170934095Y-76394819D01*
X171505523Y-77394819D02*
X171076952Y-76823390D01*
X171505523Y-76394819D02*
X170934095Y-76966247D01*
X177359580Y-29166666D02*
X177407200Y-29214285D01*
X177407200Y-29214285D02*
X177454819Y-29357142D01*
X177454819Y-29357142D02*
X177454819Y-29452380D01*
X177454819Y-29452380D02*
X177407200Y-29595237D01*
X177407200Y-29595237D02*
X177311961Y-29690475D01*
X177311961Y-29690475D02*
X177216723Y-29738094D01*
X177216723Y-29738094D02*
X177026247Y-29785713D01*
X177026247Y-29785713D02*
X176883390Y-29785713D01*
X176883390Y-29785713D02*
X176692914Y-29738094D01*
X176692914Y-29738094D02*
X176597676Y-29690475D01*
X176597676Y-29690475D02*
X176502438Y-29595237D01*
X176502438Y-29595237D02*
X176454819Y-29452380D01*
X176454819Y-29452380D02*
X176454819Y-29357142D01*
X176454819Y-29357142D02*
X176502438Y-29214285D01*
X176502438Y-29214285D02*
X176550057Y-29166666D01*
X177454819Y-28214285D02*
X177454819Y-28785713D01*
X177454819Y-28499999D02*
X176454819Y-28499999D01*
X176454819Y-28499999D02*
X176597676Y-28595237D01*
X176597676Y-28595237D02*
X176692914Y-28690475D01*
X176692914Y-28690475D02*
X176740533Y-28785713D01*
X155359580Y-59916666D02*
X155407200Y-59964285D01*
X155407200Y-59964285D02*
X155454819Y-60107142D01*
X155454819Y-60107142D02*
X155454819Y-60202380D01*
X155454819Y-60202380D02*
X155407200Y-60345237D01*
X155407200Y-60345237D02*
X155311961Y-60440475D01*
X155311961Y-60440475D02*
X155216723Y-60488094D01*
X155216723Y-60488094D02*
X155026247Y-60535713D01*
X155026247Y-60535713D02*
X154883390Y-60535713D01*
X154883390Y-60535713D02*
X154692914Y-60488094D01*
X154692914Y-60488094D02*
X154597676Y-60440475D01*
X154597676Y-60440475D02*
X154502438Y-60345237D01*
X154502438Y-60345237D02*
X154454819Y-60202380D01*
X154454819Y-60202380D02*
X154454819Y-60107142D01*
X154454819Y-60107142D02*
X154502438Y-59964285D01*
X154502438Y-59964285D02*
X154550057Y-59916666D01*
X154454819Y-59583332D02*
X154454819Y-58964285D01*
X154454819Y-58964285D02*
X154835771Y-59297618D01*
X154835771Y-59297618D02*
X154835771Y-59154761D01*
X154835771Y-59154761D02*
X154883390Y-59059523D01*
X154883390Y-59059523D02*
X154931009Y-59011904D01*
X154931009Y-59011904D02*
X155026247Y-58964285D01*
X155026247Y-58964285D02*
X155264342Y-58964285D01*
X155264342Y-58964285D02*
X155359580Y-59011904D01*
X155359580Y-59011904D02*
X155407200Y-59059523D01*
X155407200Y-59059523D02*
X155454819Y-59154761D01*
X155454819Y-59154761D02*
X155454819Y-59440475D01*
X155454819Y-59440475D02*
X155407200Y-59535713D01*
X155407200Y-59535713D02*
X155359580Y-59583332D01*
X179997580Y-63960666D02*
X180045200Y-64008285D01*
X180045200Y-64008285D02*
X180092819Y-64151142D01*
X180092819Y-64151142D02*
X180092819Y-64246380D01*
X180092819Y-64246380D02*
X180045200Y-64389237D01*
X180045200Y-64389237D02*
X179949961Y-64484475D01*
X179949961Y-64484475D02*
X179854723Y-64532094D01*
X179854723Y-64532094D02*
X179664247Y-64579713D01*
X179664247Y-64579713D02*
X179521390Y-64579713D01*
X179521390Y-64579713D02*
X179330914Y-64532094D01*
X179330914Y-64532094D02*
X179235676Y-64484475D01*
X179235676Y-64484475D02*
X179140438Y-64389237D01*
X179140438Y-64389237D02*
X179092819Y-64246380D01*
X179092819Y-64246380D02*
X179092819Y-64151142D01*
X179092819Y-64151142D02*
X179140438Y-64008285D01*
X179140438Y-64008285D02*
X179188057Y-63960666D01*
X179092819Y-63055904D02*
X179092819Y-63532094D01*
X179092819Y-63532094D02*
X179569009Y-63579713D01*
X179569009Y-63579713D02*
X179521390Y-63532094D01*
X179521390Y-63532094D02*
X179473771Y-63436856D01*
X179473771Y-63436856D02*
X179473771Y-63198761D01*
X179473771Y-63198761D02*
X179521390Y-63103523D01*
X179521390Y-63103523D02*
X179569009Y-63055904D01*
X179569009Y-63055904D02*
X179664247Y-63008285D01*
X179664247Y-63008285D02*
X179902342Y-63008285D01*
X179902342Y-63008285D02*
X179997580Y-63055904D01*
X179997580Y-63055904D02*
X180045200Y-63103523D01*
X180045200Y-63103523D02*
X180092819Y-63198761D01*
X180092819Y-63198761D02*
X180092819Y-63436856D01*
X180092819Y-63436856D02*
X180045200Y-63532094D01*
X180045200Y-63532094D02*
X179997580Y-63579713D01*
X210083333Y-64359580D02*
X210035714Y-64407200D01*
X210035714Y-64407200D02*
X209892857Y-64454819D01*
X209892857Y-64454819D02*
X209797619Y-64454819D01*
X209797619Y-64454819D02*
X209654762Y-64407200D01*
X209654762Y-64407200D02*
X209559524Y-64311961D01*
X209559524Y-64311961D02*
X209511905Y-64216723D01*
X209511905Y-64216723D02*
X209464286Y-64026247D01*
X209464286Y-64026247D02*
X209464286Y-63883390D01*
X209464286Y-63883390D02*
X209511905Y-63692914D01*
X209511905Y-63692914D02*
X209559524Y-63597676D01*
X209559524Y-63597676D02*
X209654762Y-63502438D01*
X209654762Y-63502438D02*
X209797619Y-63454819D01*
X209797619Y-63454819D02*
X209892857Y-63454819D01*
X209892857Y-63454819D02*
X210035714Y-63502438D01*
X210035714Y-63502438D02*
X210083333Y-63550057D01*
X210416667Y-63454819D02*
X211083333Y-63454819D01*
X211083333Y-63454819D02*
X210654762Y-64454819D01*
X214333333Y-64109580D02*
X214285714Y-64157200D01*
X214285714Y-64157200D02*
X214142857Y-64204819D01*
X214142857Y-64204819D02*
X214047619Y-64204819D01*
X214047619Y-64204819D02*
X213904762Y-64157200D01*
X213904762Y-64157200D02*
X213809524Y-64061961D01*
X213809524Y-64061961D02*
X213761905Y-63966723D01*
X213761905Y-63966723D02*
X213714286Y-63776247D01*
X213714286Y-63776247D02*
X213714286Y-63633390D01*
X213714286Y-63633390D02*
X213761905Y-63442914D01*
X213761905Y-63442914D02*
X213809524Y-63347676D01*
X213809524Y-63347676D02*
X213904762Y-63252438D01*
X213904762Y-63252438D02*
X214047619Y-63204819D01*
X214047619Y-63204819D02*
X214142857Y-63204819D01*
X214142857Y-63204819D02*
X214285714Y-63252438D01*
X214285714Y-63252438D02*
X214333333Y-63300057D01*
X214904762Y-63633390D02*
X214809524Y-63585771D01*
X214809524Y-63585771D02*
X214761905Y-63538152D01*
X214761905Y-63538152D02*
X214714286Y-63442914D01*
X214714286Y-63442914D02*
X214714286Y-63395295D01*
X214714286Y-63395295D02*
X214761905Y-63300057D01*
X214761905Y-63300057D02*
X214809524Y-63252438D01*
X214809524Y-63252438D02*
X214904762Y-63204819D01*
X214904762Y-63204819D02*
X215095238Y-63204819D01*
X215095238Y-63204819D02*
X215190476Y-63252438D01*
X215190476Y-63252438D02*
X215238095Y-63300057D01*
X215238095Y-63300057D02*
X215285714Y-63395295D01*
X215285714Y-63395295D02*
X215285714Y-63442914D01*
X215285714Y-63442914D02*
X215238095Y-63538152D01*
X215238095Y-63538152D02*
X215190476Y-63585771D01*
X215190476Y-63585771D02*
X215095238Y-63633390D01*
X215095238Y-63633390D02*
X214904762Y-63633390D01*
X214904762Y-63633390D02*
X214809524Y-63681009D01*
X214809524Y-63681009D02*
X214761905Y-63728628D01*
X214761905Y-63728628D02*
X214714286Y-63823866D01*
X214714286Y-63823866D02*
X214714286Y-64014342D01*
X214714286Y-64014342D02*
X214761905Y-64109580D01*
X214761905Y-64109580D02*
X214809524Y-64157200D01*
X214809524Y-64157200D02*
X214904762Y-64204819D01*
X214904762Y-64204819D02*
X215095238Y-64204819D01*
X215095238Y-64204819D02*
X215190476Y-64157200D01*
X215190476Y-64157200D02*
X215238095Y-64109580D01*
X215238095Y-64109580D02*
X215285714Y-64014342D01*
X215285714Y-64014342D02*
X215285714Y-63823866D01*
X215285714Y-63823866D02*
X215238095Y-63728628D01*
X215238095Y-63728628D02*
X215190476Y-63681009D01*
X215190476Y-63681009D02*
X215095238Y-63633390D01*
X166109580Y-60642857D02*
X166157200Y-60690476D01*
X166157200Y-60690476D02*
X166204819Y-60833333D01*
X166204819Y-60833333D02*
X166204819Y-60928571D01*
X166204819Y-60928571D02*
X166157200Y-61071428D01*
X166157200Y-61071428D02*
X166061961Y-61166666D01*
X166061961Y-61166666D02*
X165966723Y-61214285D01*
X165966723Y-61214285D02*
X165776247Y-61261904D01*
X165776247Y-61261904D02*
X165633390Y-61261904D01*
X165633390Y-61261904D02*
X165442914Y-61214285D01*
X165442914Y-61214285D02*
X165347676Y-61166666D01*
X165347676Y-61166666D02*
X165252438Y-61071428D01*
X165252438Y-61071428D02*
X165204819Y-60928571D01*
X165204819Y-60928571D02*
X165204819Y-60833333D01*
X165204819Y-60833333D02*
X165252438Y-60690476D01*
X165252438Y-60690476D02*
X165300057Y-60642857D01*
X166204819Y-59690476D02*
X166204819Y-60261904D01*
X166204819Y-59976190D02*
X165204819Y-59976190D01*
X165204819Y-59976190D02*
X165347676Y-60071428D01*
X165347676Y-60071428D02*
X165442914Y-60166666D01*
X165442914Y-60166666D02*
X165490533Y-60261904D01*
X165204819Y-59071428D02*
X165204819Y-58976190D01*
X165204819Y-58976190D02*
X165252438Y-58880952D01*
X165252438Y-58880952D02*
X165300057Y-58833333D01*
X165300057Y-58833333D02*
X165395295Y-58785714D01*
X165395295Y-58785714D02*
X165585771Y-58738095D01*
X165585771Y-58738095D02*
X165823866Y-58738095D01*
X165823866Y-58738095D02*
X166014342Y-58785714D01*
X166014342Y-58785714D02*
X166109580Y-58833333D01*
X166109580Y-58833333D02*
X166157200Y-58880952D01*
X166157200Y-58880952D02*
X166204819Y-58976190D01*
X166204819Y-58976190D02*
X166204819Y-59071428D01*
X166204819Y-59071428D02*
X166157200Y-59166666D01*
X166157200Y-59166666D02*
X166109580Y-59214285D01*
X166109580Y-59214285D02*
X166014342Y-59261904D01*
X166014342Y-59261904D02*
X165823866Y-59309523D01*
X165823866Y-59309523D02*
X165585771Y-59309523D01*
X165585771Y-59309523D02*
X165395295Y-59261904D01*
X165395295Y-59261904D02*
X165300057Y-59214285D01*
X165300057Y-59214285D02*
X165252438Y-59166666D01*
X165252438Y-59166666D02*
X165204819Y-59071428D01*
X201560480Y-32385557D02*
X201608100Y-32433176D01*
X201608100Y-32433176D02*
X201655719Y-32576033D01*
X201655719Y-32576033D02*
X201655719Y-32671271D01*
X201655719Y-32671271D02*
X201608100Y-32814128D01*
X201608100Y-32814128D02*
X201512861Y-32909366D01*
X201512861Y-32909366D02*
X201417623Y-32956985D01*
X201417623Y-32956985D02*
X201227147Y-33004604D01*
X201227147Y-33004604D02*
X201084290Y-33004604D01*
X201084290Y-33004604D02*
X200893814Y-32956985D01*
X200893814Y-32956985D02*
X200798576Y-32909366D01*
X200798576Y-32909366D02*
X200703338Y-32814128D01*
X200703338Y-32814128D02*
X200655719Y-32671271D01*
X200655719Y-32671271D02*
X200655719Y-32576033D01*
X200655719Y-32576033D02*
X200703338Y-32433176D01*
X200703338Y-32433176D02*
X200750957Y-32385557D01*
X201655719Y-31433176D02*
X201655719Y-32004604D01*
X201655719Y-31718890D02*
X200655719Y-31718890D01*
X200655719Y-31718890D02*
X200798576Y-31814128D01*
X200798576Y-31814128D02*
X200893814Y-31909366D01*
X200893814Y-31909366D02*
X200941433Y-32004604D01*
X200655719Y-31099842D02*
X200655719Y-30480795D01*
X200655719Y-30480795D02*
X201036671Y-30814128D01*
X201036671Y-30814128D02*
X201036671Y-30671271D01*
X201036671Y-30671271D02*
X201084290Y-30576033D01*
X201084290Y-30576033D02*
X201131909Y-30528414D01*
X201131909Y-30528414D02*
X201227147Y-30480795D01*
X201227147Y-30480795D02*
X201465242Y-30480795D01*
X201465242Y-30480795D02*
X201560480Y-30528414D01*
X201560480Y-30528414D02*
X201608100Y-30576033D01*
X201608100Y-30576033D02*
X201655719Y-30671271D01*
X201655719Y-30671271D02*
X201655719Y-30956985D01*
X201655719Y-30956985D02*
X201608100Y-31052223D01*
X201608100Y-31052223D02*
X201560480Y-31099842D01*
X216939905Y-94867519D02*
X216939905Y-93867519D01*
X216939905Y-93867519D02*
X217178000Y-93867519D01*
X217178000Y-93867519D02*
X217320857Y-93915138D01*
X217320857Y-93915138D02*
X217416095Y-94010376D01*
X217416095Y-94010376D02*
X217463714Y-94105614D01*
X217463714Y-94105614D02*
X217511333Y-94296090D01*
X217511333Y-94296090D02*
X217511333Y-94438947D01*
X217511333Y-94438947D02*
X217463714Y-94629423D01*
X217463714Y-94629423D02*
X217416095Y-94724661D01*
X217416095Y-94724661D02*
X217320857Y-94819900D01*
X217320857Y-94819900D02*
X217178000Y-94867519D01*
X217178000Y-94867519D02*
X216939905Y-94867519D01*
X218082762Y-94296090D02*
X217987524Y-94248471D01*
X217987524Y-94248471D02*
X217939905Y-94200852D01*
X217939905Y-94200852D02*
X217892286Y-94105614D01*
X217892286Y-94105614D02*
X217892286Y-94057995D01*
X217892286Y-94057995D02*
X217939905Y-93962757D01*
X217939905Y-93962757D02*
X217987524Y-93915138D01*
X217987524Y-93915138D02*
X218082762Y-93867519D01*
X218082762Y-93867519D02*
X218273238Y-93867519D01*
X218273238Y-93867519D02*
X218368476Y-93915138D01*
X218368476Y-93915138D02*
X218416095Y-93962757D01*
X218416095Y-93962757D02*
X218463714Y-94057995D01*
X218463714Y-94057995D02*
X218463714Y-94105614D01*
X218463714Y-94105614D02*
X218416095Y-94200852D01*
X218416095Y-94200852D02*
X218368476Y-94248471D01*
X218368476Y-94248471D02*
X218273238Y-94296090D01*
X218273238Y-94296090D02*
X218082762Y-94296090D01*
X218082762Y-94296090D02*
X217987524Y-94343709D01*
X217987524Y-94343709D02*
X217939905Y-94391328D01*
X217939905Y-94391328D02*
X217892286Y-94486566D01*
X217892286Y-94486566D02*
X217892286Y-94677042D01*
X217892286Y-94677042D02*
X217939905Y-94772280D01*
X217939905Y-94772280D02*
X217987524Y-94819900D01*
X217987524Y-94819900D02*
X218082762Y-94867519D01*
X218082762Y-94867519D02*
X218273238Y-94867519D01*
X218273238Y-94867519D02*
X218368476Y-94819900D01*
X218368476Y-94819900D02*
X218416095Y-94772280D01*
X218416095Y-94772280D02*
X218463714Y-94677042D01*
X218463714Y-94677042D02*
X218463714Y-94486566D01*
X218463714Y-94486566D02*
X218416095Y-94391328D01*
X218416095Y-94391328D02*
X218368476Y-94343709D01*
X218368476Y-94343709D02*
X218273238Y-94296090D01*
X211605905Y-94867519D02*
X211605905Y-93867519D01*
X211605905Y-93867519D02*
X211844000Y-93867519D01*
X211844000Y-93867519D02*
X211986857Y-93915138D01*
X211986857Y-93915138D02*
X212082095Y-94010376D01*
X212082095Y-94010376D02*
X212129714Y-94105614D01*
X212129714Y-94105614D02*
X212177333Y-94296090D01*
X212177333Y-94296090D02*
X212177333Y-94438947D01*
X212177333Y-94438947D02*
X212129714Y-94629423D01*
X212129714Y-94629423D02*
X212082095Y-94724661D01*
X212082095Y-94724661D02*
X211986857Y-94819900D01*
X211986857Y-94819900D02*
X211844000Y-94867519D01*
X211844000Y-94867519D02*
X211605905Y-94867519D01*
X212653524Y-94867519D02*
X212844000Y-94867519D01*
X212844000Y-94867519D02*
X212939238Y-94819900D01*
X212939238Y-94819900D02*
X212986857Y-94772280D01*
X212986857Y-94772280D02*
X213082095Y-94629423D01*
X213082095Y-94629423D02*
X213129714Y-94438947D01*
X213129714Y-94438947D02*
X213129714Y-94057995D01*
X213129714Y-94057995D02*
X213082095Y-93962757D01*
X213082095Y-93962757D02*
X213034476Y-93915138D01*
X213034476Y-93915138D02*
X212939238Y-93867519D01*
X212939238Y-93867519D02*
X212748762Y-93867519D01*
X212748762Y-93867519D02*
X212653524Y-93915138D01*
X212653524Y-93915138D02*
X212605905Y-93962757D01*
X212605905Y-93962757D02*
X212558286Y-94057995D01*
X212558286Y-94057995D02*
X212558286Y-94296090D01*
X212558286Y-94296090D02*
X212605905Y-94391328D01*
X212605905Y-94391328D02*
X212653524Y-94438947D01*
X212653524Y-94438947D02*
X212748762Y-94486566D01*
X212748762Y-94486566D02*
X212939238Y-94486566D01*
X212939238Y-94486566D02*
X213034476Y-94438947D01*
X213034476Y-94438947D02*
X213082095Y-94391328D01*
X213082095Y-94391328D02*
X213129714Y-94296090D01*
X216396666Y-50210819D02*
X216396666Y-50925104D01*
X216396666Y-50925104D02*
X216349047Y-51067961D01*
X216349047Y-51067961D02*
X216253809Y-51163200D01*
X216253809Y-51163200D02*
X216110952Y-51210819D01*
X216110952Y-51210819D02*
X216015714Y-51210819D01*
X216777619Y-50210819D02*
X217396666Y-50210819D01*
X217396666Y-50210819D02*
X217063333Y-50591771D01*
X217063333Y-50591771D02*
X217206190Y-50591771D01*
X217206190Y-50591771D02*
X217301428Y-50639390D01*
X217301428Y-50639390D02*
X217349047Y-50687009D01*
X217349047Y-50687009D02*
X217396666Y-50782247D01*
X217396666Y-50782247D02*
X217396666Y-51020342D01*
X217396666Y-51020342D02*
X217349047Y-51115580D01*
X217349047Y-51115580D02*
X217301428Y-51163200D01*
X217301428Y-51163200D02*
X217206190Y-51210819D01*
X217206190Y-51210819D02*
X216920476Y-51210819D01*
X216920476Y-51210819D02*
X216825238Y-51163200D01*
X216825238Y-51163200D02*
X216777619Y-51115580D01*
X184704819Y-70833333D02*
X185419104Y-70833333D01*
X185419104Y-70833333D02*
X185561961Y-70880952D01*
X185561961Y-70880952D02*
X185657200Y-70976190D01*
X185657200Y-70976190D02*
X185704819Y-71119047D01*
X185704819Y-71119047D02*
X185704819Y-71214285D01*
X184704819Y-70452380D02*
X184704819Y-69785714D01*
X184704819Y-69785714D02*
X185704819Y-70214285D01*
X155333333Y-56454819D02*
X154857143Y-56454819D01*
X154857143Y-56454819D02*
X154857143Y-55454819D01*
X156190476Y-56454819D02*
X155619048Y-56454819D01*
X155904762Y-56454819D02*
X155904762Y-55454819D01*
X155904762Y-55454819D02*
X155809524Y-55597676D01*
X155809524Y-55597676D02*
X155714286Y-55692914D01*
X155714286Y-55692914D02*
X155619048Y-55740533D01*
X182833333Y-38954819D02*
X182357143Y-38954819D01*
X182357143Y-38954819D02*
X182357143Y-37954819D01*
X183119048Y-38050057D02*
X183166667Y-38002438D01*
X183166667Y-38002438D02*
X183261905Y-37954819D01*
X183261905Y-37954819D02*
X183500000Y-37954819D01*
X183500000Y-37954819D02*
X183595238Y-38002438D01*
X183595238Y-38002438D02*
X183642857Y-38050057D01*
X183642857Y-38050057D02*
X183690476Y-38145295D01*
X183690476Y-38145295D02*
X183690476Y-38240533D01*
X183690476Y-38240533D02*
X183642857Y-38383390D01*
X183642857Y-38383390D02*
X183071429Y-38954819D01*
X183071429Y-38954819D02*
X183690476Y-38954819D01*
X178704819Y-36916666D02*
X178228628Y-37249999D01*
X178704819Y-37488094D02*
X177704819Y-37488094D01*
X177704819Y-37488094D02*
X177704819Y-37107142D01*
X177704819Y-37107142D02*
X177752438Y-37011904D01*
X177752438Y-37011904D02*
X177800057Y-36964285D01*
X177800057Y-36964285D02*
X177895295Y-36916666D01*
X177895295Y-36916666D02*
X178038152Y-36916666D01*
X178038152Y-36916666D02*
X178133390Y-36964285D01*
X178133390Y-36964285D02*
X178181009Y-37011904D01*
X178181009Y-37011904D02*
X178228628Y-37107142D01*
X178228628Y-37107142D02*
X178228628Y-37488094D01*
X177800057Y-36535713D02*
X177752438Y-36488094D01*
X177752438Y-36488094D02*
X177704819Y-36392856D01*
X177704819Y-36392856D02*
X177704819Y-36154761D01*
X177704819Y-36154761D02*
X177752438Y-36059523D01*
X177752438Y-36059523D02*
X177800057Y-36011904D01*
X177800057Y-36011904D02*
X177895295Y-35964285D01*
X177895295Y-35964285D02*
X177990533Y-35964285D01*
X177990533Y-35964285D02*
X178133390Y-36011904D01*
X178133390Y-36011904D02*
X178704819Y-36583332D01*
X178704819Y-36583332D02*
X178704819Y-35964285D01*
X194645619Y-45937466D02*
X194169428Y-46270799D01*
X194645619Y-46508894D02*
X193645619Y-46508894D01*
X193645619Y-46508894D02*
X193645619Y-46127942D01*
X193645619Y-46127942D02*
X193693238Y-46032704D01*
X193693238Y-46032704D02*
X193740857Y-45985085D01*
X193740857Y-45985085D02*
X193836095Y-45937466D01*
X193836095Y-45937466D02*
X193978952Y-45937466D01*
X193978952Y-45937466D02*
X194074190Y-45985085D01*
X194074190Y-45985085D02*
X194121809Y-46032704D01*
X194121809Y-46032704D02*
X194169428Y-46127942D01*
X194169428Y-46127942D02*
X194169428Y-46508894D01*
X193645619Y-45080323D02*
X193645619Y-45270799D01*
X193645619Y-45270799D02*
X193693238Y-45366037D01*
X193693238Y-45366037D02*
X193740857Y-45413656D01*
X193740857Y-45413656D02*
X193883714Y-45508894D01*
X193883714Y-45508894D02*
X194074190Y-45556513D01*
X194074190Y-45556513D02*
X194455142Y-45556513D01*
X194455142Y-45556513D02*
X194550380Y-45508894D01*
X194550380Y-45508894D02*
X194598000Y-45461275D01*
X194598000Y-45461275D02*
X194645619Y-45366037D01*
X194645619Y-45366037D02*
X194645619Y-45175561D01*
X194645619Y-45175561D02*
X194598000Y-45080323D01*
X194598000Y-45080323D02*
X194550380Y-45032704D01*
X194550380Y-45032704D02*
X194455142Y-44985085D01*
X194455142Y-44985085D02*
X194217047Y-44985085D01*
X194217047Y-44985085D02*
X194121809Y-45032704D01*
X194121809Y-45032704D02*
X194074190Y-45080323D01*
X194074190Y-45080323D02*
X194026571Y-45175561D01*
X194026571Y-45175561D02*
X194026571Y-45366037D01*
X194026571Y-45366037D02*
X194074190Y-45461275D01*
X194074190Y-45461275D02*
X194121809Y-45508894D01*
X194121809Y-45508894D02*
X194217047Y-45556513D01*
X176109333Y-73014819D02*
X175776000Y-72538628D01*
X175537905Y-73014819D02*
X175537905Y-72014819D01*
X175537905Y-72014819D02*
X175918857Y-72014819D01*
X175918857Y-72014819D02*
X176014095Y-72062438D01*
X176014095Y-72062438D02*
X176061714Y-72110057D01*
X176061714Y-72110057D02*
X176109333Y-72205295D01*
X176109333Y-72205295D02*
X176109333Y-72348152D01*
X176109333Y-72348152D02*
X176061714Y-72443390D01*
X176061714Y-72443390D02*
X176014095Y-72491009D01*
X176014095Y-72491009D02*
X175918857Y-72538628D01*
X175918857Y-72538628D02*
X175537905Y-72538628D01*
X176442667Y-72014819D02*
X177109333Y-72014819D01*
X177109333Y-72014819D02*
X176680762Y-73014819D01*
X183286495Y-52140319D02*
X183286495Y-52949842D01*
X183286495Y-52949842D02*
X183334114Y-53045080D01*
X183334114Y-53045080D02*
X183381733Y-53092700D01*
X183381733Y-53092700D02*
X183476971Y-53140319D01*
X183476971Y-53140319D02*
X183667447Y-53140319D01*
X183667447Y-53140319D02*
X183762685Y-53092700D01*
X183762685Y-53092700D02*
X183810304Y-53045080D01*
X183810304Y-53045080D02*
X183857923Y-52949842D01*
X183857923Y-52949842D02*
X183857923Y-52140319D01*
X184238876Y-52140319D02*
X184857923Y-52140319D01*
X184857923Y-52140319D02*
X184524590Y-52521271D01*
X184524590Y-52521271D02*
X184667447Y-52521271D01*
X184667447Y-52521271D02*
X184762685Y-52568890D01*
X184762685Y-52568890D02*
X184810304Y-52616509D01*
X184810304Y-52616509D02*
X184857923Y-52711747D01*
X184857923Y-52711747D02*
X184857923Y-52949842D01*
X184857923Y-52949842D02*
X184810304Y-53045080D01*
X184810304Y-53045080D02*
X184762685Y-53092700D01*
X184762685Y-53092700D02*
X184667447Y-53140319D01*
X184667447Y-53140319D02*
X184381733Y-53140319D01*
X184381733Y-53140319D02*
X184286495Y-53092700D01*
X184286495Y-53092700D02*
X184238876Y-53045080D01*
X205273809Y-69478628D02*
X205273809Y-69954819D01*
X204940476Y-68954819D02*
X205273809Y-69478628D01*
X205273809Y-69478628D02*
X205607142Y-68954819D01*
X205892857Y-69050057D02*
X205940476Y-69002438D01*
X205940476Y-69002438D02*
X206035714Y-68954819D01*
X206035714Y-68954819D02*
X206273809Y-68954819D01*
X206273809Y-68954819D02*
X206369047Y-69002438D01*
X206369047Y-69002438D02*
X206416666Y-69050057D01*
X206416666Y-69050057D02*
X206464285Y-69145295D01*
X206464285Y-69145295D02*
X206464285Y-69240533D01*
X206464285Y-69240533D02*
X206416666Y-69383390D01*
X206416666Y-69383390D02*
X205845238Y-69954819D01*
X205845238Y-69954819D02*
X206464285Y-69954819D01*
X205404819Y-39965238D02*
X204928628Y-40298571D01*
X205404819Y-40536666D02*
X204404819Y-40536666D01*
X204404819Y-40536666D02*
X204404819Y-40155714D01*
X204404819Y-40155714D02*
X204452438Y-40060476D01*
X204452438Y-40060476D02*
X204500057Y-40012857D01*
X204500057Y-40012857D02*
X204595295Y-39965238D01*
X204595295Y-39965238D02*
X204738152Y-39965238D01*
X204738152Y-39965238D02*
X204833390Y-40012857D01*
X204833390Y-40012857D02*
X204881009Y-40060476D01*
X204881009Y-40060476D02*
X204928628Y-40155714D01*
X204928628Y-40155714D02*
X204928628Y-40536666D01*
X204404819Y-39679523D02*
X205404819Y-39346190D01*
X205404819Y-39346190D02*
X204404819Y-39012857D01*
X205404819Y-38155714D02*
X205404819Y-38727142D01*
X205404819Y-38441428D02*
X204404819Y-38441428D01*
X204404819Y-38441428D02*
X204547676Y-38536666D01*
X204547676Y-38536666D02*
X204642914Y-38631904D01*
X204642914Y-38631904D02*
X204690533Y-38727142D01*
X209700919Y-95447233D02*
X210415204Y-95447233D01*
X210415204Y-95447233D02*
X210558061Y-95494852D01*
X210558061Y-95494852D02*
X210653300Y-95590090D01*
X210653300Y-95590090D02*
X210700919Y-95732947D01*
X210700919Y-95732947D02*
X210700919Y-95828185D01*
X210034252Y-94542471D02*
X210700919Y-94542471D01*
X209653300Y-94780566D02*
X210367585Y-95018661D01*
X210367585Y-95018661D02*
X210367585Y-94399614D01*
X160816666Y-29231009D02*
X160483333Y-29231009D01*
X160483333Y-29754819D02*
X160483333Y-28754819D01*
X160483333Y-28754819D02*
X160959523Y-28754819D01*
X161864285Y-29754819D02*
X161292857Y-29754819D01*
X161578571Y-29754819D02*
X161578571Y-28754819D01*
X161578571Y-28754819D02*
X161483333Y-28897676D01*
X161483333Y-28897676D02*
X161388095Y-28992914D01*
X161388095Y-28992914D02*
X161292857Y-29040533D01*
X161666666Y-26954819D02*
X161666666Y-27669104D01*
X161666666Y-27669104D02*
X161619047Y-27811961D01*
X161619047Y-27811961D02*
X161523809Y-27907200D01*
X161523809Y-27907200D02*
X161380952Y-27954819D01*
X161380952Y-27954819D02*
X161285714Y-27954819D01*
X162666666Y-27954819D02*
X162095238Y-27954819D01*
X162380952Y-27954819D02*
X162380952Y-26954819D01*
X162380952Y-26954819D02*
X162285714Y-27097676D01*
X162285714Y-27097676D02*
X162190476Y-27192914D01*
X162190476Y-27192914D02*
X162095238Y-27240533D01*
X209666666Y-25954819D02*
X209666666Y-26669104D01*
X209666666Y-26669104D02*
X209619047Y-26811961D01*
X209619047Y-26811961D02*
X209523809Y-26907200D01*
X209523809Y-26907200D02*
X209380952Y-26954819D01*
X209380952Y-26954819D02*
X209285714Y-26954819D01*
X210095238Y-26050057D02*
X210142857Y-26002438D01*
X210142857Y-26002438D02*
X210238095Y-25954819D01*
X210238095Y-25954819D02*
X210476190Y-25954819D01*
X210476190Y-25954819D02*
X210571428Y-26002438D01*
X210571428Y-26002438D02*
X210619047Y-26050057D01*
X210619047Y-26050057D02*
X210666666Y-26145295D01*
X210666666Y-26145295D02*
X210666666Y-26240533D01*
X210666666Y-26240533D02*
X210619047Y-26383390D01*
X210619047Y-26383390D02*
X210047619Y-26954819D01*
X210047619Y-26954819D02*
X210666666Y-26954819D01*
X160981905Y-38874819D02*
X160981905Y-37874819D01*
X160981905Y-37874819D02*
X161220000Y-37874819D01*
X161220000Y-37874819D02*
X161362857Y-37922438D01*
X161362857Y-37922438D02*
X161458095Y-38017676D01*
X161458095Y-38017676D02*
X161505714Y-38112914D01*
X161505714Y-38112914D02*
X161553333Y-38303390D01*
X161553333Y-38303390D02*
X161553333Y-38446247D01*
X161553333Y-38446247D02*
X161505714Y-38636723D01*
X161505714Y-38636723D02*
X161458095Y-38731961D01*
X161458095Y-38731961D02*
X161362857Y-38827200D01*
X161362857Y-38827200D02*
X161220000Y-38874819D01*
X161220000Y-38874819D02*
X160981905Y-38874819D01*
X162505714Y-38874819D02*
X161934286Y-38874819D01*
X162220000Y-38874819D02*
X162220000Y-37874819D01*
X162220000Y-37874819D02*
X162124762Y-38017676D01*
X162124762Y-38017676D02*
X162029524Y-38112914D01*
X162029524Y-38112914D02*
X161934286Y-38160533D01*
X166538095Y-38504819D02*
X166538095Y-37504819D01*
X167109523Y-38504819D02*
X166680952Y-37933390D01*
X167109523Y-37504819D02*
X166538095Y-38076247D01*
X170454819Y-36996666D02*
X169978628Y-37329999D01*
X170454819Y-37568094D02*
X169454819Y-37568094D01*
X169454819Y-37568094D02*
X169454819Y-37187142D01*
X169454819Y-37187142D02*
X169502438Y-37091904D01*
X169502438Y-37091904D02*
X169550057Y-37044285D01*
X169550057Y-37044285D02*
X169645295Y-36996666D01*
X169645295Y-36996666D02*
X169788152Y-36996666D01*
X169788152Y-36996666D02*
X169883390Y-37044285D01*
X169883390Y-37044285D02*
X169931009Y-37091904D01*
X169931009Y-37091904D02*
X169978628Y-37187142D01*
X169978628Y-37187142D02*
X169978628Y-37568094D01*
X170454819Y-36044285D02*
X170454819Y-36615713D01*
X170454819Y-36329999D02*
X169454819Y-36329999D01*
X169454819Y-36329999D02*
X169597676Y-36425237D01*
X169597676Y-36425237D02*
X169692914Y-36520475D01*
X169692914Y-36520475D02*
X169740533Y-36615713D01*
X193749628Y-62606190D02*
X194225819Y-62606190D01*
X193225819Y-62939523D02*
X193749628Y-62606190D01*
X193749628Y-62606190D02*
X193225819Y-62272857D01*
X194225819Y-61415714D02*
X194225819Y-61987142D01*
X194225819Y-61701428D02*
X193225819Y-61701428D01*
X193225819Y-61701428D02*
X193368676Y-61796666D01*
X193368676Y-61796666D02*
X193463914Y-61891904D01*
X193463914Y-61891904D02*
X193511533Y-61987142D01*
X165878819Y-48738094D02*
X164878819Y-48738094D01*
X164878819Y-48738094D02*
X164878819Y-48499999D01*
X164878819Y-48499999D02*
X164926438Y-48357142D01*
X164926438Y-48357142D02*
X165021676Y-48261904D01*
X165021676Y-48261904D02*
X165116914Y-48214285D01*
X165116914Y-48214285D02*
X165307390Y-48166666D01*
X165307390Y-48166666D02*
X165450247Y-48166666D01*
X165450247Y-48166666D02*
X165640723Y-48214285D01*
X165640723Y-48214285D02*
X165735961Y-48261904D01*
X165735961Y-48261904D02*
X165831200Y-48357142D01*
X165831200Y-48357142D02*
X165878819Y-48499999D01*
X165878819Y-48499999D02*
X165878819Y-48738094D01*
X164974057Y-47785713D02*
X164926438Y-47738094D01*
X164926438Y-47738094D02*
X164878819Y-47642856D01*
X164878819Y-47642856D02*
X164878819Y-47404761D01*
X164878819Y-47404761D02*
X164926438Y-47309523D01*
X164926438Y-47309523D02*
X164974057Y-47261904D01*
X164974057Y-47261904D02*
X165069295Y-47214285D01*
X165069295Y-47214285D02*
X165164533Y-47214285D01*
X165164533Y-47214285D02*
X165307390Y-47261904D01*
X165307390Y-47261904D02*
X165878819Y-47833332D01*
X165878819Y-47833332D02*
X165878819Y-47214285D01*
X166248819Y-50299904D02*
X165248819Y-50299904D01*
X166248819Y-49728476D02*
X165677390Y-50157047D01*
X165248819Y-49728476D02*
X165820247Y-50299904D01*
X163666666Y-91704819D02*
X163666666Y-92419104D01*
X163666666Y-92419104D02*
X163619047Y-92561961D01*
X163619047Y-92561961D02*
X163523809Y-92657200D01*
X163523809Y-92657200D02*
X163380952Y-92704819D01*
X163380952Y-92704819D02*
X163285714Y-92704819D01*
X164619047Y-91704819D02*
X164142857Y-91704819D01*
X164142857Y-91704819D02*
X164095238Y-92181009D01*
X164095238Y-92181009D02*
X164142857Y-92133390D01*
X164142857Y-92133390D02*
X164238095Y-92085771D01*
X164238095Y-92085771D02*
X164476190Y-92085771D01*
X164476190Y-92085771D02*
X164571428Y-92133390D01*
X164571428Y-92133390D02*
X164619047Y-92181009D01*
X164619047Y-92181009D02*
X164666666Y-92276247D01*
X164666666Y-92276247D02*
X164666666Y-92514342D01*
X164666666Y-92514342D02*
X164619047Y-92609580D01*
X164619047Y-92609580D02*
X164571428Y-92657200D01*
X164571428Y-92657200D02*
X164476190Y-92704819D01*
X164476190Y-92704819D02*
X164238095Y-92704819D01*
X164238095Y-92704819D02*
X164142857Y-92657200D01*
X164142857Y-92657200D02*
X164095238Y-92609580D01*
X168511905Y-92204819D02*
X168511905Y-91204819D01*
X168511905Y-91204819D02*
X168750000Y-91204819D01*
X168750000Y-91204819D02*
X168892857Y-91252438D01*
X168892857Y-91252438D02*
X168988095Y-91347676D01*
X168988095Y-91347676D02*
X169035714Y-91442914D01*
X169035714Y-91442914D02*
X169083333Y-91633390D01*
X169083333Y-91633390D02*
X169083333Y-91776247D01*
X169083333Y-91776247D02*
X169035714Y-91966723D01*
X169035714Y-91966723D02*
X168988095Y-92061961D01*
X168988095Y-92061961D02*
X168892857Y-92157200D01*
X168892857Y-92157200D02*
X168750000Y-92204819D01*
X168750000Y-92204819D02*
X168511905Y-92204819D01*
X169940476Y-91538152D02*
X169940476Y-92204819D01*
X169702381Y-91157200D02*
X169464286Y-91871485D01*
X169464286Y-91871485D02*
X170083333Y-91871485D01*
X167327295Y-87953319D02*
X167327295Y-86953319D01*
X167898723Y-87953319D02*
X167470152Y-87381890D01*
X167898723Y-86953319D02*
X167327295Y-87524747D01*
X185511905Y-96454819D02*
X185511905Y-95454819D01*
X185511905Y-95454819D02*
X185750000Y-95454819D01*
X185750000Y-95454819D02*
X185892857Y-95502438D01*
X185892857Y-95502438D02*
X185988095Y-95597676D01*
X185988095Y-95597676D02*
X186035714Y-95692914D01*
X186035714Y-95692914D02*
X186083333Y-95883390D01*
X186083333Y-95883390D02*
X186083333Y-96026247D01*
X186083333Y-96026247D02*
X186035714Y-96216723D01*
X186035714Y-96216723D02*
X185988095Y-96311961D01*
X185988095Y-96311961D02*
X185892857Y-96407200D01*
X185892857Y-96407200D02*
X185750000Y-96454819D01*
X185750000Y-96454819D02*
X185511905Y-96454819D01*
X186416667Y-95454819D02*
X187083333Y-95454819D01*
X187083333Y-95454819D02*
X186654762Y-96454819D01*
X180573395Y-91712519D02*
X180573395Y-90712519D01*
X181144823Y-91712519D02*
X180716252Y-91141090D01*
X181144823Y-90712519D02*
X180573395Y-91283947D01*
X182011905Y-91704819D02*
X182011905Y-90704819D01*
X182011905Y-90704819D02*
X182250000Y-90704819D01*
X182250000Y-90704819D02*
X182392857Y-90752438D01*
X182392857Y-90752438D02*
X182488095Y-90847676D01*
X182488095Y-90847676D02*
X182535714Y-90942914D01*
X182535714Y-90942914D02*
X182583333Y-91133390D01*
X182583333Y-91133390D02*
X182583333Y-91276247D01*
X182583333Y-91276247D02*
X182535714Y-91466723D01*
X182535714Y-91466723D02*
X182488095Y-91561961D01*
X182488095Y-91561961D02*
X182392857Y-91657200D01*
X182392857Y-91657200D02*
X182250000Y-91704819D01*
X182250000Y-91704819D02*
X182011905Y-91704819D01*
X183488095Y-90704819D02*
X183011905Y-90704819D01*
X183011905Y-90704819D02*
X182964286Y-91181009D01*
X182964286Y-91181009D02*
X183011905Y-91133390D01*
X183011905Y-91133390D02*
X183107143Y-91085771D01*
X183107143Y-91085771D02*
X183345238Y-91085771D01*
X183345238Y-91085771D02*
X183440476Y-91133390D01*
X183440476Y-91133390D02*
X183488095Y-91181009D01*
X183488095Y-91181009D02*
X183535714Y-91276247D01*
X183535714Y-91276247D02*
X183535714Y-91514342D01*
X183535714Y-91514342D02*
X183488095Y-91609580D01*
X183488095Y-91609580D02*
X183440476Y-91657200D01*
X183440476Y-91657200D02*
X183345238Y-91704819D01*
X183345238Y-91704819D02*
X183107143Y-91704819D01*
X183107143Y-91704819D02*
X183011905Y-91657200D01*
X183011905Y-91657200D02*
X182964286Y-91609580D01*
X180636895Y-87978719D02*
X180636895Y-86978719D01*
X181208323Y-87978719D02*
X180779752Y-87407290D01*
X181208323Y-86978719D02*
X180636895Y-87550147D01*
X168761905Y-87954819D02*
X168761905Y-86954819D01*
X168761905Y-86954819D02*
X169000000Y-86954819D01*
X169000000Y-86954819D02*
X169142857Y-87002438D01*
X169142857Y-87002438D02*
X169238095Y-87097676D01*
X169238095Y-87097676D02*
X169285714Y-87192914D01*
X169285714Y-87192914D02*
X169333333Y-87383390D01*
X169333333Y-87383390D02*
X169333333Y-87526247D01*
X169333333Y-87526247D02*
X169285714Y-87716723D01*
X169285714Y-87716723D02*
X169238095Y-87811961D01*
X169238095Y-87811961D02*
X169142857Y-87907200D01*
X169142857Y-87907200D02*
X169000000Y-87954819D01*
X169000000Y-87954819D02*
X168761905Y-87954819D01*
X169666667Y-86954819D02*
X170285714Y-86954819D01*
X170285714Y-86954819D02*
X169952381Y-87335771D01*
X169952381Y-87335771D02*
X170095238Y-87335771D01*
X170095238Y-87335771D02*
X170190476Y-87383390D01*
X170190476Y-87383390D02*
X170238095Y-87431009D01*
X170238095Y-87431009D02*
X170285714Y-87526247D01*
X170285714Y-87526247D02*
X170285714Y-87764342D01*
X170285714Y-87764342D02*
X170238095Y-87859580D01*
X170238095Y-87859580D02*
X170190476Y-87907200D01*
X170190476Y-87907200D02*
X170095238Y-87954819D01*
X170095238Y-87954819D02*
X169809524Y-87954819D01*
X169809524Y-87954819D02*
X169714286Y-87907200D01*
X169714286Y-87907200D02*
X169666667Y-87859580D01*
X167327295Y-84448119D02*
X167327295Y-83448119D01*
X167898723Y-84448119D02*
X167470152Y-83876690D01*
X167898723Y-83448119D02*
X167327295Y-84019547D01*
X173791714Y-80376819D02*
X173791714Y-79376819D01*
X173791714Y-79376819D02*
X174029809Y-79376819D01*
X174029809Y-79376819D02*
X174172666Y-79424438D01*
X174172666Y-79424438D02*
X174267904Y-79519676D01*
X174267904Y-79519676D02*
X174315523Y-79614914D01*
X174315523Y-79614914D02*
X174363142Y-79805390D01*
X174363142Y-79805390D02*
X174363142Y-79948247D01*
X174363142Y-79948247D02*
X174315523Y-80138723D01*
X174315523Y-80138723D02*
X174267904Y-80233961D01*
X174267904Y-80233961D02*
X174172666Y-80329200D01*
X174172666Y-80329200D02*
X174029809Y-80376819D01*
X174029809Y-80376819D02*
X173791714Y-80376819D01*
X175315523Y-80376819D02*
X174744095Y-80376819D01*
X175029809Y-80376819D02*
X175029809Y-79376819D01*
X175029809Y-79376819D02*
X174934571Y-79519676D01*
X174934571Y-79519676D02*
X174839333Y-79614914D01*
X174839333Y-79614914D02*
X174744095Y-79662533D01*
X175934571Y-79376819D02*
X176029809Y-79376819D01*
X176029809Y-79376819D02*
X176125047Y-79424438D01*
X176125047Y-79424438D02*
X176172666Y-79472057D01*
X176172666Y-79472057D02*
X176220285Y-79567295D01*
X176220285Y-79567295D02*
X176267904Y-79757771D01*
X176267904Y-79757771D02*
X176267904Y-79995866D01*
X176267904Y-79995866D02*
X176220285Y-80186342D01*
X176220285Y-80186342D02*
X176172666Y-80281580D01*
X176172666Y-80281580D02*
X176125047Y-80329200D01*
X176125047Y-80329200D02*
X176029809Y-80376819D01*
X176029809Y-80376819D02*
X175934571Y-80376819D01*
X175934571Y-80376819D02*
X175839333Y-80329200D01*
X175839333Y-80329200D02*
X175791714Y-80281580D01*
X175791714Y-80281580D02*
X175744095Y-80186342D01*
X175744095Y-80186342D02*
X175696476Y-79995866D01*
X175696476Y-79995866D02*
X175696476Y-79757771D01*
X175696476Y-79757771D02*
X175744095Y-79567295D01*
X175744095Y-79567295D02*
X175791714Y-79472057D01*
X175791714Y-79472057D02*
X175839333Y-79424438D01*
X175839333Y-79424438D02*
X175934571Y-79376819D01*
X170934095Y-80696819D02*
X170934095Y-79696819D01*
X171505523Y-80696819D02*
X171076952Y-80125390D01*
X171505523Y-79696819D02*
X170934095Y-80268247D01*
X174097333Y-52115580D02*
X174049714Y-52163200D01*
X174049714Y-52163200D02*
X173906857Y-52210819D01*
X173906857Y-52210819D02*
X173811619Y-52210819D01*
X173811619Y-52210819D02*
X173668762Y-52163200D01*
X173668762Y-52163200D02*
X173573524Y-52067961D01*
X173573524Y-52067961D02*
X173525905Y-51972723D01*
X173525905Y-51972723D02*
X173478286Y-51782247D01*
X173478286Y-51782247D02*
X173478286Y-51639390D01*
X173478286Y-51639390D02*
X173525905Y-51448914D01*
X173525905Y-51448914D02*
X173573524Y-51353676D01*
X173573524Y-51353676D02*
X173668762Y-51258438D01*
X173668762Y-51258438D02*
X173811619Y-51210819D01*
X173811619Y-51210819D02*
X173906857Y-51210819D01*
X173906857Y-51210819D02*
X174049714Y-51258438D01*
X174049714Y-51258438D02*
X174097333Y-51306057D01*
X174954476Y-51544152D02*
X174954476Y-52210819D01*
X174716381Y-51163200D02*
X174478286Y-51877485D01*
X174478286Y-51877485D02*
X175097333Y-51877485D01*
X183709333Y-55513580D02*
X183661714Y-55561200D01*
X183661714Y-55561200D02*
X183518857Y-55608819D01*
X183518857Y-55608819D02*
X183423619Y-55608819D01*
X183423619Y-55608819D02*
X183280762Y-55561200D01*
X183280762Y-55561200D02*
X183185524Y-55465961D01*
X183185524Y-55465961D02*
X183137905Y-55370723D01*
X183137905Y-55370723D02*
X183090286Y-55180247D01*
X183090286Y-55180247D02*
X183090286Y-55037390D01*
X183090286Y-55037390D02*
X183137905Y-54846914D01*
X183137905Y-54846914D02*
X183185524Y-54751676D01*
X183185524Y-54751676D02*
X183280762Y-54656438D01*
X183280762Y-54656438D02*
X183423619Y-54608819D01*
X183423619Y-54608819D02*
X183518857Y-54608819D01*
X183518857Y-54608819D02*
X183661714Y-54656438D01*
X183661714Y-54656438D02*
X183709333Y-54704057D01*
X184566476Y-54608819D02*
X184376000Y-54608819D01*
X184376000Y-54608819D02*
X184280762Y-54656438D01*
X184280762Y-54656438D02*
X184233143Y-54704057D01*
X184233143Y-54704057D02*
X184137905Y-54846914D01*
X184137905Y-54846914D02*
X184090286Y-55037390D01*
X184090286Y-55037390D02*
X184090286Y-55418342D01*
X184090286Y-55418342D02*
X184137905Y-55513580D01*
X184137905Y-55513580D02*
X184185524Y-55561200D01*
X184185524Y-55561200D02*
X184280762Y-55608819D01*
X184280762Y-55608819D02*
X184471238Y-55608819D01*
X184471238Y-55608819D02*
X184566476Y-55561200D01*
X184566476Y-55561200D02*
X184614095Y-55513580D01*
X184614095Y-55513580D02*
X184661714Y-55418342D01*
X184661714Y-55418342D02*
X184661714Y-55180247D01*
X184661714Y-55180247D02*
X184614095Y-55085009D01*
X184614095Y-55085009D02*
X184566476Y-55037390D01*
X184566476Y-55037390D02*
X184471238Y-54989771D01*
X184471238Y-54989771D02*
X184280762Y-54989771D01*
X184280762Y-54989771D02*
X184185524Y-55037390D01*
X184185524Y-55037390D02*
X184137905Y-55085009D01*
X184137905Y-55085009D02*
X184090286Y-55180247D01*
X216346666Y-27984819D02*
X216346666Y-28699104D01*
X216346666Y-28699104D02*
X216299047Y-28841961D01*
X216299047Y-28841961D02*
X216203809Y-28937200D01*
X216203809Y-28937200D02*
X216060952Y-28984819D01*
X216060952Y-28984819D02*
X215965714Y-28984819D01*
X217251428Y-27984819D02*
X217060952Y-27984819D01*
X217060952Y-27984819D02*
X216965714Y-28032438D01*
X216965714Y-28032438D02*
X216918095Y-28080057D01*
X216918095Y-28080057D02*
X216822857Y-28222914D01*
X216822857Y-28222914D02*
X216775238Y-28413390D01*
X216775238Y-28413390D02*
X216775238Y-28794342D01*
X216775238Y-28794342D02*
X216822857Y-28889580D01*
X216822857Y-28889580D02*
X216870476Y-28937200D01*
X216870476Y-28937200D02*
X216965714Y-28984819D01*
X216965714Y-28984819D02*
X217156190Y-28984819D01*
X217156190Y-28984819D02*
X217251428Y-28937200D01*
X217251428Y-28937200D02*
X217299047Y-28889580D01*
X217299047Y-28889580D02*
X217346666Y-28794342D01*
X217346666Y-28794342D02*
X217346666Y-28556247D01*
X217346666Y-28556247D02*
X217299047Y-28461009D01*
X217299047Y-28461009D02*
X217251428Y-28413390D01*
X217251428Y-28413390D02*
X217156190Y-28365771D01*
X217156190Y-28365771D02*
X216965714Y-28365771D01*
X216965714Y-28365771D02*
X216870476Y-28413390D01*
X216870476Y-28413390D02*
X216822857Y-28461009D01*
X216822857Y-28461009D02*
X216775238Y-28556247D01*
X205454819Y-79916666D02*
X204978628Y-80249999D01*
X205454819Y-80488094D02*
X204454819Y-80488094D01*
X204454819Y-80488094D02*
X204454819Y-80107142D01*
X204454819Y-80107142D02*
X204502438Y-80011904D01*
X204502438Y-80011904D02*
X204550057Y-79964285D01*
X204550057Y-79964285D02*
X204645295Y-79916666D01*
X204645295Y-79916666D02*
X204788152Y-79916666D01*
X204788152Y-79916666D02*
X204883390Y-79964285D01*
X204883390Y-79964285D02*
X204931009Y-80011904D01*
X204931009Y-80011904D02*
X204978628Y-80107142D01*
X204978628Y-80107142D02*
X204978628Y-80488094D01*
X204454819Y-79583332D02*
X204454819Y-78964285D01*
X204454819Y-78964285D02*
X204835771Y-79297618D01*
X204835771Y-79297618D02*
X204835771Y-79154761D01*
X204835771Y-79154761D02*
X204883390Y-79059523D01*
X204883390Y-79059523D02*
X204931009Y-79011904D01*
X204931009Y-79011904D02*
X205026247Y-78964285D01*
X205026247Y-78964285D02*
X205264342Y-78964285D01*
X205264342Y-78964285D02*
X205359580Y-79011904D01*
X205359580Y-79011904D02*
X205407200Y-79059523D01*
X205407200Y-79059523D02*
X205454819Y-79154761D01*
X205454819Y-79154761D02*
X205454819Y-79440475D01*
X205454819Y-79440475D02*
X205407200Y-79535713D01*
X205407200Y-79535713D02*
X205359580Y-79583332D01*
X182011905Y-87704819D02*
X182011905Y-86704819D01*
X182011905Y-86704819D02*
X182250000Y-86704819D01*
X182250000Y-86704819D02*
X182392857Y-86752438D01*
X182392857Y-86752438D02*
X182488095Y-86847676D01*
X182488095Y-86847676D02*
X182535714Y-86942914D01*
X182535714Y-86942914D02*
X182583333Y-87133390D01*
X182583333Y-87133390D02*
X182583333Y-87276247D01*
X182583333Y-87276247D02*
X182535714Y-87466723D01*
X182535714Y-87466723D02*
X182488095Y-87561961D01*
X182488095Y-87561961D02*
X182392857Y-87657200D01*
X182392857Y-87657200D02*
X182250000Y-87704819D01*
X182250000Y-87704819D02*
X182011905Y-87704819D01*
X183440476Y-86704819D02*
X183250000Y-86704819D01*
X183250000Y-86704819D02*
X183154762Y-86752438D01*
X183154762Y-86752438D02*
X183107143Y-86800057D01*
X183107143Y-86800057D02*
X183011905Y-86942914D01*
X183011905Y-86942914D02*
X182964286Y-87133390D01*
X182964286Y-87133390D02*
X182964286Y-87514342D01*
X182964286Y-87514342D02*
X183011905Y-87609580D01*
X183011905Y-87609580D02*
X183059524Y-87657200D01*
X183059524Y-87657200D02*
X183154762Y-87704819D01*
X183154762Y-87704819D02*
X183345238Y-87704819D01*
X183345238Y-87704819D02*
X183440476Y-87657200D01*
X183440476Y-87657200D02*
X183488095Y-87609580D01*
X183488095Y-87609580D02*
X183535714Y-87514342D01*
X183535714Y-87514342D02*
X183535714Y-87276247D01*
X183535714Y-87276247D02*
X183488095Y-87181009D01*
X183488095Y-87181009D02*
X183440476Y-87133390D01*
X183440476Y-87133390D02*
X183345238Y-87085771D01*
X183345238Y-87085771D02*
X183154762Y-87085771D01*
X183154762Y-87085771D02*
X183059524Y-87133390D01*
X183059524Y-87133390D02*
X183011905Y-87181009D01*
X183011905Y-87181009D02*
X182964286Y-87276247D01*
X180662295Y-84460819D02*
X180662295Y-83460819D01*
X181233723Y-84460819D02*
X180805152Y-83889390D01*
X181233723Y-83460819D02*
X180662295Y-84032247D01*
X212333333Y-86204819D02*
X212000000Y-85728628D01*
X211761905Y-86204819D02*
X211761905Y-85204819D01*
X211761905Y-85204819D02*
X212142857Y-85204819D01*
X212142857Y-85204819D02*
X212238095Y-85252438D01*
X212238095Y-85252438D02*
X212285714Y-85300057D01*
X212285714Y-85300057D02*
X212333333Y-85395295D01*
X212333333Y-85395295D02*
X212333333Y-85538152D01*
X212333333Y-85538152D02*
X212285714Y-85633390D01*
X212285714Y-85633390D02*
X212238095Y-85681009D01*
X212238095Y-85681009D02*
X212142857Y-85728628D01*
X212142857Y-85728628D02*
X211761905Y-85728628D01*
X213190476Y-85538152D02*
X213190476Y-86204819D01*
X212952381Y-85157200D02*
X212714286Y-85871485D01*
X212714286Y-85871485D02*
X213333333Y-85871485D01*
X217583333Y-86204819D02*
X217250000Y-85728628D01*
X217011905Y-86204819D02*
X217011905Y-85204819D01*
X217011905Y-85204819D02*
X217392857Y-85204819D01*
X217392857Y-85204819D02*
X217488095Y-85252438D01*
X217488095Y-85252438D02*
X217535714Y-85300057D01*
X217535714Y-85300057D02*
X217583333Y-85395295D01*
X217583333Y-85395295D02*
X217583333Y-85538152D01*
X217583333Y-85538152D02*
X217535714Y-85633390D01*
X217535714Y-85633390D02*
X217488095Y-85681009D01*
X217488095Y-85681009D02*
X217392857Y-85728628D01*
X217392857Y-85728628D02*
X217011905Y-85728628D01*
X218488095Y-85204819D02*
X218011905Y-85204819D01*
X218011905Y-85204819D02*
X217964286Y-85681009D01*
X217964286Y-85681009D02*
X218011905Y-85633390D01*
X218011905Y-85633390D02*
X218107143Y-85585771D01*
X218107143Y-85585771D02*
X218345238Y-85585771D01*
X218345238Y-85585771D02*
X218440476Y-85633390D01*
X218440476Y-85633390D02*
X218488095Y-85681009D01*
X218488095Y-85681009D02*
X218535714Y-85776247D01*
X218535714Y-85776247D02*
X218535714Y-86014342D01*
X218535714Y-86014342D02*
X218488095Y-86109580D01*
X218488095Y-86109580D02*
X218440476Y-86157200D01*
X218440476Y-86157200D02*
X218345238Y-86204819D01*
X218345238Y-86204819D02*
X218107143Y-86204819D01*
X218107143Y-86204819D02*
X218011905Y-86157200D01*
X218011905Y-86157200D02*
X217964286Y-86109580D01*
X170227333Y-50973580D02*
X170179714Y-51021200D01*
X170179714Y-51021200D02*
X170036857Y-51068819D01*
X170036857Y-51068819D02*
X169941619Y-51068819D01*
X169941619Y-51068819D02*
X169798762Y-51021200D01*
X169798762Y-51021200D02*
X169703524Y-50925961D01*
X169703524Y-50925961D02*
X169655905Y-50830723D01*
X169655905Y-50830723D02*
X169608286Y-50640247D01*
X169608286Y-50640247D02*
X169608286Y-50497390D01*
X169608286Y-50497390D02*
X169655905Y-50306914D01*
X169655905Y-50306914D02*
X169703524Y-50211676D01*
X169703524Y-50211676D02*
X169798762Y-50116438D01*
X169798762Y-50116438D02*
X169941619Y-50068819D01*
X169941619Y-50068819D02*
X170036857Y-50068819D01*
X170036857Y-50068819D02*
X170179714Y-50116438D01*
X170179714Y-50116438D02*
X170227333Y-50164057D01*
X170608286Y-50164057D02*
X170655905Y-50116438D01*
X170655905Y-50116438D02*
X170751143Y-50068819D01*
X170751143Y-50068819D02*
X170989238Y-50068819D01*
X170989238Y-50068819D02*
X171084476Y-50116438D01*
X171084476Y-50116438D02*
X171132095Y-50164057D01*
X171132095Y-50164057D02*
X171179714Y-50259295D01*
X171179714Y-50259295D02*
X171179714Y-50354533D01*
X171179714Y-50354533D02*
X171132095Y-50497390D01*
X171132095Y-50497390D02*
X170560667Y-51068819D01*
X170560667Y-51068819D02*
X171179714Y-51068819D01*
X185583333Y-83359580D02*
X185535714Y-83407200D01*
X185535714Y-83407200D02*
X185392857Y-83454819D01*
X185392857Y-83454819D02*
X185297619Y-83454819D01*
X185297619Y-83454819D02*
X185154762Y-83407200D01*
X185154762Y-83407200D02*
X185059524Y-83311961D01*
X185059524Y-83311961D02*
X185011905Y-83216723D01*
X185011905Y-83216723D02*
X184964286Y-83026247D01*
X184964286Y-83026247D02*
X184964286Y-82883390D01*
X184964286Y-82883390D02*
X185011905Y-82692914D01*
X185011905Y-82692914D02*
X185059524Y-82597676D01*
X185059524Y-82597676D02*
X185154762Y-82502438D01*
X185154762Y-82502438D02*
X185297619Y-82454819D01*
X185297619Y-82454819D02*
X185392857Y-82454819D01*
X185392857Y-82454819D02*
X185535714Y-82502438D01*
X185535714Y-82502438D02*
X185583333Y-82550057D01*
X186059524Y-83454819D02*
X186250000Y-83454819D01*
X186250000Y-83454819D02*
X186345238Y-83407200D01*
X186345238Y-83407200D02*
X186392857Y-83359580D01*
X186392857Y-83359580D02*
X186488095Y-83216723D01*
X186488095Y-83216723D02*
X186535714Y-83026247D01*
X186535714Y-83026247D02*
X186535714Y-82645295D01*
X186535714Y-82645295D02*
X186488095Y-82550057D01*
X186488095Y-82550057D02*
X186440476Y-82502438D01*
X186440476Y-82502438D02*
X186345238Y-82454819D01*
X186345238Y-82454819D02*
X186154762Y-82454819D01*
X186154762Y-82454819D02*
X186059524Y-82502438D01*
X186059524Y-82502438D02*
X186011905Y-82550057D01*
X186011905Y-82550057D02*
X185964286Y-82645295D01*
X185964286Y-82645295D02*
X185964286Y-82883390D01*
X185964286Y-82883390D02*
X186011905Y-82978628D01*
X186011905Y-82978628D02*
X186059524Y-83026247D01*
X186059524Y-83026247D02*
X186154762Y-83073866D01*
X186154762Y-83073866D02*
X186345238Y-83073866D01*
X186345238Y-83073866D02*
X186440476Y-83026247D01*
X186440476Y-83026247D02*
X186488095Y-82978628D01*
X186488095Y-82978628D02*
X186535714Y-82883390D01*
X194857142Y-85109580D02*
X194809523Y-85157200D01*
X194809523Y-85157200D02*
X194666666Y-85204819D01*
X194666666Y-85204819D02*
X194571428Y-85204819D01*
X194571428Y-85204819D02*
X194428571Y-85157200D01*
X194428571Y-85157200D02*
X194333333Y-85061961D01*
X194333333Y-85061961D02*
X194285714Y-84966723D01*
X194285714Y-84966723D02*
X194238095Y-84776247D01*
X194238095Y-84776247D02*
X194238095Y-84633390D01*
X194238095Y-84633390D02*
X194285714Y-84442914D01*
X194285714Y-84442914D02*
X194333333Y-84347676D01*
X194333333Y-84347676D02*
X194428571Y-84252438D01*
X194428571Y-84252438D02*
X194571428Y-84204819D01*
X194571428Y-84204819D02*
X194666666Y-84204819D01*
X194666666Y-84204819D02*
X194809523Y-84252438D01*
X194809523Y-84252438D02*
X194857142Y-84300057D01*
X195809523Y-85204819D02*
X195238095Y-85204819D01*
X195523809Y-85204819D02*
X195523809Y-84204819D01*
X195523809Y-84204819D02*
X195428571Y-84347676D01*
X195428571Y-84347676D02*
X195333333Y-84442914D01*
X195333333Y-84442914D02*
X195238095Y-84490533D01*
X196761904Y-85204819D02*
X196190476Y-85204819D01*
X196476190Y-85204819D02*
X196476190Y-84204819D01*
X196476190Y-84204819D02*
X196380952Y-84347676D01*
X196380952Y-84347676D02*
X196285714Y-84442914D01*
X196285714Y-84442914D02*
X196190476Y-84490533D01*
X188609580Y-39142857D02*
X188657200Y-39190476D01*
X188657200Y-39190476D02*
X188704819Y-39333333D01*
X188704819Y-39333333D02*
X188704819Y-39428571D01*
X188704819Y-39428571D02*
X188657200Y-39571428D01*
X188657200Y-39571428D02*
X188561961Y-39666666D01*
X188561961Y-39666666D02*
X188466723Y-39714285D01*
X188466723Y-39714285D02*
X188276247Y-39761904D01*
X188276247Y-39761904D02*
X188133390Y-39761904D01*
X188133390Y-39761904D02*
X187942914Y-39714285D01*
X187942914Y-39714285D02*
X187847676Y-39666666D01*
X187847676Y-39666666D02*
X187752438Y-39571428D01*
X187752438Y-39571428D02*
X187704819Y-39428571D01*
X187704819Y-39428571D02*
X187704819Y-39333333D01*
X187704819Y-39333333D02*
X187752438Y-39190476D01*
X187752438Y-39190476D02*
X187800057Y-39142857D01*
X188704819Y-38190476D02*
X188704819Y-38761904D01*
X188704819Y-38476190D02*
X187704819Y-38476190D01*
X187704819Y-38476190D02*
X187847676Y-38571428D01*
X187847676Y-38571428D02*
X187942914Y-38666666D01*
X187942914Y-38666666D02*
X187990533Y-38761904D01*
X187800057Y-37809523D02*
X187752438Y-37761904D01*
X187752438Y-37761904D02*
X187704819Y-37666666D01*
X187704819Y-37666666D02*
X187704819Y-37428571D01*
X187704819Y-37428571D02*
X187752438Y-37333333D01*
X187752438Y-37333333D02*
X187800057Y-37285714D01*
X187800057Y-37285714D02*
X187895295Y-37238095D01*
X187895295Y-37238095D02*
X187990533Y-37238095D01*
X187990533Y-37238095D02*
X188133390Y-37285714D01*
X188133390Y-37285714D02*
X188704819Y-37857142D01*
X188704819Y-37857142D02*
X188704819Y-37238095D01*
X211166666Y-27454819D02*
X211166666Y-28169104D01*
X211166666Y-28169104D02*
X211119047Y-28311961D01*
X211119047Y-28311961D02*
X211023809Y-28407200D01*
X211023809Y-28407200D02*
X210880952Y-28454819D01*
X210880952Y-28454819D02*
X210785714Y-28454819D01*
X211785714Y-27883390D02*
X211690476Y-27835771D01*
X211690476Y-27835771D02*
X211642857Y-27788152D01*
X211642857Y-27788152D02*
X211595238Y-27692914D01*
X211595238Y-27692914D02*
X211595238Y-27645295D01*
X211595238Y-27645295D02*
X211642857Y-27550057D01*
X211642857Y-27550057D02*
X211690476Y-27502438D01*
X211690476Y-27502438D02*
X211785714Y-27454819D01*
X211785714Y-27454819D02*
X211976190Y-27454819D01*
X211976190Y-27454819D02*
X212071428Y-27502438D01*
X212071428Y-27502438D02*
X212119047Y-27550057D01*
X212119047Y-27550057D02*
X212166666Y-27645295D01*
X212166666Y-27645295D02*
X212166666Y-27692914D01*
X212166666Y-27692914D02*
X212119047Y-27788152D01*
X212119047Y-27788152D02*
X212071428Y-27835771D01*
X212071428Y-27835771D02*
X211976190Y-27883390D01*
X211976190Y-27883390D02*
X211785714Y-27883390D01*
X211785714Y-27883390D02*
X211690476Y-27931009D01*
X211690476Y-27931009D02*
X211642857Y-27978628D01*
X211642857Y-27978628D02*
X211595238Y-28073866D01*
X211595238Y-28073866D02*
X211595238Y-28264342D01*
X211595238Y-28264342D02*
X211642857Y-28359580D01*
X211642857Y-28359580D02*
X211690476Y-28407200D01*
X211690476Y-28407200D02*
X211785714Y-28454819D01*
X211785714Y-28454819D02*
X211976190Y-28454819D01*
X211976190Y-28454819D02*
X212071428Y-28407200D01*
X212071428Y-28407200D02*
X212119047Y-28359580D01*
X212119047Y-28359580D02*
X212166666Y-28264342D01*
X212166666Y-28264342D02*
X212166666Y-28073866D01*
X212166666Y-28073866D02*
X212119047Y-27978628D01*
X212119047Y-27978628D02*
X212071428Y-27931009D01*
X212071428Y-27931009D02*
X211976190Y-27883390D01*
D10*
%TO.C,U1*%
X165571000Y-45570000D02*
X165571000Y-40929000D01*
X165571000Y-45570000D02*
X155330000Y-45570000D01*
X165571000Y-44060000D02*
X155330000Y-44060000D01*
X165571000Y-40929000D02*
X155330000Y-40929000D01*
X162300000Y-45570000D02*
X162300000Y-44060000D01*
X158600000Y-45570000D02*
X158600000Y-44060000D01*
X155330000Y-45570000D02*
X155330000Y-40929000D01*
%TO.C,U2*%
X196486000Y-36008000D02*
X196486000Y-71688000D01*
X196486000Y-71688000D02*
X201786000Y-71688000D01*
X198136000Y-36008000D02*
X196486000Y-36008000D01*
X201786000Y-36008000D02*
X200136000Y-36008000D01*
X201786000Y-71688000D02*
X201786000Y-36008000D01*
X198136000Y-36008000D02*
G75*
G03*
X200136000Y-36008000I1000000J0D01*
G01*
%TO.C,U4*%
X215734100Y-84983300D02*
X215734100Y-84748300D01*
X215734100Y-84748300D02*
X217549100Y-84748300D01*
X215734100Y-71963300D02*
X215734100Y-72198300D01*
X211874100Y-84983300D02*
X215734100Y-84983300D01*
X211874100Y-84983300D02*
X208014100Y-84983300D01*
X211874100Y-71963300D02*
X215734100Y-71963300D01*
X211874100Y-71963300D02*
X208014100Y-71963300D01*
X208014100Y-84983300D02*
X208014100Y-84748300D01*
X208014100Y-71963300D02*
X208014100Y-72198300D01*
%TO.C,U5*%
X154892000Y-91500000D02*
X160133000Y-91500000D01*
X154892000Y-91500000D02*
X154892000Y-71060000D01*
X156732000Y-91500000D02*
X156732000Y-71060000D01*
X160133000Y-91500000D02*
X160133000Y-89824000D01*
X160133000Y-90170000D02*
X163542000Y-90170000D01*
X160133000Y-87975000D02*
X160133000Y-87284000D01*
X160133000Y-87630000D02*
X163527000Y-87630000D01*
X160133000Y-85435000D02*
X160133000Y-84744000D01*
X160133000Y-85090000D02*
X163527000Y-85090000D01*
X154892000Y-83129000D02*
X156732000Y-83129000D01*
X160133000Y-82895000D02*
X160133000Y-82204000D01*
X160133000Y-82550000D02*
X163527000Y-82550000D01*
X160133000Y-80355000D02*
X160133000Y-79664000D01*
X160133000Y-80010000D02*
X163527000Y-80010000D01*
X154892000Y-79430000D02*
X156732000Y-79430000D01*
X160133000Y-77815000D02*
X160133000Y-77124000D01*
X160133000Y-77470000D02*
X163527000Y-77470000D01*
X160133000Y-75275000D02*
X160133000Y-74584000D01*
X160133000Y-74930000D02*
X163527000Y-74930000D01*
X160133000Y-72735000D02*
X160133000Y-71060000D01*
X160133000Y-72390000D02*
X163527000Y-72390000D01*
X154892000Y-71060000D02*
X160133000Y-71060000D01*
%TO.C,D11*%
X172236000Y-78740000D02*
X172886000Y-78740000D01*
X172886000Y-77620000D02*
X172886000Y-79860000D01*
X172886000Y-79860000D02*
X177126000Y-79860000D01*
X173486000Y-77620000D02*
X173486000Y-79860000D01*
X173606000Y-77620000D02*
X173606000Y-79860000D01*
X173726000Y-77620000D02*
X173726000Y-79860000D01*
X177126000Y-77620000D02*
X172886000Y-77620000D01*
X177126000Y-79860000D02*
X177126000Y-77620000D01*
X177776000Y-78740000D02*
X177126000Y-78740000D01*
%TO.C,C1*%
X177123300Y-28643198D02*
X177123300Y-27843198D01*
X176723300Y-28243198D02*
X177523300Y-28243198D01*
X175358300Y-24233500D02*
X183518300Y-24233500D01*
X175358300Y-24193500D02*
X183518300Y-24193500D01*
X175358300Y-24153500D02*
X183518300Y-24153500D01*
X175359300Y-24113500D02*
X183517300Y-24113500D01*
X175361300Y-24073500D02*
X183515300Y-24073500D01*
X175362300Y-24033500D02*
X183514300Y-24033500D01*
X175364300Y-23993500D02*
X183512300Y-23993500D01*
X175367300Y-23953500D02*
X183509300Y-23953500D01*
X175370300Y-23913500D02*
X183506300Y-23913500D01*
X175373300Y-23873500D02*
X183503300Y-23873500D01*
X175377300Y-23833500D02*
X183499300Y-23833500D01*
X175381300Y-23793500D02*
X183495300Y-23793500D01*
X175386300Y-23753500D02*
X183490300Y-23753500D01*
X175390300Y-23713500D02*
X183486300Y-23713500D01*
X175396300Y-23673500D02*
X183480300Y-23673500D01*
X175401300Y-23633500D02*
X183475300Y-23633500D01*
X175408300Y-23593500D02*
X183468300Y-23593500D01*
X175414300Y-23553500D02*
X183462300Y-23553500D01*
X175421300Y-23512500D02*
X183455300Y-23512500D01*
X175428300Y-23472500D02*
X183448300Y-23472500D01*
X175436300Y-23432500D02*
X183440300Y-23432500D01*
X175444300Y-23392500D02*
X183432300Y-23392500D01*
X175453300Y-23352500D02*
X183423300Y-23352500D01*
X175462300Y-23312500D02*
X183414300Y-23312500D01*
X175471300Y-23272500D02*
X183405300Y-23272500D01*
X175481300Y-23232500D02*
X183395300Y-23232500D01*
X175491300Y-23192500D02*
X183385300Y-23192500D01*
X175502300Y-23152500D02*
X183374300Y-23152500D01*
X175513300Y-23112500D02*
X183363300Y-23112500D01*
X175524300Y-23072500D02*
X183352300Y-23072500D01*
X175536300Y-23032500D02*
X183340300Y-23032500D01*
X175549300Y-22992500D02*
X183327300Y-22992500D01*
X175561300Y-22952500D02*
X183315300Y-22952500D01*
X175575300Y-22912500D02*
X183301300Y-22912500D01*
X175588300Y-22872500D02*
X183288300Y-22872500D01*
X175603300Y-22832500D02*
X183273300Y-22832500D01*
X175617300Y-22792500D02*
X183259300Y-22792500D01*
X175633300Y-22752500D02*
X178398300Y-22752500D01*
X180478300Y-22752500D02*
X183243300Y-22752500D01*
X175648300Y-22712500D02*
X178398300Y-22712500D01*
X180478300Y-22712500D02*
X183228300Y-22712500D01*
X175664300Y-22672500D02*
X178398300Y-22672500D01*
X180478300Y-22672500D02*
X183212300Y-22672500D01*
X175681300Y-22632500D02*
X178398300Y-22632500D01*
X180478300Y-22632500D02*
X183195300Y-22632500D01*
X175698300Y-22592500D02*
X178398300Y-22592500D01*
X180478300Y-22592500D02*
X183178300Y-22592500D01*
X175716300Y-22552500D02*
X178398300Y-22552500D01*
X180478300Y-22552500D02*
X183160300Y-22552500D01*
X175734300Y-22512500D02*
X178398300Y-22512500D01*
X180478300Y-22512500D02*
X183142300Y-22512500D01*
X175752300Y-22472500D02*
X178398300Y-22472500D01*
X180478300Y-22472500D02*
X183124300Y-22472500D01*
X175772300Y-22432500D02*
X178398300Y-22432500D01*
X180478300Y-22432500D02*
X183104300Y-22432500D01*
X175791300Y-22392500D02*
X178398300Y-22392500D01*
X180478300Y-22392500D02*
X183085300Y-22392500D01*
X175811300Y-22352500D02*
X178398300Y-22352500D01*
X180478300Y-22352500D02*
X183065300Y-22352500D01*
X175832300Y-22312500D02*
X178398300Y-22312500D01*
X180478300Y-22312500D02*
X183044300Y-22312500D01*
X175854300Y-22272500D02*
X178398300Y-22272500D01*
X180478300Y-22272500D02*
X183022300Y-22272500D01*
X175876300Y-22232500D02*
X178398300Y-22232500D01*
X180478300Y-22232500D02*
X183000300Y-22232500D01*
X175898300Y-22192500D02*
X178398300Y-22192500D01*
X180478300Y-22192500D02*
X182978300Y-22192500D01*
X175921300Y-22152500D02*
X178398300Y-22152500D01*
X180478300Y-22152500D02*
X182955300Y-22152500D01*
X175945300Y-22112500D02*
X178398300Y-22112500D01*
X180478300Y-22112500D02*
X182931300Y-22112500D01*
X175969300Y-22072500D02*
X178398300Y-22072500D01*
X180478300Y-22072500D02*
X182907300Y-22072500D01*
X175994300Y-22032500D02*
X178398300Y-22032500D01*
X180478300Y-22032500D02*
X182882300Y-22032500D01*
X176020300Y-21992500D02*
X178398300Y-21992500D01*
X180478300Y-21992500D02*
X182856300Y-21992500D01*
X176046300Y-21952500D02*
X178398300Y-21952500D01*
X180478300Y-21952500D02*
X182830300Y-21952500D01*
X176073300Y-21912500D02*
X178398300Y-21912500D01*
X180478300Y-21912500D02*
X182803300Y-21912500D01*
X176100300Y-21872500D02*
X178398300Y-21872500D01*
X180478300Y-21872500D02*
X182776300Y-21872500D01*
X176129300Y-21832500D02*
X178398300Y-21832500D01*
X180478300Y-21832500D02*
X182747300Y-21832500D01*
X176158300Y-21792500D02*
X178398300Y-21792500D01*
X180478300Y-21792500D02*
X182718300Y-21792500D01*
X176188300Y-21752500D02*
X178398300Y-21752500D01*
X180478300Y-21752500D02*
X182688300Y-21752500D01*
X176218300Y-21712500D02*
X178398300Y-21712500D01*
X180478300Y-21712500D02*
X182658300Y-21712500D01*
X176249300Y-21672500D02*
X178398300Y-21672500D01*
X180478300Y-21672500D02*
X182627300Y-21672500D01*
X176282300Y-21632500D02*
X178398300Y-21632500D01*
X180478300Y-21632500D02*
X182594300Y-21632500D01*
X176314300Y-21592500D02*
X178398300Y-21592500D01*
X180478300Y-21592500D02*
X182562300Y-21592500D01*
X176348300Y-21552500D02*
X178398300Y-21552500D01*
X180478300Y-21552500D02*
X182528300Y-21552500D01*
X176383300Y-21512500D02*
X178398300Y-21512500D01*
X180478300Y-21512500D02*
X182493300Y-21512500D01*
X176419300Y-21472500D02*
X178398300Y-21472500D01*
X180478300Y-21472500D02*
X182457300Y-21472500D01*
X176455300Y-21432500D02*
X178398300Y-21432500D01*
X180478300Y-21432500D02*
X182421300Y-21432500D01*
X176493300Y-21392500D02*
X178398300Y-21392500D01*
X180478300Y-21392500D02*
X182383300Y-21392500D01*
X176531300Y-21352500D02*
X178398300Y-21352500D01*
X180478300Y-21352500D02*
X182345300Y-21352500D01*
X176571300Y-21312500D02*
X178398300Y-21312500D01*
X180478300Y-21312500D02*
X182305300Y-21312500D01*
X176612300Y-21272500D02*
X178398300Y-21272500D01*
X180478300Y-21272500D02*
X182264300Y-21272500D01*
X176654300Y-21232500D02*
X178398300Y-21232500D01*
X180478300Y-21232500D02*
X182222300Y-21232500D01*
X176697300Y-21192500D02*
X178398300Y-21192500D01*
X180478300Y-21192500D02*
X182179300Y-21192500D01*
X176741300Y-21152500D02*
X178398300Y-21152500D01*
X180478300Y-21152500D02*
X182135300Y-21152500D01*
X176787300Y-21112500D02*
X178398300Y-21112500D01*
X180478300Y-21112500D02*
X182089300Y-21112500D01*
X176834300Y-21072500D02*
X178398300Y-21072500D01*
X180478300Y-21072500D02*
X182042300Y-21072500D01*
X176882300Y-21032500D02*
X178398300Y-21032500D01*
X180478300Y-21032500D02*
X181994300Y-21032500D01*
X176933300Y-20992500D02*
X178398300Y-20992500D01*
X180478300Y-20992500D02*
X181943300Y-20992500D01*
X176984300Y-20952500D02*
X178398300Y-20952500D01*
X180478300Y-20952500D02*
X181892300Y-20952500D01*
X177038300Y-20912500D02*
X178398300Y-20912500D01*
X180478300Y-20912500D02*
X181838300Y-20912500D01*
X177093300Y-20872500D02*
X178398300Y-20872500D01*
X180478300Y-20872500D02*
X181783300Y-20872500D01*
X177151300Y-20832500D02*
X178398300Y-20832500D01*
X180478300Y-20832500D02*
X181725300Y-20832500D01*
X177210300Y-20792500D02*
X178398300Y-20792500D01*
X180478300Y-20792500D02*
X181666300Y-20792500D01*
X177272300Y-20752500D02*
X178398300Y-20752500D01*
X180478300Y-20752500D02*
X181604300Y-20752500D01*
X177336300Y-20712500D02*
X178398300Y-20712500D01*
X180478300Y-20712500D02*
X181540300Y-20712500D01*
X177404300Y-20672500D02*
X181472300Y-20672500D01*
X177474300Y-20632500D02*
X181402300Y-20632500D01*
X177548300Y-20592500D02*
X181328300Y-20592500D01*
X177625300Y-20552500D02*
X181251300Y-20552500D01*
X177707300Y-20512500D02*
X181169300Y-20512500D01*
X177793300Y-20472500D02*
X181083300Y-20472500D01*
X177886300Y-20432500D02*
X180990300Y-20432500D01*
X177985300Y-20392500D02*
X180891300Y-20392500D01*
X178092300Y-20352500D02*
X180784300Y-20352500D01*
X178209300Y-20312500D02*
X180667300Y-20312500D01*
X178340300Y-20272500D02*
X180536300Y-20272500D01*
X178490300Y-20232500D02*
X180386300Y-20232500D01*
X178670300Y-20192500D02*
X180206300Y-20192500D01*
X178905300Y-20152500D02*
X179971300Y-20152500D01*
X183558300Y-24233500D02*
G75*
G03*
X183558300Y-24233500I-4120000J0D01*
G01*
%TO.C,C3*%
X156637000Y-70055646D02*
X156637000Y-69055646D01*
X156137000Y-69555646D02*
X157137000Y-69555646D01*
X154432000Y-64576000D02*
X164592000Y-64576000D01*
X154432000Y-64536000D02*
X164592000Y-64536000D01*
X154432000Y-64496000D02*
X164592000Y-64496000D01*
X154433000Y-64456000D02*
X164591000Y-64456000D01*
X154434000Y-64416000D02*
X164590000Y-64416000D01*
X154435000Y-64376000D02*
X164589000Y-64376000D01*
X154437000Y-64336000D02*
X164587000Y-64336000D01*
X154439000Y-64296000D02*
X164585000Y-64296000D01*
X154442000Y-64256000D02*
X164582000Y-64256000D01*
X154444000Y-64216000D02*
X164580000Y-64216000D01*
X154447000Y-64176000D02*
X164577000Y-64176000D01*
X154450000Y-64136000D02*
X164574000Y-64136000D01*
X154454000Y-64096000D02*
X164570000Y-64096000D01*
X154458000Y-64056000D02*
X164566000Y-64056000D01*
X154462000Y-64016000D02*
X164562000Y-64016000D01*
X154467000Y-63976000D02*
X164557000Y-63976000D01*
X154472000Y-63936000D02*
X164552000Y-63936000D01*
X154477000Y-63896000D02*
X164547000Y-63896000D01*
X154482000Y-63855000D02*
X164542000Y-63855000D01*
X154488000Y-63815000D02*
X164536000Y-63815000D01*
X154494000Y-63775000D02*
X164530000Y-63775000D01*
X154501000Y-63735000D02*
X164523000Y-63735000D01*
X154508000Y-63695000D02*
X164516000Y-63695000D01*
X154515000Y-63655000D02*
X164509000Y-63655000D01*
X154522000Y-63615000D02*
X164502000Y-63615000D01*
X154530000Y-63575000D02*
X164494000Y-63575000D01*
X154538000Y-63535000D02*
X164486000Y-63535000D01*
X154547000Y-63495000D02*
X164477000Y-63495000D01*
X154556000Y-63455000D02*
X164468000Y-63455000D01*
X154565000Y-63415000D02*
X164459000Y-63415000D01*
X154574000Y-63375000D02*
X164450000Y-63375000D01*
X154584000Y-63335000D02*
X164440000Y-63335000D01*
X154594000Y-63295000D02*
X164430000Y-63295000D01*
X154605000Y-63255000D02*
X164419000Y-63255000D01*
X154615000Y-63215000D02*
X164409000Y-63215000D01*
X154627000Y-63175000D02*
X164397000Y-63175000D01*
X154638000Y-63135000D02*
X164386000Y-63135000D01*
X154650000Y-63095000D02*
X164374000Y-63095000D01*
X154662000Y-63055000D02*
X164362000Y-63055000D01*
X154675000Y-63015000D02*
X164349000Y-63015000D01*
X154688000Y-62975000D02*
X164336000Y-62975000D01*
X154701000Y-62935000D02*
X164323000Y-62935000D01*
X154715000Y-62895000D02*
X164309000Y-62895000D01*
X154729000Y-62855000D02*
X164295000Y-62855000D01*
X154744000Y-62815000D02*
X164280000Y-62815000D01*
X154758000Y-62775000D02*
X164266000Y-62775000D01*
X154774000Y-62735000D02*
X164250000Y-62735000D01*
X154789000Y-62695000D02*
X164235000Y-62695000D01*
X154805000Y-62655000D02*
X164219000Y-62655000D01*
X154822000Y-62615000D02*
X164202000Y-62615000D01*
X154838000Y-62575000D02*
X164186000Y-62575000D01*
X154855000Y-62535000D02*
X164169000Y-62535000D01*
X154873000Y-62495000D02*
X164151000Y-62495000D01*
X154891000Y-62455000D02*
X164133000Y-62455000D01*
X154909000Y-62415000D02*
X164115000Y-62415000D01*
X154928000Y-62375000D02*
X164096000Y-62375000D01*
X154948000Y-62335000D02*
X164076000Y-62335000D01*
X154967000Y-62295000D02*
X164057000Y-62295000D01*
X154987000Y-62255000D02*
X164037000Y-62255000D01*
X155008000Y-62215000D02*
X164016000Y-62215000D01*
X155029000Y-62175000D02*
X163995000Y-62175000D01*
X155050000Y-62135000D02*
X163974000Y-62135000D01*
X155072000Y-62095000D02*
X163952000Y-62095000D01*
X155095000Y-62055000D02*
X158271000Y-62055000D01*
X160753000Y-62055000D02*
X163929000Y-62055000D01*
X155117000Y-62015000D02*
X158271000Y-62015000D01*
X160753000Y-62015000D02*
X163907000Y-62015000D01*
X155141000Y-61975000D02*
X158271000Y-61975000D01*
X160753000Y-61975000D02*
X163883000Y-61975000D01*
X155165000Y-61935000D02*
X158271000Y-61935000D01*
X160753000Y-61935000D02*
X163859000Y-61935000D01*
X155189000Y-61895000D02*
X158271000Y-61895000D01*
X160753000Y-61895000D02*
X163835000Y-61895000D01*
X155214000Y-61855000D02*
X158271000Y-61855000D01*
X160753000Y-61855000D02*
X163810000Y-61855000D01*
X155239000Y-61815000D02*
X158271000Y-61815000D01*
X160753000Y-61815000D02*
X163785000Y-61815000D01*
X155265000Y-61775000D02*
X158271000Y-61775000D01*
X160753000Y-61775000D02*
X163759000Y-61775000D01*
X155291000Y-61735000D02*
X158271000Y-61735000D01*
X160753000Y-61735000D02*
X163733000Y-61735000D01*
X155318000Y-61695000D02*
X158271000Y-61695000D01*
X160753000Y-61695000D02*
X163706000Y-61695000D01*
X155346000Y-61655000D02*
X158271000Y-61655000D01*
X160753000Y-61655000D02*
X163678000Y-61655000D01*
X155374000Y-61615000D02*
X158271000Y-61615000D01*
X160753000Y-61615000D02*
X163650000Y-61615000D01*
X155402000Y-61575000D02*
X158271000Y-61575000D01*
X160753000Y-61575000D02*
X163622000Y-61575000D01*
X155432000Y-61535000D02*
X158271000Y-61535000D01*
X160753000Y-61535000D02*
X163592000Y-61535000D01*
X155462000Y-61495000D02*
X158271000Y-61495000D01*
X160753000Y-61495000D02*
X163562000Y-61495000D01*
X155492000Y-61455000D02*
X158271000Y-61455000D01*
X160753000Y-61455000D02*
X163532000Y-61455000D01*
X155523000Y-61415000D02*
X158271000Y-61415000D01*
X160753000Y-61415000D02*
X163501000Y-61415000D01*
X155555000Y-61375000D02*
X158271000Y-61375000D01*
X160753000Y-61375000D02*
X163469000Y-61375000D01*
X155587000Y-61335000D02*
X158271000Y-61335000D01*
X160753000Y-61335000D02*
X163437000Y-61335000D01*
X155620000Y-61295000D02*
X158271000Y-61295000D01*
X160753000Y-61295000D02*
X163404000Y-61295000D01*
X155654000Y-61255000D02*
X158271000Y-61255000D01*
X160753000Y-61255000D02*
X163370000Y-61255000D01*
X155688000Y-61215000D02*
X158271000Y-61215000D01*
X160753000Y-61215000D02*
X163336000Y-61215000D01*
X155723000Y-61175000D02*
X158271000Y-61175000D01*
X160753000Y-61175000D02*
X163301000Y-61175000D01*
X155759000Y-61135000D02*
X158271000Y-61135000D01*
X160753000Y-61135000D02*
X163265000Y-61135000D01*
X155796000Y-61095000D02*
X158271000Y-61095000D01*
X160753000Y-61095000D02*
X163228000Y-61095000D01*
X155833000Y-61055000D02*
X158271000Y-61055000D01*
X160753000Y-61055000D02*
X163191000Y-61055000D01*
X155872000Y-61015000D02*
X158271000Y-61015000D01*
X160753000Y-61015000D02*
X163152000Y-61015000D01*
X155911000Y-60975000D02*
X158271000Y-60975000D01*
X160753000Y-60975000D02*
X163113000Y-60975000D01*
X155951000Y-60935000D02*
X158271000Y-60935000D01*
X160753000Y-60935000D02*
X163073000Y-60935000D01*
X155992000Y-60895000D02*
X158271000Y-60895000D01*
X160753000Y-60895000D02*
X163032000Y-60895000D01*
X156034000Y-60855000D02*
X158271000Y-60855000D01*
X160753000Y-60855000D02*
X162990000Y-60855000D01*
X156076000Y-60815000D02*
X158271000Y-60815000D01*
X160753000Y-60815000D02*
X162948000Y-60815000D01*
X156120000Y-60775000D02*
X158271000Y-60775000D01*
X160753000Y-60775000D02*
X162904000Y-60775000D01*
X156165000Y-60735000D02*
X158271000Y-60735000D01*
X160753000Y-60735000D02*
X162859000Y-60735000D01*
X156211000Y-60695000D02*
X158271000Y-60695000D01*
X160753000Y-60695000D02*
X162813000Y-60695000D01*
X156258000Y-60655000D02*
X158271000Y-60655000D01*
X160753000Y-60655000D02*
X162766000Y-60655000D01*
X156306000Y-60615000D02*
X158271000Y-60615000D01*
X160753000Y-60615000D02*
X162718000Y-60615000D01*
X156356000Y-60575000D02*
X158271000Y-60575000D01*
X160753000Y-60575000D02*
X162668000Y-60575000D01*
X156406000Y-60535000D02*
X158271000Y-60535000D01*
X160753000Y-60535000D02*
X162618000Y-60535000D01*
X156458000Y-60495000D02*
X158271000Y-60495000D01*
X160753000Y-60495000D02*
X162566000Y-60495000D01*
X156512000Y-60455000D02*
X158271000Y-60455000D01*
X160753000Y-60455000D02*
X162512000Y-60455000D01*
X156567000Y-60415000D02*
X158271000Y-60415000D01*
X160753000Y-60415000D02*
X162457000Y-60415000D01*
X156623000Y-60375000D02*
X158271000Y-60375000D01*
X160753000Y-60375000D02*
X162401000Y-60375000D01*
X156682000Y-60335000D02*
X158271000Y-60335000D01*
X160753000Y-60335000D02*
X162342000Y-60335000D01*
X156742000Y-60295000D02*
X158271000Y-60295000D01*
X160753000Y-60295000D02*
X162282000Y-60295000D01*
X156803000Y-60255000D02*
X158271000Y-60255000D01*
X160753000Y-60255000D02*
X162221000Y-60255000D01*
X156867000Y-60215000D02*
X158271000Y-60215000D01*
X160753000Y-60215000D02*
X162157000Y-60215000D01*
X156933000Y-60175000D02*
X158271000Y-60175000D01*
X160753000Y-60175000D02*
X162091000Y-60175000D01*
X157002000Y-60135000D02*
X158271000Y-60135000D01*
X160753000Y-60135000D02*
X162022000Y-60135000D01*
X157073000Y-60095000D02*
X158271000Y-60095000D01*
X160753000Y-60095000D02*
X161951000Y-60095000D01*
X157147000Y-60055000D02*
X158271000Y-60055000D01*
X160753000Y-60055000D02*
X161877000Y-60055000D01*
X157223000Y-60015000D02*
X158271000Y-60015000D01*
X160753000Y-60015000D02*
X161801000Y-60015000D01*
X157303000Y-59975000D02*
X158271000Y-59975000D01*
X160753000Y-59975000D02*
X161721000Y-59975000D01*
X157387000Y-59935000D02*
X158271000Y-59935000D01*
X160753000Y-59935000D02*
X161637000Y-59935000D01*
X157475000Y-59895000D02*
X158271000Y-59895000D01*
X160753000Y-59895000D02*
X161549000Y-59895000D01*
X157568000Y-59855000D02*
X158271000Y-59855000D01*
X160753000Y-59855000D02*
X161456000Y-59855000D01*
X157666000Y-59815000D02*
X158271000Y-59815000D01*
X160753000Y-59815000D02*
X161358000Y-59815000D01*
X157770000Y-59775000D02*
X158271000Y-59775000D01*
X160753000Y-59775000D02*
X161254000Y-59775000D01*
X157882000Y-59735000D02*
X158271000Y-59735000D01*
X160753000Y-59735000D02*
X161142000Y-59735000D01*
X158002000Y-59695000D02*
X158271000Y-59695000D01*
X160753000Y-59695000D02*
X161022000Y-59695000D01*
X158134000Y-59655000D02*
X158271000Y-59655000D01*
X160753000Y-59655000D02*
X160890000Y-59655000D01*
X158450000Y-59575000D02*
X160574000Y-59575000D01*
X158650000Y-59535000D02*
X160374000Y-59535000D01*
X158913000Y-59495000D02*
X160111000Y-59495000D01*
X160772000Y-69538540D02*
G75*
G03*
X158252000Y-69538540I-1260000J4962540D01*
G01*
%TO.C,C5*%
X180768000Y-67664000D02*
X186008000Y-67664000D01*
X180768000Y-67664000D02*
X180768000Y-59924000D01*
X186008000Y-67664000D02*
X186008000Y-59924000D01*
X180768000Y-59924000D02*
X186008000Y-59924000D01*
%TO.C,C7*%
X208305600Y-60716300D02*
X208305600Y-60781300D01*
X208305600Y-60716300D02*
X211545600Y-60716300D01*
X208305600Y-62891300D02*
X208305600Y-62956300D01*
X208305600Y-62956300D02*
X211545600Y-62956300D01*
X211545600Y-60716300D02*
X211545600Y-60781300D01*
X211545600Y-62891300D02*
X211545600Y-62956300D01*
%TO.C,C8*%
X216409700Y-62981700D02*
X216409700Y-62916700D01*
X216409700Y-62981700D02*
X213169700Y-62981700D01*
X216409700Y-60806700D02*
X216409700Y-60741700D01*
X216409700Y-60741700D02*
X213169700Y-60741700D01*
X213169700Y-62981700D02*
X213169700Y-62916700D01*
X213169700Y-60806700D02*
X213169700Y-60741700D01*
%TO.C,C10*%
X167813000Y-70055646D02*
X167813000Y-69055646D01*
X167313000Y-69555646D02*
X168313000Y-69555646D01*
X165608000Y-64576000D02*
X175768000Y-64576000D01*
X165608000Y-64536000D02*
X175768000Y-64536000D01*
X165608000Y-64496000D02*
X175768000Y-64496000D01*
X165609000Y-64456000D02*
X175767000Y-64456000D01*
X165610000Y-64416000D02*
X175766000Y-64416000D01*
X165611000Y-64376000D02*
X175765000Y-64376000D01*
X165613000Y-64336000D02*
X175763000Y-64336000D01*
X165615000Y-64296000D02*
X175761000Y-64296000D01*
X165618000Y-64256000D02*
X175758000Y-64256000D01*
X165620000Y-64216000D02*
X175756000Y-64216000D01*
X165623000Y-64176000D02*
X175753000Y-64176000D01*
X165626000Y-64136000D02*
X175750000Y-64136000D01*
X165630000Y-64096000D02*
X175746000Y-64096000D01*
X165634000Y-64056000D02*
X175742000Y-64056000D01*
X165638000Y-64016000D02*
X175738000Y-64016000D01*
X165643000Y-63976000D02*
X175733000Y-63976000D01*
X165648000Y-63936000D02*
X175728000Y-63936000D01*
X165653000Y-63896000D02*
X175723000Y-63896000D01*
X165658000Y-63855000D02*
X175718000Y-63855000D01*
X165664000Y-63815000D02*
X175712000Y-63815000D01*
X165670000Y-63775000D02*
X175706000Y-63775000D01*
X165677000Y-63735000D02*
X175699000Y-63735000D01*
X165684000Y-63695000D02*
X175692000Y-63695000D01*
X165691000Y-63655000D02*
X175685000Y-63655000D01*
X165698000Y-63615000D02*
X175678000Y-63615000D01*
X165706000Y-63575000D02*
X175670000Y-63575000D01*
X165714000Y-63535000D02*
X175662000Y-63535000D01*
X165723000Y-63495000D02*
X175653000Y-63495000D01*
X165732000Y-63455000D02*
X175644000Y-63455000D01*
X165741000Y-63415000D02*
X175635000Y-63415000D01*
X165750000Y-63375000D02*
X175626000Y-63375000D01*
X165760000Y-63335000D02*
X175616000Y-63335000D01*
X165770000Y-63295000D02*
X175606000Y-63295000D01*
X165781000Y-63255000D02*
X175595000Y-63255000D01*
X165791000Y-63215000D02*
X175585000Y-63215000D01*
X165803000Y-63175000D02*
X175573000Y-63175000D01*
X165814000Y-63135000D02*
X175562000Y-63135000D01*
X165826000Y-63095000D02*
X175550000Y-63095000D01*
X165838000Y-63055000D02*
X175538000Y-63055000D01*
X165851000Y-63015000D02*
X175525000Y-63015000D01*
X165864000Y-62975000D02*
X175512000Y-62975000D01*
X165877000Y-62935000D02*
X175499000Y-62935000D01*
X165891000Y-62895000D02*
X175485000Y-62895000D01*
X165905000Y-62855000D02*
X175471000Y-62855000D01*
X165920000Y-62815000D02*
X175456000Y-62815000D01*
X165934000Y-62775000D02*
X175442000Y-62775000D01*
X165950000Y-62735000D02*
X175426000Y-62735000D01*
X165965000Y-62695000D02*
X175411000Y-62695000D01*
X165981000Y-62655000D02*
X175395000Y-62655000D01*
X165998000Y-62615000D02*
X175378000Y-62615000D01*
X166014000Y-62575000D02*
X175362000Y-62575000D01*
X166031000Y-62535000D02*
X175345000Y-62535000D01*
X166049000Y-62495000D02*
X175327000Y-62495000D01*
X166067000Y-62455000D02*
X175309000Y-62455000D01*
X166085000Y-62415000D02*
X175291000Y-62415000D01*
X166104000Y-62375000D02*
X175272000Y-62375000D01*
X166124000Y-62335000D02*
X175252000Y-62335000D01*
X166143000Y-62295000D02*
X175233000Y-62295000D01*
X166163000Y-62255000D02*
X175213000Y-62255000D01*
X166184000Y-62215000D02*
X175192000Y-62215000D01*
X166205000Y-62175000D02*
X175171000Y-62175000D01*
X166226000Y-62135000D02*
X175150000Y-62135000D01*
X166248000Y-62095000D02*
X175128000Y-62095000D01*
X166271000Y-62055000D02*
X169447000Y-62055000D01*
X171929000Y-62055000D02*
X175105000Y-62055000D01*
X166293000Y-62015000D02*
X169447000Y-62015000D01*
X171929000Y-62015000D02*
X175083000Y-62015000D01*
X166317000Y-61975000D02*
X169447000Y-61975000D01*
X171929000Y-61975000D02*
X175059000Y-61975000D01*
X166341000Y-61935000D02*
X169447000Y-61935000D01*
X171929000Y-61935000D02*
X175035000Y-61935000D01*
X166365000Y-61895000D02*
X169447000Y-61895000D01*
X171929000Y-61895000D02*
X175011000Y-61895000D01*
X166390000Y-61855000D02*
X169447000Y-61855000D01*
X171929000Y-61855000D02*
X174986000Y-61855000D01*
X166415000Y-61815000D02*
X169447000Y-61815000D01*
X171929000Y-61815000D02*
X174961000Y-61815000D01*
X166441000Y-61775000D02*
X169447000Y-61775000D01*
X171929000Y-61775000D02*
X174935000Y-61775000D01*
X166467000Y-61735000D02*
X169447000Y-61735000D01*
X171929000Y-61735000D02*
X174909000Y-61735000D01*
X166494000Y-61695000D02*
X169447000Y-61695000D01*
X171929000Y-61695000D02*
X174882000Y-61695000D01*
X166522000Y-61655000D02*
X169447000Y-61655000D01*
X171929000Y-61655000D02*
X174854000Y-61655000D01*
X166550000Y-61615000D02*
X169447000Y-61615000D01*
X171929000Y-61615000D02*
X174826000Y-61615000D01*
X166578000Y-61575000D02*
X169447000Y-61575000D01*
X171929000Y-61575000D02*
X174798000Y-61575000D01*
X166608000Y-61535000D02*
X169447000Y-61535000D01*
X171929000Y-61535000D02*
X174768000Y-61535000D01*
X166638000Y-61495000D02*
X169447000Y-61495000D01*
X171929000Y-61495000D02*
X174738000Y-61495000D01*
X166668000Y-61455000D02*
X169447000Y-61455000D01*
X171929000Y-61455000D02*
X174708000Y-61455000D01*
X166699000Y-61415000D02*
X169447000Y-61415000D01*
X171929000Y-61415000D02*
X174677000Y-61415000D01*
X166731000Y-61375000D02*
X169447000Y-61375000D01*
X171929000Y-61375000D02*
X174645000Y-61375000D01*
X166763000Y-61335000D02*
X169447000Y-61335000D01*
X171929000Y-61335000D02*
X174613000Y-61335000D01*
X166796000Y-61295000D02*
X169447000Y-61295000D01*
X171929000Y-61295000D02*
X174580000Y-61295000D01*
X166830000Y-61255000D02*
X169447000Y-61255000D01*
X171929000Y-61255000D02*
X174546000Y-61255000D01*
X166864000Y-61215000D02*
X169447000Y-61215000D01*
X171929000Y-61215000D02*
X174512000Y-61215000D01*
X166899000Y-61175000D02*
X169447000Y-61175000D01*
X171929000Y-61175000D02*
X174477000Y-61175000D01*
X166935000Y-61135000D02*
X169447000Y-61135000D01*
X171929000Y-61135000D02*
X174441000Y-61135000D01*
X166972000Y-61095000D02*
X169447000Y-61095000D01*
X171929000Y-61095000D02*
X174404000Y-61095000D01*
X167009000Y-61055000D02*
X169447000Y-61055000D01*
X171929000Y-61055000D02*
X174367000Y-61055000D01*
X167048000Y-61015000D02*
X169447000Y-61015000D01*
X171929000Y-61015000D02*
X174328000Y-61015000D01*
X167087000Y-60975000D02*
X169447000Y-60975000D01*
X171929000Y-60975000D02*
X174289000Y-60975000D01*
X167127000Y-60935000D02*
X169447000Y-60935000D01*
X171929000Y-60935000D02*
X174249000Y-60935000D01*
X167168000Y-60895000D02*
X169447000Y-60895000D01*
X171929000Y-60895000D02*
X174208000Y-60895000D01*
X167210000Y-60855000D02*
X169447000Y-60855000D01*
X171929000Y-60855000D02*
X174166000Y-60855000D01*
X167252000Y-60815000D02*
X169447000Y-60815000D01*
X171929000Y-60815000D02*
X174124000Y-60815000D01*
X167296000Y-60775000D02*
X169447000Y-60775000D01*
X171929000Y-60775000D02*
X174080000Y-60775000D01*
X167341000Y-60735000D02*
X169447000Y-60735000D01*
X171929000Y-60735000D02*
X174035000Y-60735000D01*
X167387000Y-60695000D02*
X169447000Y-60695000D01*
X171929000Y-60695000D02*
X173989000Y-60695000D01*
X167434000Y-60655000D02*
X169447000Y-60655000D01*
X171929000Y-60655000D02*
X173942000Y-60655000D01*
X167482000Y-60615000D02*
X169447000Y-60615000D01*
X171929000Y-60615000D02*
X173894000Y-60615000D01*
X167532000Y-60575000D02*
X169447000Y-60575000D01*
X171929000Y-60575000D02*
X173844000Y-60575000D01*
X167582000Y-60535000D02*
X169447000Y-60535000D01*
X171929000Y-60535000D02*
X173794000Y-60535000D01*
X167634000Y-60495000D02*
X169447000Y-60495000D01*
X171929000Y-60495000D02*
X173742000Y-60495000D01*
X167688000Y-60455000D02*
X169447000Y-60455000D01*
X171929000Y-60455000D02*
X173688000Y-60455000D01*
X167743000Y-60415000D02*
X169447000Y-60415000D01*
X171929000Y-60415000D02*
X173633000Y-60415000D01*
X167799000Y-60375000D02*
X169447000Y-60375000D01*
X171929000Y-60375000D02*
X173577000Y-60375000D01*
X167858000Y-60335000D02*
X169447000Y-60335000D01*
X171929000Y-60335000D02*
X173518000Y-60335000D01*
X167918000Y-60295000D02*
X169447000Y-60295000D01*
X171929000Y-60295000D02*
X173458000Y-60295000D01*
X167979000Y-60255000D02*
X169447000Y-60255000D01*
X171929000Y-60255000D02*
X173397000Y-60255000D01*
X168043000Y-60215000D02*
X169447000Y-60215000D01*
X171929000Y-60215000D02*
X173333000Y-60215000D01*
X168109000Y-60175000D02*
X169447000Y-60175000D01*
X171929000Y-60175000D02*
X173267000Y-60175000D01*
X168178000Y-60135000D02*
X169447000Y-60135000D01*
X171929000Y-60135000D02*
X173198000Y-60135000D01*
X168249000Y-60095000D02*
X169447000Y-60095000D01*
X171929000Y-60095000D02*
X173127000Y-60095000D01*
X168323000Y-60055000D02*
X169447000Y-60055000D01*
X171929000Y-60055000D02*
X173053000Y-60055000D01*
X168399000Y-60015000D02*
X169447000Y-60015000D01*
X171929000Y-60015000D02*
X172977000Y-60015000D01*
X168479000Y-59975000D02*
X169447000Y-59975000D01*
X171929000Y-59975000D02*
X172897000Y-59975000D01*
X168563000Y-59935000D02*
X169447000Y-59935000D01*
X171929000Y-59935000D02*
X172813000Y-59935000D01*
X168651000Y-59895000D02*
X169447000Y-59895000D01*
X171929000Y-59895000D02*
X172725000Y-59895000D01*
X168744000Y-59855000D02*
X169447000Y-59855000D01*
X171929000Y-59855000D02*
X172632000Y-59855000D01*
X168842000Y-59815000D02*
X169447000Y-59815000D01*
X171929000Y-59815000D02*
X172534000Y-59815000D01*
X168946000Y-59775000D02*
X169447000Y-59775000D01*
X171929000Y-59775000D02*
X172430000Y-59775000D01*
X169058000Y-59735000D02*
X169447000Y-59735000D01*
X171929000Y-59735000D02*
X172318000Y-59735000D01*
X169178000Y-59695000D02*
X169447000Y-59695000D01*
X171929000Y-59695000D02*
X172198000Y-59695000D01*
X169310000Y-59655000D02*
X169447000Y-59655000D01*
X171929000Y-59655000D02*
X172066000Y-59655000D01*
X169626000Y-59575000D02*
X171750000Y-59575000D01*
X169826000Y-59535000D02*
X171550000Y-59535000D01*
X170089000Y-59495000D02*
X171287000Y-59495000D01*
X171948000Y-69538540D02*
G75*
G03*
X169428000Y-69538540I-1260000J4962540D01*
G01*
%TO.C,C13*%
X199035900Y-29205412D02*
X199035900Y-29655412D01*
X199260900Y-29430412D02*
X198810900Y-29430412D01*
X196640900Y-29622959D02*
G75*
G03*
X198760900Y-29622959I1060000J-2119741D01*
G01*
%TO.C,D8*%
X219238000Y-92688700D02*
X219238000Y-92532700D01*
X219238000Y-90372700D02*
X219238000Y-90216700D01*
X216005666Y-92531308D02*
G75*
G03*
X219237999Y-92688215I1672334J1078608D01*
G01*
X216636871Y-92532536D02*
G75*
G03*
X218718960Y-92532699I1041129J1079836D01*
G01*
X218718960Y-90372701D02*
G75*
G03*
X216636871Y-90372864I-1040960J-1079999D01*
G01*
X219237999Y-90217185D02*
G75*
G03*
X216005666Y-90374092I-1559999J-1235515D01*
G01*
%TO.C,D9*%
X213904000Y-92688700D02*
X213904000Y-92532700D01*
X213904000Y-90372700D02*
X213904000Y-90216700D01*
X210671666Y-92531308D02*
G75*
G03*
X213903999Y-92688215I1672334J1078608D01*
G01*
X211302871Y-92532536D02*
G75*
G03*
X213384960Y-92532699I1041129J1079836D01*
G01*
X213384960Y-90372701D02*
G75*
G03*
X211302871Y-90372864I-1040960J-1079999D01*
G01*
X213903999Y-90217185D02*
G75*
G03*
X210671666Y-90374092I-1559999J-1235515D01*
G01*
%TO.C,J3*%
X214130000Y-51756000D02*
X215460000Y-51756000D01*
X214130000Y-53086000D02*
X214130000Y-51756000D01*
X214130000Y-54356000D02*
X214130000Y-59496000D01*
X214130000Y-54356000D02*
X216730000Y-54356000D01*
X214130000Y-59496000D02*
X219330000Y-59496000D01*
X216730000Y-51756000D02*
X219330000Y-51756000D01*
X216730000Y-54356000D02*
X216730000Y-51756000D01*
X219330000Y-51756000D02*
X219330000Y-59496000D01*
%TO.C,J7*%
X187138000Y-71434000D02*
X187138000Y-70104000D01*
X188468000Y-71434000D02*
X187138000Y-71434000D01*
X189738000Y-71434000D02*
X192338000Y-71434000D01*
X189738000Y-71434000D02*
X189738000Y-68774000D01*
X192338000Y-71434000D02*
X192338000Y-68774000D01*
X189738000Y-68774000D02*
X192338000Y-68774000D01*
%TO.C,L1*%
X163720000Y-51650000D02*
G75*
G03*
X163720000Y-51650000I-4470000J0D01*
G01*
%TO.C,L2*%
X187564000Y-33007300D02*
G75*
G03*
X187564000Y-33007300I-4470000J0D01*
G01*
%TO.C,R2*%
X175768000Y-40870000D02*
X175768000Y-40100000D01*
X174398000Y-40100000D02*
X177138000Y-40100000D01*
X177138000Y-40100000D02*
X177138000Y-33560000D01*
X174398000Y-33560000D02*
X174398000Y-40100000D01*
X177138000Y-33560000D02*
X174398000Y-33560000D01*
X175768000Y-32790000D02*
X175768000Y-33560000D01*
%TO.C,R6*%
X191820800Y-41730800D02*
X191820800Y-42500800D01*
X193190800Y-42500800D02*
X190450800Y-42500800D01*
X190450800Y-42500800D02*
X190450800Y-49040800D01*
X193190800Y-49040800D02*
X193190800Y-42500800D01*
X190450800Y-49040800D02*
X193190800Y-49040800D01*
X191820800Y-49810800D02*
X191820800Y-49040800D01*
%TO.C,R7*%
X172236000Y-74930000D02*
X173006000Y-74930000D01*
X173006000Y-73560000D02*
X173006000Y-76300000D01*
X173006000Y-76300000D02*
X179546000Y-76300000D01*
X179546000Y-73560000D02*
X173006000Y-73560000D01*
X179546000Y-76300000D02*
X179546000Y-73560000D01*
X180316000Y-74930000D02*
X179546000Y-74930000D01*
%TO.C,U3*%
X186298400Y-51685500D02*
X186298400Y-41405500D01*
X186298400Y-41405500D02*
X181798400Y-41405500D01*
X185048400Y-51685500D02*
X186298400Y-51685500D01*
X181798400Y-51685500D02*
X183048400Y-51685500D01*
X181798400Y-41405500D02*
X181798400Y-51685500D01*
X185048400Y-51685500D02*
G75*
G03*
X183048400Y-51685500I-1000000J0D01*
G01*
%TO.C,Y2*%
X208836400Y-64899300D02*
X215086400Y-64899300D01*
X208836400Y-69949300D02*
X215086400Y-69949300D01*
X208836400Y-64899300D02*
G75*
G03*
X208836400Y-69949300I0J-2525000D01*
G01*
X215086400Y-69949300D02*
G75*
G03*
X215086400Y-64899300I0J2525000D01*
G01*
%TO.C,RV1*%
X208076000Y-39491000D02*
X210945000Y-39491000D01*
X208390000Y-39491000D02*
X210630000Y-39491000D01*
X208390000Y-39491000D02*
X208390000Y-35750000D01*
X210630000Y-39491000D02*
X210630000Y-35750000D01*
X206240000Y-38445000D02*
X206240000Y-35750000D01*
X212780000Y-38445000D02*
X212780000Y-35750000D01*
X206240000Y-35750000D02*
X212780000Y-35750000D01*
X208390000Y-35750000D02*
X210630000Y-35750000D01*
%TO.C,J4*%
X202976100Y-86033900D02*
X201976100Y-86033900D01*
X201976100Y-86033900D02*
X202476100Y-86533900D01*
X202476100Y-86533900D02*
X202976100Y-86033900D01*
X207386100Y-86753900D02*
X195066100Y-86753900D01*
X195066100Y-86753900D02*
X195066100Y-91013900D01*
X207386100Y-91013900D02*
X207386100Y-86753900D01*
X207386100Y-95113900D02*
X207386100Y-103473900D01*
X207386100Y-103473900D02*
X195066100Y-103473900D01*
X195066100Y-103473900D02*
X195066100Y-95113900D01*
%TO.C,F1*%
X155450000Y-30200000D02*
X155450000Y-33400000D01*
X155450000Y-30200000D02*
X157721000Y-30200000D01*
X155450000Y-33400000D02*
X162822000Y-33400000D01*
X159479000Y-30200000D02*
X166850000Y-30200000D01*
X164579000Y-33400000D02*
X166850000Y-33400000D01*
X166850000Y-30200000D02*
X166850000Y-33400000D01*
%TO.C,J1*%
X173883600Y-18941300D02*
X173883600Y-18201300D01*
X173883600Y-18201300D02*
X173383600Y-18201300D01*
X173643600Y-28362300D02*
X173643600Y-18441300D01*
X173643600Y-28362300D02*
X163363600Y-28362300D01*
X173643600Y-25402300D02*
X163363600Y-25402300D01*
X173643600Y-20501300D02*
X163363600Y-20501300D01*
X173643600Y-19001300D02*
X163363600Y-19001300D01*
X173643600Y-18441300D02*
X163363600Y-18441300D01*
X167190600Y-22078300D02*
X167237600Y-22032300D01*
X166997600Y-21862300D02*
X167032600Y-21827300D01*
X164893600Y-24376300D02*
X164928600Y-24340300D01*
X164688600Y-24170300D02*
X164735600Y-24124300D01*
X163363600Y-28362300D02*
X163363600Y-18441300D01*
X172578599Y-23785299D02*
G75*
G03*
X172579026Y-22418258I-1534992J684000D01*
G01*
X170359601Y-24636299D02*
G75*
G03*
X171726642Y-24636726I684000J1534992D01*
G01*
X171727600Y-21566301D02*
G75*
G03*
X171014795Y-21421048I-683999J-1535000D01*
G01*
X171043600Y-21421301D02*
G75*
G03*
X170360282Y-21566545I0J-1679999D01*
G01*
X169508600Y-22417300D02*
G75*
G03*
X169508174Y-23784342I1535000J-684000D01*
G01*
X167643600Y-23101300D02*
G75*
G03*
X167643600Y-23101300I-1680000J0D01*
G01*
%TO.C,J2*%
X209080000Y-18992100D02*
X209080000Y-18252100D01*
X209080000Y-18252100D02*
X208580000Y-18252100D01*
X208840000Y-28413100D02*
X208840000Y-18492100D01*
X208840000Y-28413100D02*
X188400000Y-28413100D01*
X208840000Y-25453100D02*
X188400000Y-25453100D01*
X208840000Y-20552100D02*
X188400000Y-20552100D01*
X208840000Y-19052100D02*
X188400000Y-19052100D01*
X208840000Y-18492100D02*
X188400000Y-18492100D01*
X202387000Y-22129100D02*
X202434000Y-22083100D01*
X202194000Y-21913100D02*
X202229000Y-21878100D01*
X200090000Y-24427100D02*
X200125000Y-24391100D01*
X199885000Y-24221100D02*
X199932000Y-24175100D01*
X197307000Y-22129100D02*
X197354000Y-22083100D01*
X197114000Y-21913100D02*
X197149000Y-21878100D01*
X195010000Y-24427100D02*
X195045000Y-24391100D01*
X194805000Y-24221100D02*
X194852000Y-24175100D01*
X192227000Y-22129100D02*
X192274000Y-22083100D01*
X192034000Y-21913100D02*
X192069000Y-21878100D01*
X189930000Y-24427100D02*
X189965000Y-24391100D01*
X189725000Y-24221100D02*
X189772000Y-24175100D01*
X188400000Y-28413100D02*
X188400000Y-18492100D01*
X207774999Y-23836099D02*
G75*
G03*
X207775426Y-22469058I-1534992J684000D01*
G01*
X205556001Y-24687099D02*
G75*
G03*
X206923042Y-24687526I684000J1534992D01*
G01*
X206924000Y-21617101D02*
G75*
G03*
X206211195Y-21471848I-683999J-1535000D01*
G01*
X206240000Y-21472101D02*
G75*
G03*
X205556682Y-21617345I0J-1679999D01*
G01*
X204705000Y-22468100D02*
G75*
G03*
X204704574Y-23835142I1535000J-684000D01*
G01*
X202840000Y-23152100D02*
G75*
G03*
X202840000Y-23152100I-1680000J0D01*
G01*
X197760000Y-23152100D02*
G75*
G03*
X197760000Y-23152100I-1680000J0D01*
G01*
X192680000Y-23152100D02*
G75*
G03*
X192680000Y-23152100I-1680000J0D01*
G01*
%TO.C,D1*%
X165460000Y-35950000D02*
X164440000Y-35950000D01*
X164440000Y-37420000D02*
X164440000Y-34480000D01*
X164440000Y-34480000D02*
X159000000Y-34480000D01*
X163660000Y-37420000D02*
X163660000Y-34480000D01*
X163540000Y-37420000D02*
X163540000Y-34480000D01*
X163420000Y-37420000D02*
X163420000Y-34480000D01*
X159000000Y-37420000D02*
X164440000Y-37420000D01*
X159000000Y-34480000D02*
X159000000Y-37420000D01*
X157980000Y-35950000D02*
X159000000Y-35950000D01*
%TO.C,R1*%
X172212000Y-32790000D02*
X172212000Y-33560000D01*
X173582000Y-33560000D02*
X170842000Y-33560000D01*
X170842000Y-33560000D02*
X170842000Y-40100000D01*
X173582000Y-40100000D02*
X173582000Y-33560000D01*
X170842000Y-40100000D02*
X173582000Y-40100000D01*
X172212000Y-40870000D02*
X172212000Y-40100000D01*
%TO.C,Y1*%
X192771000Y-59005000D02*
X192771000Y-65255000D01*
X187721000Y-59005000D02*
X187721000Y-65255000D01*
X192771000Y-59005000D02*
G75*
G03*
X187721000Y-59005000I-2525000J0D01*
G01*
X187721000Y-65255000D02*
G75*
G03*
X192771000Y-65255000I2525000J0D01*
G01*
%TO.C,D2*%
X167894000Y-48698000D02*
X167894000Y-47678000D01*
X166424000Y-47678000D02*
X169364000Y-47678000D01*
X169364000Y-47678000D02*
X169364000Y-42238000D01*
X166424000Y-46898000D02*
X169364000Y-46898000D01*
X166424000Y-46778000D02*
X169364000Y-46778000D01*
X166424000Y-46658000D02*
X169364000Y-46658000D01*
X166424000Y-42238000D02*
X166424000Y-47678000D01*
X169364000Y-42238000D02*
X166424000Y-42238000D01*
X167894000Y-41218000D02*
X167894000Y-42238000D01*
%TO.C,J5*%
X163136300Y-103060000D02*
X163136300Y-103800000D01*
X163136300Y-103800000D02*
X163636300Y-103800000D01*
X163376300Y-93639000D02*
X163376300Y-103560000D01*
X163376300Y-93639000D02*
X173656300Y-93639000D01*
X163376300Y-96599000D02*
X173656300Y-96599000D01*
X163376300Y-101500000D02*
X173656300Y-101500000D01*
X163376300Y-103000000D02*
X173656300Y-103000000D01*
X163376300Y-103560000D02*
X173656300Y-103560000D01*
X169829300Y-99923000D02*
X169782300Y-99969000D01*
X170022300Y-100139000D02*
X169987300Y-100174000D01*
X172126300Y-97625000D02*
X172091300Y-97661000D01*
X172331300Y-97831000D02*
X172284300Y-97877000D01*
X173656300Y-93639000D02*
X173656300Y-103560000D01*
X164441301Y-98216001D02*
G75*
G03*
X164440874Y-99583042I1534992J-684000D01*
G01*
X166660299Y-97365001D02*
G75*
G03*
X165293258Y-97364574I-684000J-1534992D01*
G01*
X165292300Y-100434999D02*
G75*
G03*
X166005105Y-100580252I683999J1535000D01*
G01*
X165976300Y-100579999D02*
G75*
G03*
X166659618Y-100434755I0J1679999D01*
G01*
X167511300Y-99584000D02*
G75*
G03*
X167511726Y-98216958I-1535000J684000D01*
G01*
X172736300Y-98900000D02*
G75*
G03*
X172736300Y-98900000I-1680000J0D01*
G01*
%TO.C,D4*%
X168929200Y-89598500D02*
X169949200Y-89598500D01*
X169949200Y-88128500D02*
X169949200Y-91068500D01*
X169949200Y-91068500D02*
X175389200Y-91068500D01*
X170729200Y-88128500D02*
X170729200Y-91068500D01*
X170849200Y-88128500D02*
X170849200Y-91068500D01*
X170969200Y-88128500D02*
X170969200Y-91068500D01*
X175389200Y-88128500D02*
X169949200Y-88128500D01*
X175389200Y-91068500D02*
X175389200Y-88128500D01*
X176409200Y-89598500D02*
X175389200Y-89598500D01*
%TO.C,D7*%
X182175300Y-93357700D02*
X183195300Y-93357700D01*
X183195300Y-91887700D02*
X183195300Y-94827700D01*
X183195300Y-94827700D02*
X188635300Y-94827700D01*
X183975300Y-91887700D02*
X183975300Y-94827700D01*
X184095300Y-91887700D02*
X184095300Y-94827700D01*
X184215300Y-91887700D02*
X184215300Y-94827700D01*
X188635300Y-91887700D02*
X183195300Y-91887700D01*
X188635300Y-94827700D02*
X188635300Y-91887700D01*
X189655300Y-93357700D02*
X188635300Y-93357700D01*
%TO.C,D5*%
X182238800Y-89623900D02*
X183258800Y-89623900D01*
X183258800Y-88153900D02*
X183258800Y-91093900D01*
X183258800Y-91093900D02*
X188698800Y-91093900D01*
X184038800Y-88153900D02*
X184038800Y-91093900D01*
X184158800Y-88153900D02*
X184158800Y-91093900D01*
X184278800Y-88153900D02*
X184278800Y-91093900D01*
X188698800Y-88153900D02*
X183258800Y-88153900D01*
X188698800Y-91093900D02*
X188698800Y-88153900D01*
X189718800Y-89623900D02*
X188698800Y-89623900D01*
%TO.C,D3*%
X168929200Y-86093300D02*
X169949200Y-86093300D01*
X169949200Y-84623300D02*
X169949200Y-87563300D01*
X169949200Y-87563300D02*
X175389200Y-87563300D01*
X170729200Y-84623300D02*
X170729200Y-87563300D01*
X170849200Y-84623300D02*
X170849200Y-87563300D01*
X170969200Y-84623300D02*
X170969200Y-87563300D01*
X175389200Y-84623300D02*
X169949200Y-84623300D01*
X175389200Y-87563300D02*
X175389200Y-84623300D01*
X176409200Y-86093300D02*
X175389200Y-86093300D01*
%TO.C,D10*%
X172236000Y-82042000D02*
X172886000Y-82042000D01*
X172886000Y-80922000D02*
X172886000Y-83162000D01*
X172886000Y-83162000D02*
X177126000Y-83162000D01*
X173486000Y-80922000D02*
X173486000Y-83162000D01*
X173606000Y-80922000D02*
X173606000Y-83162000D01*
X173726000Y-80922000D02*
X173726000Y-83162000D01*
X177126000Y-80922000D02*
X172886000Y-80922000D01*
X177126000Y-83162000D02*
X177126000Y-80922000D01*
X177776000Y-82042000D02*
X177126000Y-82042000D01*
%TO.C,C4*%
X177068775Y-49481000D02*
X176568775Y-49481000D01*
X176818775Y-49731000D02*
X176818775Y-49231000D01*
X174264000Y-50586000D02*
X174264000Y-45426000D01*
X174224000Y-50586000D02*
X174224000Y-45426000D01*
X174184000Y-50585000D02*
X174184000Y-45427000D01*
X174144000Y-50584000D02*
X174144000Y-45428000D01*
X174104000Y-50582000D02*
X174104000Y-45430000D01*
X174064000Y-50579000D02*
X174064000Y-45433000D01*
X174024000Y-50575000D02*
X174024000Y-49046000D01*
X174024000Y-46966000D02*
X174024000Y-45437000D01*
X173984000Y-50571000D02*
X173984000Y-49046000D01*
X173984000Y-46966000D02*
X173984000Y-45441000D01*
X173944000Y-50567000D02*
X173944000Y-49046000D01*
X173944000Y-46966000D02*
X173944000Y-45445000D01*
X173904000Y-50562000D02*
X173904000Y-49046000D01*
X173904000Y-46966000D02*
X173904000Y-45450000D01*
X173864000Y-50556000D02*
X173864000Y-49046000D01*
X173864000Y-46966000D02*
X173864000Y-45456000D01*
X173824000Y-50549000D02*
X173824000Y-49046000D01*
X173824000Y-46966000D02*
X173824000Y-45463000D01*
X173784000Y-50542000D02*
X173784000Y-49046000D01*
X173784000Y-46966000D02*
X173784000Y-45470000D01*
X173744000Y-50534000D02*
X173744000Y-49046000D01*
X173744000Y-46966000D02*
X173744000Y-45478000D01*
X173704000Y-50526000D02*
X173704000Y-49046000D01*
X173704000Y-46966000D02*
X173704000Y-45486000D01*
X173664000Y-50517000D02*
X173664000Y-49046000D01*
X173664000Y-46966000D02*
X173664000Y-45495000D01*
X173624000Y-50507000D02*
X173624000Y-49046000D01*
X173624000Y-46966000D02*
X173624000Y-45505000D01*
X173584000Y-50497000D02*
X173584000Y-49046000D01*
X173584000Y-46966000D02*
X173584000Y-45515000D01*
X173543000Y-50486000D02*
X173543000Y-49046000D01*
X173543000Y-46966000D02*
X173543000Y-45526000D01*
X173503000Y-50474000D02*
X173503000Y-49046000D01*
X173503000Y-46966000D02*
X173503000Y-45538000D01*
X173463000Y-50461000D02*
X173463000Y-49046000D01*
X173463000Y-46966000D02*
X173463000Y-45551000D01*
X173423000Y-50448000D02*
X173423000Y-49046000D01*
X173423000Y-46966000D02*
X173423000Y-45564000D01*
X173383000Y-50434000D02*
X173383000Y-49046000D01*
X173383000Y-46966000D02*
X173383000Y-45578000D01*
X173343000Y-50420000D02*
X173343000Y-49046000D01*
X173343000Y-46966000D02*
X173343000Y-45592000D01*
X173303000Y-50404000D02*
X173303000Y-49046000D01*
X173303000Y-46966000D02*
X173303000Y-45608000D01*
X173263000Y-50388000D02*
X173263000Y-49046000D01*
X173263000Y-46966000D02*
X173263000Y-45624000D01*
X173223000Y-50371000D02*
X173223000Y-49046000D01*
X173223000Y-46966000D02*
X173223000Y-45641000D01*
X173183000Y-50354000D02*
X173183000Y-49046000D01*
X173183000Y-46966000D02*
X173183000Y-45658000D01*
X173143000Y-50335000D02*
X173143000Y-49046000D01*
X173143000Y-46966000D02*
X173143000Y-45677000D01*
X173103000Y-50316000D02*
X173103000Y-49046000D01*
X173103000Y-46966000D02*
X173103000Y-45696000D01*
X173063000Y-50296000D02*
X173063000Y-49046000D01*
X173063000Y-46966000D02*
X173063000Y-45716000D01*
X173023000Y-50274000D02*
X173023000Y-49046000D01*
X173023000Y-46966000D02*
X173023000Y-45738000D01*
X172983000Y-50253000D02*
X172983000Y-49046000D01*
X172983000Y-46966000D02*
X172983000Y-45759000D01*
X172943000Y-50230000D02*
X172943000Y-49046000D01*
X172943000Y-46966000D02*
X172943000Y-45782000D01*
X172903000Y-50206000D02*
X172903000Y-49046000D01*
X172903000Y-46966000D02*
X172903000Y-45806000D01*
X172863000Y-50181000D02*
X172863000Y-49046000D01*
X172863000Y-46966000D02*
X172863000Y-45831000D01*
X172823000Y-50155000D02*
X172823000Y-49046000D01*
X172823000Y-46966000D02*
X172823000Y-45857000D01*
X172783000Y-50128000D02*
X172783000Y-49046000D01*
X172783000Y-46966000D02*
X172783000Y-45884000D01*
X172743000Y-50101000D02*
X172743000Y-49046000D01*
X172743000Y-46966000D02*
X172743000Y-45911000D01*
X172703000Y-50071000D02*
X172703000Y-49046000D01*
X172703000Y-46966000D02*
X172703000Y-45941000D01*
X172663000Y-50041000D02*
X172663000Y-49046000D01*
X172663000Y-46966000D02*
X172663000Y-45971000D01*
X172623000Y-50010000D02*
X172623000Y-49046000D01*
X172623000Y-46966000D02*
X172623000Y-46002000D01*
X172583000Y-49977000D02*
X172583000Y-49046000D01*
X172583000Y-46966000D02*
X172583000Y-46035000D01*
X172543000Y-49943000D02*
X172543000Y-49046000D01*
X172543000Y-46966000D02*
X172543000Y-46069000D01*
X172503000Y-49907000D02*
X172503000Y-49046000D01*
X172503000Y-46966000D02*
X172503000Y-46105000D01*
X172463000Y-49870000D02*
X172463000Y-49046000D01*
X172463000Y-46966000D02*
X172463000Y-46142000D01*
X172423000Y-49832000D02*
X172423000Y-49046000D01*
X172423000Y-46966000D02*
X172423000Y-46180000D01*
X172383000Y-49791000D02*
X172383000Y-49046000D01*
X172383000Y-46966000D02*
X172383000Y-46221000D01*
X172343000Y-49749000D02*
X172343000Y-49046000D01*
X172343000Y-46966000D02*
X172343000Y-46263000D01*
X172303000Y-49705000D02*
X172303000Y-49046000D01*
X172303000Y-46966000D02*
X172303000Y-46307000D01*
X172263000Y-49659000D02*
X172263000Y-49046000D01*
X172263000Y-46966000D02*
X172263000Y-46353000D01*
X172223000Y-49611000D02*
X172223000Y-49046000D01*
X172223000Y-46966000D02*
X172223000Y-46401000D01*
X172183000Y-49560000D02*
X172183000Y-49046000D01*
X172183000Y-46966000D02*
X172183000Y-46452000D01*
X172143000Y-49506000D02*
X172143000Y-49046000D01*
X172143000Y-46966000D02*
X172143000Y-46506000D01*
X172103000Y-49449000D02*
X172103000Y-49046000D01*
X172103000Y-46966000D02*
X172103000Y-46563000D01*
X172063000Y-49389000D02*
X172063000Y-49046000D01*
X172063000Y-46966000D02*
X172063000Y-46623000D01*
X172023000Y-49325000D02*
X172023000Y-49046000D01*
X172023000Y-46966000D02*
X172023000Y-46687000D01*
X171983000Y-49257000D02*
X171983000Y-49046000D01*
X171983000Y-46966000D02*
X171983000Y-46755000D01*
X171943000Y-49184000D02*
X171943000Y-46828000D01*
X171903000Y-49104000D02*
X171903000Y-46908000D01*
X171863000Y-49017000D02*
X171863000Y-46995000D01*
X171823000Y-48921000D02*
X171823000Y-47091000D01*
X171783000Y-48811000D02*
X171783000Y-47201000D01*
X171743000Y-48683000D02*
X171743000Y-47329000D01*
X171703000Y-48524000D02*
X171703000Y-47488000D01*
X171663000Y-48290000D02*
X171663000Y-47722000D01*
X176884000Y-48006000D02*
G75*
G03*
X176884000Y-48006000I-2620000J0D01*
G01*
%TO.C,C6*%
X182256000Y-56284000D02*
X182256000Y-56349000D01*
X182256000Y-56284000D02*
X185496000Y-56284000D01*
X182256000Y-58459000D02*
X182256000Y-58524000D01*
X182256000Y-58524000D02*
X185496000Y-58524000D01*
X185496000Y-56284000D02*
X185496000Y-56349000D01*
X185496000Y-58459000D02*
X185496000Y-58524000D01*
%TO.C,J6*%
X214080000Y-29530000D02*
X215410000Y-29530000D01*
X214080000Y-30860000D02*
X214080000Y-29530000D01*
X214080000Y-32130000D02*
X214080000Y-47430000D01*
X214080000Y-32130000D02*
X216680000Y-32130000D01*
X214080000Y-47430000D02*
X219280000Y-47430000D01*
X216680000Y-29530000D02*
X219280000Y-29530000D01*
X216680000Y-32130000D02*
X216680000Y-29530000D01*
X219280000Y-29530000D02*
X219280000Y-47430000D01*
%TO.C,R3*%
X202184000Y-83034000D02*
X202184000Y-82264000D01*
X200814000Y-82264000D02*
X203554000Y-82264000D01*
X203554000Y-82264000D02*
X203554000Y-75724000D01*
X200814000Y-75724000D02*
X200814000Y-82264000D01*
X203554000Y-75724000D02*
X200814000Y-75724000D01*
X202184000Y-74954000D02*
X202184000Y-75724000D01*
%TO.C,D6*%
X182264200Y-86106000D02*
X183284200Y-86106000D01*
X183284200Y-84636000D02*
X183284200Y-87576000D01*
X183284200Y-87576000D02*
X188724200Y-87576000D01*
X184064200Y-84636000D02*
X184064200Y-87576000D01*
X184184200Y-84636000D02*
X184184200Y-87576000D01*
X184304200Y-84636000D02*
X184304200Y-87576000D01*
X188724200Y-84636000D02*
X183284200Y-84636000D01*
X188724200Y-87576000D02*
X188724200Y-84636000D01*
X189744200Y-86106000D02*
X188724200Y-86106000D01*
%TO.C,R4*%
X212070200Y-87388700D02*
X212690200Y-87388700D01*
X212070200Y-87388700D02*
G75*
G03*
X212070200Y-87388700I-920000J0D01*
G01*
%TO.C,R5*%
X217366100Y-87388700D02*
X217986100Y-87388700D01*
X217366100Y-87388700D02*
G75*
G03*
X217366100Y-87388700I-920000J0D01*
G01*
%TO.C,C2*%
X166774000Y-51744000D02*
X166774000Y-57984000D01*
X166774000Y-51744000D02*
X174014000Y-51744000D01*
X166774000Y-57984000D02*
X174014000Y-57984000D01*
X174014000Y-51744000D02*
X174014000Y-57984000D01*
%TO.C,C9*%
X193945900Y-83644600D02*
X200185900Y-83644600D01*
X193945900Y-83644600D02*
X193945900Y-76404600D01*
X200185900Y-83644600D02*
X200185900Y-76404600D01*
X193945900Y-76404600D02*
X200185900Y-76404600D01*
%TO.C,C11*%
X193366000Y-76413500D02*
X187126000Y-76413500D01*
X193366000Y-76413500D02*
X193366000Y-83653500D01*
X187126000Y-76413500D02*
X187126000Y-83653500D01*
X193366000Y-83653500D02*
X187126000Y-83653500D01*
%TO.C,C12*%
X194039100Y-29436200D02*
X187799100Y-29436200D01*
X194039100Y-29436200D02*
X194039100Y-36676200D01*
X187799100Y-29436200D02*
X187799100Y-36676200D01*
X194039100Y-36676200D02*
X187799100Y-36676200D01*
%TO.C,J8*%
X212630000Y-34730000D02*
X211300000Y-34730000D01*
X212630000Y-33400000D02*
X212630000Y-34730000D01*
X212630000Y-32130000D02*
X212630000Y-29530000D01*
X212630000Y-32130000D02*
X209970000Y-32130000D01*
X212630000Y-29530000D02*
X209970000Y-29530000D01*
X209970000Y-32130000D02*
X209970000Y-29530000D01*
%TD*%
M02*
